<svg xmlns="http://www.w3.org/2000/svg" xml:space="preserve" width="1024" height="460" viewBox="0 0 1024 460"><path fill-rule="evenodd" d="M636.827 134.311c8.31 1.658 9.952 9.198 9.892 11.958-.052 1.933-.915 5.418-1.608 8.227-.567 2.298-.881 3.628-.863 4.183.053 1.964 1.123 3.165 2.584 4.825l.517.572.541.619c1.678 1.872 4.481 5.007 5.184 8.722.845 4.546-1.066 9.418-4.871 12.413-1.695 1.331-7.548 5.414-12.089 2.28-3.183-2.189-5.468-11.36-7.3-18.721l-.973-3.771c-2.084-7.937-3.898-19.627-3.863-23.27.035-2.729 1.008-4.959 2.839-6.446 2.329-1.886 5.793-2.439 10.01-1.591m-6.823 10.42.13 1.37c.356 3.741.895 9.375 3.477 18.678l1.3 4.802c2.346 8.7 3.911 14.443 6.454 14.885 1.029.173 2.233-.313 3.386-1.4 1.721-1.586 3.391-4.616 3.147-7.1-.287-2.904-.898-4.932-3.372-7.945a56 56 0 0 0-2.098-2.375c-1.938-2.141-3.355-3.689-3.373-5.799-.009-1.201.426-2.809.927-4.669.916-3.429 2.067-7.664.916-11.529-.812-2.705-2.609-4.688-4.928-5.444-1.783-.583-3.664-.358-4.915.591-1.211.92-1.444 2.203-1.051 5.935m36.709 6.22c.095-.905.481-1.708 1.102-2.224a1.98 1.98 0 0 1 1.438-.473c.507.048.976.304 1.33.741.507.616.76 1.479.663 2.38-.156 1.616-1.304 2.826-2.548 2.709-.512-.057-.963-.313-1.331-.754-.499-.606-.754-1.477-.654-2.379m53.521-1.816c-.819-.477-1.607-.282-2.115.524-.498.758-.979 2.844-.403 3.26.291.203.65.039.789-.039.603-.291 2.328-1.513 2.379-2.662.01-.446-.224-.832-.65-1.083m-60.708 22.895.368-.625c.894-1.525 2.22-3.823 3.233-5.717.187-.33.352-.66.525-1.006.971-1.932 1.963-3.922 3.532-3.922 1.104 0 1.963 2.722 2.713 5.119.252.79.503 1.591.764 2.354l.156.441c.445 1.288.987 2.879 2.106 2.684.419-.09 1.048-.208 5.461-11.322l1.66-4.014c1.451-3.45 3.237-7.742 3.992-9.843l.116-.334c.962-2.704 2.762-7.75 4.781-7.447 1.799.283 1.816 5.15 1.824 8.37 0 1.11 0 2.154.062 2.978l.516 6.991.919.143c.026-.078 3.082-7.698 4.646-11.997.199-.577.402-1.175.585-1.765.91-2.724 1.838-5.542 3.628-5.516 1.747.035 2.396 3.574 3.121 7.661.226 1.275.468 2.597.759 3.954l.134.65c1.114 5.284 1.353 6.376 2.172 7.004.251.191.746.36 2.231 0 .547-.134 3.377-.954 3.702-1.66.199-.42.226-.91.286-1.551.1-1.132.204-2.675 1.17-4.967.815-1.895 3.204-4.928 7.005-4.244 1.049.186 1.825.737 2.314 1.643.967 1.734.663 4.334.156 5.635-.689 1.7-2.7 3.407-3.932 4.426-.61.515-.91.78-1.058.989-.281.402-.316 1.144-.117 1.911.222.802.906 2.302 2.991 3.281 2.159 1.014 4.222-.247 5.882-1.266 1.769-1.074 2.787-1.625 3.627-.65.408.498.408 1.166-.025 1.959-1.191 2.141-5.482 4.733-9.762 4.105-4.091-.603-5.352-2.969-6.275-4.703-.398-.737-.698-1.317-1.179-1.63-.988-.646-2.97-.347-4.344.26-1.222.542-1.954 1.295-2.067 2.12-.104.693.243 2.514.819 5.224.286 1.43.637 3.063.62 3.45-.018.515-.195 3.064-1.821 3.336-1.464.252-2.734-.945-3.072-2.917-.316-1.847-1.539-7.681-2.133-8.613-.403-.642-1.101-.776-1.66-.884-.299-.06-.576-.113-.732-.234-.429-.308-1.219-1.266-.741-2.037.269-.434.624-.646 1.01-.858.421-.23.884-.485 1.075-1.036.312-.897-.321-4.898-1.239-5.96-.334-.373-.646-.412-.863-.373-.701.121-1.33 1.569-4.503 11.525-.811 2.536-1.521 4.729-1.907 5.752l-.052.13c-1.258 3.259-2.129 5.249-4.157 5.075-2.046-.169-2.028-4.213-2.028-6.151 0-.359 0-.655-.009-.888a71 71 0 0 1-.044-2.25c-.104-6.003-.312-7.425-1.118-7.616-1.074-.255-1.885 1.604-5.209 10.377l-.604 1.617c-2.154 5.669-5.799 9.657-8.474 9.267-1.608-.234-2.544-2.461-3.372-4.725q-.05-.158-.139-.407c-.59-1.729-1.104-3.052-1.998-3.008-.52.026-.967.593-1.833 1.764-.646.884-1.448 1.99-2.154 2.414-.633.369-1.565.265-2.085-.238-.493-.506-.484-1.304.045-2.235m100.048-27.888c-.499-.065-.941.156-1.313.628-.606.846-.88 2.549-.494 3.372.199.464.546.551.736.568 1.045.082 1.938-1.681 2.051-2.874.129-1.135-.421-1.612-.98-1.694m1.703-4.784c.901.18 1.717.774 2.279 1.684.945 1.5 1.167 3.672.586 5.952-.478 1.994-1.703 3.515-2.67 4.737-.858 1.089-1.47 1.881-1.34 2.658.065.364.273.685.638.927 2.553 1.712 5.891-2.644 9.098-7.248l.75-1.105c2.254-3.229 5.318-7.661 6.536-7.57 1.066.069 1.708 2.453 2.133 4.029l.203.732c.14.498.243.975.338 1.439.253 1.283.478 2.388 1.505 2.678 1.353.386 4.568-3.463 6.371-5.791 1.223-1.57 3.78-3.712 5.259-3.504 1.348.195 1.924 1.821 2.396 3.125.096.284.191.552.295.787.088.216.165.411.226.62.442 1.083.807 2.037 1.895 2.116 1.439.117 2.943-2.055 4.542-4.357.313-.444.633-.908.94-1.326l.078-.109c1.656-2.265 2.965-4.065 5.21-4.156 1.704-.07 2.848 2.208 3.768 4.039.251.49.481.948.697 1.318 1.04 1.747 1.548 2.197 2.492 2.193.663 0 1.231-.437 1.808-.849a6.6 6.6 0 0 1 .814-.541c.364-.184.889-.266 1.231-.06.395.222.473.765.489 1.195.078 1.716-1.391 5.175-5.123 5.391-1.772.092-3.346-1.291-4.681-4.122-.603-1.266-1.287-2.49-2.389-2.443-.628.026-1.222.843-2.644 2.984-.771 1.145-1.557 2.333-2.216 3-1.702 1.755-4.009 4.134-6.211 3.419-1.422-.459-2.314-2.172-3.107-3.671-.746-1.43-1.331-2.548-2.327-2.548-.824.009-2.094 1.409-4.586 4.378-1.066 1.257-2.085 2.457-2.605 2.874-1.772 1.409-4.161 2.744-5.462 1.227-.767-.902-1.27-2.276-1.668-3.368-.517-1.452-.906-2.492-1.781-2.458-.702.025-1.617 1.191-4.101 4.5-1.634 2.184-3.502 4.659-4.525 5.378-2.089 1.482-4.196 2.22-5.439 1.929-1.535-.368-2.397-1.005-3.117-1.517-.576-.417-1.057-.767-1.703-.789a17 17 0 0 0-1.066.022c-1.066.056-2.825.143-3.164-.421-.442-.732.199-1.421.517-1.686.147-.122.315-.252.488-.382.534-.385 1.063-.793 1.306-1.413.226-.637.096-1.682-.061-2.9-.165-1.074-.32-2.306-.208-3.29.269-2.21.771-4.019 2.475-5.643 1.328-1.255 2.92-2.471 4.831-2.064m13.693-8.371c.018-.8.334-1.53.837-2.018.39-.366.85-.558 1.339-.548a1.84 1.84 0 0 1 1.283.613c.503.514.763 1.274.745 2.065s-.329 1.535-.841 2.026c-.39.364-.845.546-1.344.534-.472-.018-.914-.221-1.287-.611-.484-.51-.759-1.262-.732-2.061m62.715 2.29c-.818-4.642-3.52-25.79-3.372-31.188.178-5.587.962-10.312 9.107-11.542 10.294-1.556 12.365 3.816 12.773 6.218.919 5.333-2.675 12.241-3.402 13.571-.993 1.822-1.383 3.201-1.193 4.313.261 1.595 1.461 2.761 3 4.235.547.527 1.119 1.065 1.704 1.703 5.635 5.933 5.01 13.496 2.444 16.469-1.898 2.17-6.172 3.687-8.973 3.192-1.222-.227-2.028-.811-2.38-1.719-.312-.791-.363-1.387-.13-1.747.352-.592 1.496-.748 2.631-.891 1.146-.171 2.341-.328 3.147-.967.932-.726 1.938-2.299 1.963-4.512.018-1.918-.715-4.844-4.343-7.834-2.18-1.799-4.325-3.73-4.517-5.959-.19-2.417.858-5.204 2.527-8.661 2.631-5.474 3.276-9.056 2.024-11.299-.741-1.341-2.189-2.126-4.265-2.334-1.197-.122-4.114.34-5.67 1.693-1.374 1.181-2.012 3.515-1.895 5.116.382 6.354 1.604 18.019 2.41 23.822.247 1.58.473 3.076.672 4.378.693 4.343 1.195 7.482.286 8.706-.252.333-.572.52-1.089.594-2.219.331-2.934-2.135-3.385-4.859a3 3 0 0 0-.074-.498m28.239-9.23c-.32-.247-.485-.531-.521-.873-.121-1.231 1.539-3.182 3.238-5.069.984-1.084 1.825-2.231 2.583-3.234 1.482-2.035 2.684-3.622 3.879-3.466 1.357.174 1.661 2.374 2.016 4.927.2 1.337.391 2.724.771 4.076 1.084 4.044 2.003 4.369 3.373 4.43l.182.004c1.565.095 4.776-3.517 9.05-13.894 1.158-2.796 2.293-5.791 3.391-8.691 2.656-7.013 5.651-14.956 7.347-14.91 1.938.056 1.946 3.528 1.955 7.21.008 1.131.008 2.301.086 3.395.108 1.63.135 3.132.169 4.439.083 3.184.144 4.493.655 4.974.585.539 1.659.026 4.039-1.207 1.102-.57 2.376-1.223 3.555-1.688l.174-.074c2.128-.843 6.067-2.412 7.866-1.547.421.19.689.509.819.96q.197.652-.061 1.135c-.611 1.129-2.9 1.773-5.137 2.413-1.092.306-2.219.635-3.198 1.019-4.191 1.66-6.606 3.155-7.576 4.69-.586.956-.56 2.878-.534 5.108.026 1.738.053 3.548-.26 4.625-.173.627-.642 1.049-1.244 1.14-1.231.178-2.709-.873-3.957-2.804-2.691-4.179-1.34-5.86-.446-6.981.229-.275.402-.504.516-.747.711-1.593.468-5.704-.078-6.709-.13-.235-.304-.382-.516-.408-.56-.087-.707.173-2.605 4.612-1.712 4.022-4.308 10.112-6.657 13.31-3.563 4.862-7.048 6.47-10.976 5.04-1.616-.581-2.994-4.067-3.827-6.15-.671-1.758-.914-2.313-1.365-2.435-.485-.149-.896.291-1.729 1.16-1.687 1.782-3.469 3.408-4.977 2.22m8.105-20.955c.377-1.482 1.651-2.451 2.874-2.152 1.234.288 1.924 1.735 1.573 3.209-.355 1.487-1.643 2.456-2.856 2.166-.517-.122-.958-.462-1.271-.953-.389-.633-.494-1.466-.32-2.27m-.698 49.814c-8.764 2.466-16.501 4.412-24.693 6.475-17.32 4.391-35.238 8.917-63.512 18.582-40.414 13.831-61.758 21.88-69.794 24.91l-1.17.447c-1.729.646-3.594 1.409-5.409 2.15-4.6 1.881-10.338 4.23-11.591 3.588-.069-.039-.095-.073-.104-.126-.304-1.252 1.374-2.032 7.893-4.814a460 460 0 0 0 8.482-3.714c13.477-6.073 53.738-20.997 70.643-26.969 16.423-5.782 38.069-13.06 87.604-26.25 46.366-12.347 48.542-11.859 50.254-7.809.217.518.226.936.026 1.313-.977 1.818-6.728 2.928-15.422 4.601-8.153 1.569-19.342 3.715-33.207 7.616M659.78 282.451c1.82 5.236 1.638 9.573 1.638 9.573v72.65c.439 6.91-1.599 17.192 4.001 23.679s19.152 13.332 19.152 13.332l25.646-25.996s-7.133-3.837-14.677-10.422c-4.462-3.895-3.775-9.933-3.775-9.933v-70.447l12.846 13.166 25.555-24.783-27.148-26.847-15.257 18.038-.686-1.507c-4.663-9.328-14.438-17.018-14.438-17.018l-23.024 20.628c-.001.002 9.177 13.035 10.167 15.887m-84.805 76.401c1.904 3.332 7.768 5.565 9.016 5.704l13.998-12.115-.055-78.749c-.457-5.215-3.477-7.924-3.477-7.924l34.895-18.781-.001 104.509v1.739s-.521 8.026 1.672 11.183c3.09 4.441 11.577 10.998 11.577 10.998s-24.292 23.737-26.734 26.344c0 0-12.587-8.267-17.934-17.044-3.486-5.72 2.396-9.58 2.396-9.58l-29.749 26.515s-9.483-5.69-18.919-13.918c-3.229-2.814-8.861-11.521-8.918-29.808l-.31-70.307s.256-5.524-2.925-9.182c-2.101-2.412-10.019-8.832-10.019-8.832l28.607-19.248s16.312 10.663 15.367 30.547v69.916c.002-.001-.394 4.702 1.513 8.033M411.929 190.061l32.953-35.892H396.01l-.008-3.332.146-76.029-58.415 40.816v40.417l-.633.825-26.502 31.17 21.993.105 2.741.015v3.052l-.139 157.575c.073 8.502-2.165 19.923 2.995 25.872 20.847 24.048 31.764 26.791 31.764 26.791l44.802-45.953s-14.181-9.245-18.963-15.489c-2.37-3.095-2.374-14.686-2.374-14.686l.097-1.796v-133.55zM297.958 340.952c-2.927-4.389-1.69-13.086-1.69-13.086l.065-113.444c-.184-13.715-1.017-17.382-3.476-24.504-5.485-12.252-32.703-36.864-32.703-36.864l-40.957 40.5s14.057 12.661 17.109 18.766c2.605 5.211 2.522 13.73 2.522 13.73l-.001 1.229-.08 121.885c-.146 7.574-1.29 20.934 1.606 25.86 19.2 22.582 29.204 26.552 29.204 26.552l45.715-47.31c.001 0-13.96-8.278-17.314-13.314" clip-rule="evenodd"/><path fill-rule="evenodd" d="m261.132 73.68-42.521 41.244c5.268 5.629 29.942 30.507 41.302 42.355l41.938-41.789zM912.67 281.954c-6.959-9.282-18.861-24.826-28.179-35.788l-46.145 31.035 2.876 65.841c-.198 12.842-2.583 26.079 5.185 33.395 20.591 19.392 31.956 24.909 31.956 24.909l26.428-26.373s-8.269-4.517-13.835-8.22c-6.077-4.046-21.557-13.704-21.216-25.053.062-2.052 0-1.201 0-1.201l37.761-28.11c15.339-12.175 15.265-16.909 5.169-30.435m-44.411 36.43-.018-48.569 25.941 29.621z" clip-rule="evenodd"/><path fill="#e77e03" fill-rule="evenodd" d="M904.384 281.251c-6.966-9.294-15.512-20.836-24.838-31.807l-46.681 31.11v62.152c-.2 12.86 2.84 20.615 9.034 29.315 7.224 10.151 30.711 25.878 30.711 25.878l22.538-22.74s-12.562-7.25-19.556-12.736c-6.539-5.128-13.194-12.619-13.194-23.041v-1.208l36.19-26.46c16.396-13.013 16.519-16.097 5.796-30.463m-42.591 39.045.243-48.831 23.411 30.054z" clip-rule="evenodd"/><path fill="#fff1c3" fill-rule="evenodd" d="m863.855 265.935-8.565 5.5-13.606 12.295 2.793 65.566 25.356 31.776.455 2.948 2.132 13.751c-2.223-1.502-23.675-16.128-30.521-25.749-6.194-8.7-9.234-16.455-9.034-29.315v-62.152l26.31-17.534c2.848 1.764 4.68 2.914 4.68 2.914" clip-rule="evenodd"/><path fill="#fff1c3" fill-rule="evenodd" d="m858.55 263.438 8.454 1.795 9.991-7.174 2.82-8.297-.27-.317z" clip-rule="evenodd"/><path fill="#fff1c3" fill-rule="evenodd" d="m867.828 265.273 31.676 30.833-2.764 4.529h-10.778l-26.333-34.226-1.103-2.956 2.965-1.975z" clip-rule="evenodd"/><path fill="#fff1c3" fill-rule="evenodd" d="m851.119 332.877 10.118-10.841 6.17-6.197 18.04-14.32-1.659-2.131.409-.411 6.187-1.765 4.422 3.146z" clip-rule="evenodd"/><path fill="none" stroke="#000" stroke-miterlimit="2.613" stroke-width="2.488" d="M904.384 281.251c-6.966-9.294-15.512-20.836-24.838-31.807m0 0-46.681 31.11v62.152m0 .001c-.2 12.86 2.84 20.615 9.034 29.315 7.224 10.151 30.711 25.878 30.711 25.878m0 0 22.538-22.74m0 0s-12.562-7.25-19.556-12.736c-6.539-5.128-13.194-12.619-13.194-23.041v-1.208m0 0 36.19-26.46m.001 0c16.396-13.014 16.519-16.098 5.795-30.464m-42.591 39.045.243-48.831 23.411 30.054z"/><path fill-rule="evenodd" stroke="#000" stroke-miterlimit="2.613" stroke-width="2.488" d="m770.169 246.17-43.772 42.248 4.938 62.374c.154 3.928 1.203 12.358 3.072 17.374 2.979 7.997 4.179 16.416 6.926 18.959 5.989 5.542 16.982 13.834 16.982 13.834l24.732-27.764 1.097-1.25v47.313s.915 4.149-.912 4.149c-2.359 0-7.982-3.837-7.982-3.837l-31.282-21.459-23.126 23.1s18.592 22.778 39.469 22.771c47.179-.02 56.052-32.186 56.017-39.554-.034-7.371.048-124.002.048-124.002zm14.845 120.549s-9.448-.268-14.994-5.122c-8.778-7.681-8.59-13.963-8.564-16.273v-70.567l23.576 18.685z" clip-rule="evenodd"/><path fill="#e77e03" fill-rule="evenodd" stroke="#000" stroke-miterlimit="2.613" stroke-width="2.488" d="m767.092 249.487-43.526 40.724v60.784c.154 3.923 1.204 12.358 3.074 17.37 2.979 7.997 7.563 12.453 10.312 14.994 5.989 5.543 17.084 14.378 17.084 14.378l21.244-24.341 1.097-1.248v47.31s.551 5.413-1.278 5.413c-2.359 0-8.046-3.657-8.046-3.657l-27.322-18.778-22.76 22.459s19.33 18.801 40.206 18.868c39.975.127 52.661-31.763 52.626-39.135-.032-7.37.048-123.377.048-123.377zm9.055 122.661s-8.207-2.636-13.636-7.621c-8.961-8.229-9.341-15.972-9.316-18.289v-73.677l22.952 18.684z" clip-rule="evenodd"/><path fill="none" stroke="#000" stroke-miterlimit="2.613" stroke-width="2.488" d="m767.092 249.487-43.526 40.724v60.784c.154 3.923 1.204 12.358 3.074 17.37 2.979 7.997 7.563 12.453 10.312 14.994 5.989 5.543 17.084 14.378 17.084 14.378l21.244-24.341 1.097-1.248v47.31s.551 5.413-1.278 5.413c-2.359 0-8.046-3.657-8.046-3.657l-27.322-18.778-22.76 22.459s19.33 18.801 40.206 18.868c39.975.127 52.661-31.763 52.626-39.135-.032-7.37.048-123.377.048-123.377zm9.055 122.661s-8.207-2.636-13.636-7.621c-8.961-8.229-9.341-15.972-9.316-18.289v-73.677l22.952 18.684z"/><path fill="#fff1c3" fill-rule="evenodd" d="m749.662 265.795 4.463 2.149s-16.138 15.673-15.516 15.466-6.168 63.663-4.925 70.678 12.197 23.15 12.197 23.15l5.945 8.42 2.219 12.066-.011.013s-11.095-8.835-17.084-14.378c-2.748-2.541-7.333-6.997-10.312-14.994-1.87-5.012-2.92-13.447-3.074-17.37v-60.784z" clip-rule="evenodd"/><path fill="#fff1c3" fill-rule="evenodd" d="m767.312 249.65-.872 9.241-2.325 9.926s27.372 17.645 27.372 18.911c0 1.268 2.217 47.642 2.851 53.252s-1.9 72.072-1.9 72.072l-6.334 13.844-1.656.233s-10.471 3.908-7.75-5.642c.466-1.632.254-3.967-.32-6.543v-42.797l-1.06 1.206-.021-1.504c.541.197.853.298.853.298v-80.903l-22.39-18.226-.965-2.183-4.395-3.86 18.693-17.489zm-41.419 175.006-8.902.257-.021-.019 22.76-22.459.247.17-.804 12.061z" clip-rule="evenodd"/><path fill="none" stroke="#000" stroke-miterlimit="2.613" stroke-width="2.488" d="m767.092 249.487-43.526 40.724v60.784m-.001 0c.154 3.923 1.204 12.358 3.074 17.37 2.979 7.997 7.563 12.453 10.312 14.994 5.989 5.543 17.084 14.378 17.084 14.378m0 0 21.244-24.341 1.097-1.248v47.31m0 0s.551 5.413-1.278 5.413c-2.359 0-8.046-3.657-8.046-3.657m0 0-27.322-18.778-22.76 22.459m0 0s19.33 18.801 40.206 18.868c39.975.127 52.661-31.763 52.626-39.135-.032-7.37.048-123.377.048-123.377m0 0-42.758-31.764m9.055 122.661s-8.207-2.636-13.636-7.621c-8.961-8.229-9.341-15.972-9.316-18.289m0 0v-73.677l22.952 18.684v80.903"/><path fill-rule="evenodd" stroke="#000" stroke-miterlimit="2.613" stroke-width="2.488" d="M207.15 313.49s1.755-70.09-.622-77.223c-4.691-14.073-46.173-48.953-46.173-48.953l-1.389-1.444 2.005-2.105s33.955-34.229 36.876-37.902c3.171-4.631 4.615-10.063 4.582-12.673-.057-4.522-2.123-9.513-6.512-14.268L156.43 80.705c-2.775-2.782-6.197-4.175-9.633-4.175-3.434 0-6.289 1.903-8.541 4.156-3.288 3.181-6.162 5.767-9.363 9.251l-17.309 18.773-2.13 2.074-1.37-1.454-32.127-32.306-42.827 42.664 3.864 3.369s19.128 15.982 19.904 25.583v7.681l-.196 191.859v1.136l-36.148 39.957 142.76-.021 47.014-45.13c0-.002-3.982-5.45-3.178-30.632zm-56.532 38.236h-37.432V219.14s25.805 23.33 27.833 25.356c1.646 1.646 2.743 2.342 5.486 5.357 2.29 2.588 3.977 5.613 4.389 11.785zm-9.188-167.85c-7.68 7.132-28.382 23.135-28.382 23.135l.037-86.699s18.196 14.19 26.15 22.146c7.955 7.954 18.058 16.449 18.058 22.328 0 5.101-8.044 11.831-15.863 19.09z" clip-rule="evenodd"/><path fill="#e77e03" fill-rule="evenodd" stroke="#000" stroke-miterlimit="2.613" stroke-width="2.488" d="M199.473 313.745s1.755-70.093-.622-77.225c-4.69-14.072-47.728-48.952-47.728-48.952l-1.391-1.444 2.006-2.105s35.509-34.23 38.431-37.903l.331-.597a16.6 16.6 0 0 0 4.874-11.765c0-5.013-2.216-9.506-5.722-12.558l-37.693-35.83-.524-.531a12.4 12.4 0 0 0-8.796-3.643 12.4 12.4 0 0 0-8.797 3.643l-.661.62c-2.627 2.563-5.501 5.771-8.703 9.255-7.879 8.579-19.918 20.366-19.918 20.366L71.028 81.818 28.201 124.48l4.225 3.858s14.464 10.954 15.241 20.555v7.68l-.197 191.863v1.133l-.738.861-35.41 38.784 142.626-.089 47.463-47.092s-2.742-3.106-1.938-28.288zm-58.087 36.989H105.82v-131.34s23.939 23.328 25.966 25.354c1.646 1.646 2.742 2.342 5.485 5.359 2.292 2.586 3.978 5.614 4.389 11.785zm-35.703-143.469.036-87.738s16.329 15.23 24.284 23.186 19.972 16.768 18.058 22.328c-2.747 7.976-42.378 42.224-42.378 42.224z" clip-rule="evenodd"/><path fill="none" stroke="#000" stroke-miterlimit="2.613" stroke-width="2.488" d="M199.473 313.745s1.755-70.093-.622-77.225c-4.69-14.072-47.728-48.952-47.728-48.952l-1.391-1.444 2.006-2.105s35.509-34.23 38.431-37.903l.331-.597a16.6 16.6 0 0 0 4.874-11.765c0-5.013-2.216-9.506-5.722-12.558l-37.693-35.83-.524-.531a12.4 12.4 0 0 0-8.796-3.643 12.4 12.4 0 0 0-8.797 3.643l-.661.62c-2.627 2.563-5.501 5.771-8.703 9.255-7.879 8.579-19.918 20.366-19.918 20.366L71.028 81.818 28.201 124.48l4.225 3.858s14.464 10.954 15.241 20.555v7.68l-.197 191.863v1.133l-.738.861-35.41 38.784 142.626-.089 47.463-47.092s-2.742-3.106-1.938-28.288zm-58.087 36.989H105.82v-131.34s23.939 23.328 25.966 25.354c1.646 1.646 2.742 2.342 5.485 5.359 2.292 2.586 3.978 5.614 4.389 11.785zm-35.703-143.469.036-87.738s16.329 15.23 24.284 23.186 19.972 16.768 18.058 22.328c-2.747 7.976-42.378 42.224-42.378 42.224z"/><path fill="#fff1c3" fill-rule="evenodd" d="m11.954 389.214 22.684-12.905s40.149-23.712 40.149-25.525-.066-116.763-.066-116.763L68.464 98.192l2.727-16.212-.162-.161-42.828 42.661 4.225 3.858s14.464 10.954 15.241 20.555v7.68l-.197 191.863v1.133l-.738.861-35.41 38.784zm92.829-274.356c-.459 1.896-.305 4.148.935 6.776l.001-2.108s16.329 15.23 24.284 23.186 19.972 16.768 18.058 22.328c-2.746 7.977-42.378 42.225-42.378 42.225l.002-4.791-1.275 7.128.202 6.936s.453 2.042 1.208 5.463v-2.607s23.939 23.328 25.966 25.354c1.646 1.646 2.742 2.342 5.485 5.359 2.292 2.586 3.978 5.614 4.389 11.785l-.272 88.558 14.291 15.901 13.589-22.21.868-37.791-13.61-60.949-15.346-24.181 3.039-21.857-13.879-8.686s23.471-16.095 25.573-26.606c3.447-17.235-15.467-69.697-15.467-69.697s7.886-10.182-1.408-11.871a8.7 8.7 0 0 0-1.683-.135 12.5 12.5 0 0 0-3.51 2.466l-.661.62c-2.627 2.563-5.501 5.771-8.703 9.255-7.252 7.895-18.027 18.509-19.698 20.149" clip-rule="evenodd"/><path fill="#fff1c3" fill-rule="evenodd" d="m136.521 189.932 24.595-25.486-10.649-14.314.407 17.258-35.245 38.094 13.97-8.978z" clip-rule="evenodd"/><path fill="none" stroke="#000" stroke-miterlimit="2.613" stroke-width="2.488" d="M199.473 313.745s1.755-70.093-.622-77.225c-4.69-14.072-47.728-48.952-47.728-48.952m.001 0-1.391-1.444 2.006-2.105m0 0s35.509-34.23 38.431-37.903m0 0 .331-.597m0 0a16.6 16.6 0 0 0 4.874-11.765c0-5.013-2.216-9.506-5.722-12.558m0 0-37.693-35.83-.524-.531m0 0a12.4 12.4 0 0 0-8.796-3.643 12.4 12.4 0 0 0-8.797 3.643m0 0-.661.62m0 0c-2.627 2.563-5.501 5.771-8.703 9.255-7.879 8.579-19.918 20.366-19.918 20.366m0-.001L71.028 81.818 28.201 124.48l4.225 3.858m0 0s14.464 10.954 15.241 20.555m0 0v7.68l-.197 191.863v1.133l-.738.861-35.41 38.784 142.626-.089 47.463-47.092m0 0s-2.742-3.106-1.938-28.288m-58.087 36.989H105.82v-131.34m0 .001s23.939 23.328 25.966 25.354c1.646 1.646 2.742 2.342 5.485 5.359 2.292 2.586 3.978 5.614 4.389 11.785m0 .001-.273 88.841m-35.704-143.47.036-87.738m0-.001s16.329 15.23 24.284 23.186 19.972 16.768 18.058 22.328c-2.746 7.977-42.378 42.225-42.378 42.225"/><path fill-rule="evenodd" stroke="#000" stroke-miterlimit="2.613" stroke-width="2.488" d="m464.694 266.181-.015-77.643-30.023 29.959.07 123.563c.072 21.534 2.279 33.237 10.508 40.368 9.715 8.419 26.94 19.426 26.94 19.426l21.318-13.619c17.008-11.446 20.843-17.101 22.492-21.896 1.491-4.351 1.978-11.393 2.139-18.735l.008-46.276c0-3.839.048-11.128-1.218-16.273-1.279-5.213-3.109-8.533-6.857-12.92-1.67-2.1-19.634-20.353-26.191-26.307zm25.021 87.651c-.545 4.113-10.698 10.147-10.698 10.147s-10.605-6.17-12.818-12.743c-.62-1.837-.977-11.175-1.175-20.913l-.071-55.673 19.222 18.507c1.299 1.307 3.337 3.429 4.297 5.213 1.389 2.586 1.26 5.688 1.37 10.83l-.011 29.078c-.001 0 .472 11.17-.116 15.554z" clip-rule="evenodd"/><path fill="#e77e03" fill-rule="evenodd" stroke="#000" stroke-miterlimit="2.613" stroke-width="2.488" d="M510.156 285.621c-1.507-5.487-4.353-8.826-6.033-10.975-.103-.376-17.62-18.586-24.175-24.538l-21.478 22.599-.316-6.765v-70.877l-31.267 31.204.07 115.995c-.552 19.702 7.938 31.701 16.166 38.832 9.713 8.417 24.359 17.591 24.359 17.591l21.815-14.539c17.007-11.448 18.504-14.674 20.15-19.476 1.49-4.35 1.837-9.527 1.998-16.868 0 0 .087-47.765.106-48.083.215-3.33.056-8.84-1.395-14.1zm-28.997 68.266c-.547 4.112-10.697 10.146-10.697 10.146s-8.573-4.978-10.79-11.557c-.619-1.837-.975-12.27-1.172-22.01l-.07-55.672 16.378 15.726c1.303 1.31 4.275 4.2 5.895 7.991 1.753 4.118 1.229 6.791 1.339 11.934l.02 27.978c0-.001-.319 11.079-.903 15.464z" clip-rule="evenodd"/><path fill="none" stroke="#000" stroke-miterlimit="2.613" stroke-width="2.488" d="M510.156 285.621c-1.507-5.487-4.353-8.826-6.033-10.975-.103-.376-17.62-18.586-24.175-24.538l-21.478 22.599-.316-6.765v-70.877l-31.267 31.204.07 115.995c-.552 19.702 7.938 31.701 16.166 38.832 9.713 8.417 24.359 17.591 24.359 17.591l21.815-14.539c17.007-11.448 18.504-14.674 20.15-19.476 1.49-4.35 1.837-9.527 1.998-16.868 0 0 .087-47.765.106-48.083.215-3.33.056-8.84-1.395-14.1zm-28.997 68.266c-.547 4.112-10.697 10.146-10.697 10.146s-8.573-4.978-10.79-11.557c-.619-1.837-.975-12.27-1.172-22.01l-.07-55.672 16.378 15.726c1.303 1.31 4.275 4.2 5.895 7.991 1.753 4.118 1.229 6.791 1.339 11.934l.02 27.978c0-.001-.319 11.079-.903 15.464z"/><path fill="#fff1c3" fill-rule="evenodd" d="m458.154 195.676-8.528 15.175-5.281 133.869 21.393 39.049 1.865 14.838-.121.08s-14.646-9.174-24.359-17.591c-8.228-7.131-16.718-19.13-16.166-38.832l-.07-115.995 31.267-31.204z" clip-rule="evenodd"/><path fill="#fff1c3" fill-rule="evenodd" d="m457.586 274.23 13.41-3.592s24.987 26.257 25.615 28.139 3.829 49.923 3.829 49.923l-31.993 27.311 2.236-12.113c1.482-.907 9.976-6.258 10.475-10.011.584-4.385.903-15.465.903-15.465l-.02-27.978c-.11-5.143.414-7.815-1.339-11.934-1.62-3.791-4.592-6.682-5.895-7.991l-16.378-15.726.006 5.013z" clip-rule="evenodd"/><path fill="none" stroke="#000" stroke-miterlimit="2.613" stroke-width="2.488" d="M510.156 285.621c-1.507-5.487-4.353-8.826-6.033-10.975-.103-.376-17.62-18.586-24.175-24.538m0 0-21.478 22.599-.316-6.765v-70.877l-31.267 31.204.07 115.995m.001 0c-.552 19.702 7.938 31.701 16.166 38.832 9.713 8.417 24.359 17.591 24.359 17.591m-.001 0 21.815-14.539m0-.001c17.007-11.448 18.504-14.674 20.15-19.476 1.49-4.35 1.837-9.527 1.998-16.868 0 0 .087-47.765.106-48.083.214-3.33.056-8.84-1.396-14.1m-28.996 68.267c-.547 4.112-10.697 10.146-10.697 10.146s-8.573-4.978-10.79-11.557c-.619-1.837-.975-12.27-1.172-22.01m0 0-.07-55.672 16.378 15.726m.001 0c1.303 1.31 4.275 4.2 5.895 7.991 1.753 4.118 1.229 6.791 1.339 11.934m-.001-.001.02 27.978m0 0s-.319 11.08-.903 15.465"/><path fill="#e77e03" fill-rule="evenodd" stroke="#000" stroke-miterlimit="2.613" stroke-width="2.488" d="M651.517 282.484c1.484 3.538 1.742 7.388 1.638 9.577v72.646c.438 6.913 1.787 13.998 7.389 20.481 5.6 6.487 18.033 13.258 18.033 13.258l21.967-22.127s-8.383-4.914-12.859-9.783c-3.155-3.428-2.94-11.477-2.94-11.477v-77.414l16.284 16.752 21.341-21.089-22.76-22.69-15.799 18.807s-1.597-2.883-2.711-4.653c-7.68-12.207-12.89-14.775-12.89-14.775l-24.688 21.083c-.001 0 4.936 4.117 7.995 11.404z" clip-rule="evenodd"/><path fill="none" stroke="#000" stroke-miterlimit="2.613" stroke-width="2.488" d="M651.517 282.484c1.484 3.538 1.742 7.388 1.638 9.577v72.646c.438 6.913 1.787 13.998 7.389 20.481 5.6 6.487 18.033 13.258 18.033 13.258l21.967-22.127s-8.383-4.914-12.859-9.783c-3.155-3.428-2.94-11.477-2.94-11.477v-77.414l16.284 16.752 21.341-21.089-22.76-22.69-15.799 18.807s-1.597-2.883-2.711-4.653c-7.68-12.207-12.89-14.775-12.89-14.775l-24.688 21.083c-.001 0 4.936 4.117 7.995 11.404z"/><path fill="#fff1c3" fill-rule="evenodd" d="m668.54 250.188-1.806 11.583s7.521 78.737 7.175 82.898 1.388 15.518 2.081 18.985 1.387 9.276 1.387 9.276l-1.553 14.559 2.565 10.854c-1.561-.866-12.648-7.131-17.847-13.154-5.602-6.483-6.95-13.568-7.389-20.481v-72.646c.104-2.189-.153-6.039-1.638-9.577-3.059-7.287-7.996-11.404-7.996-11.404l24.688-21.083c.002-.001.115.055.333.19" clip-rule="evenodd"/><path fill="#e77e03" fill-rule="evenodd" d="m699.868 250.879-.927 10.264.829 19.348 1.45 13.718-.193.19-16.284-16.752v1.604c-.48-.939-1.739-4.069-1.126-10.171l.192.347 15.799-18.807z" clip-rule="evenodd"/><path fill="#fff1c3" fill-rule="evenodd" d="m683.461 271.49 11.063 4.861 4.099-11.022.341-3.667-.022-.52.927-10.264-.26-.26-15.799 18.807-.192-.347a31 31 0 0 0-.157 2.412" clip-rule="evenodd"/><path fill="none" stroke="#000" stroke-miterlimit="2.613" stroke-width="2.488" d="M651.517 282.484c1.484 3.538 1.742 7.388 1.638 9.577m-.001.001v72.646m0-.001c.438 6.913 1.787 13.998 7.389 20.481 5.6 6.487 18.033 13.258 18.033 13.258m0 0 21.967-22.127m0 0s-8.383-4.914-12.859-9.783c-3.155-3.428-2.94-11.477-2.94-11.477m-.001.001v-77.414l16.284 16.752 21.341-21.089-22.76-22.69-15.799 18.807m.001 0s-1.597-2.883-2.711-4.653c-7.68-12.207-12.89-14.775-12.89-14.775m0-.001-24.688 21.083m0 0s4.938 4.117 7.996 11.404"/><path fill="#e77e03" fill-rule="evenodd" stroke="#000" stroke-miterlimit="2.613" stroke-width="2.488" d="M568.14 361.862c1.903 3.331 7.146 7.279 8.392 7.417l13.688-12.109-.054-78.568c-.691-6.834-3.384-8.76-3.384-8.76l35.163-18.889-.053 100.743v1.738s-.463 9.266 2.28 12.965c3.22 4.349 9.371 9.281 9.371 9.281s-20.099 19.705-22.542 22.312c0 0-10.413-7.593-15.762-16.37-3.486-5.714-3.39-6.521-3.39-6.521l-26.243 23.289s-6.164-4.068-13.391-10.091c-3.294-2.743-17.19-13.35-17.241-30.173l-.311-70.312s.256-5.52-2.925-9.178c-2.103-2.415-6.81-6.034-6.81-6.034l27.901-18.507s14.748 9.638 13.797 27.009v69.917c.003.001-.393 7.505 1.514 10.841z" clip-rule="evenodd"/><path fill="none" stroke="#000" stroke-miterlimit="2.613" stroke-width="2.488" d="M568.14 361.862c1.903 3.331 7.146 7.279 8.392 7.417l13.688-12.109-.054-78.568c-.691-6.834-3.384-8.76-3.384-8.76l35.163-18.889-.053 100.743v1.738s-.463 9.266 2.28 12.965c3.22 4.349 9.371 9.281 9.371 9.281s-20.099 19.705-22.542 22.312c0 0-10.413-7.593-15.762-16.37-3.486-5.714-3.39-6.521-3.39-6.521l-26.243 23.289s-6.164-4.068-13.391-10.091c-3.294-2.743-17.19-13.35-17.241-30.173l-.311-70.312s.256-5.52-2.925-9.178c-2.103-2.415-6.81-6.034-6.81-6.034l27.901-18.507s14.748 9.638 13.797 27.009v69.917c.003.001-.393 7.505 1.514 10.841z"/><path fill="#fff1c3" fill-rule="evenodd" d="m551.023 263.472 2.104-9.172c-.189-.134-.295-.203-.295-.203l-27.901 18.507s4.707 3.619 6.81 6.034c3.181 3.658 2.925 9.178 2.925 9.178l.311 70.312c.051 16.823 13.947 27.43 17.241 30.173 7.227 6.022 13.391 10.091 13.391 10.091l.293-.26-3.651-12.371-10.481-24.231 1.098-40.872zm70.922-12.152-8.254 11.623-5.845 38.71s.849 35.748.849 36.881c0 1.132-3.962 22.162-2.83 23.295 1.132 1.132.849 9.1 2.265 11.081 1.415 1.981.251 11.271.251 11.271l2.795 13.627q-.098.101-.174.184s-3.74-2.728-7.888-6.802l-10.208-14.522-1.208-13.539-15.536 12.792.305-5.496.055-1.147.01.002 13.688-12.109-.054-78.568c-.691-6.834-3.384-8.76-3.384-8.76l35.163-18.889z" clip-rule="evenodd"/><path fill="none" stroke="#000" stroke-miterlimit="2.613" stroke-width="2.488" d="M568.14 361.862c1.903 3.331 7.146 7.279 8.392 7.417m-.001 0 13.688-12.109-.054-78.568m.001 0c-.691-6.834-3.384-8.76-3.384-8.76m0 0 35.163-18.889-.053 100.743v1.738m.001.001s-.463 9.266 2.28 12.965c3.22 4.349 9.371 9.281 9.371 9.281s-20.099 19.705-22.542 22.312c0 0-10.413-7.593-15.762-16.37-3.486-5.714-3.39-6.521-3.39-6.521m.001 0-26.243 23.289m-.001 0s-6.164-4.068-13.391-10.091c-3.294-2.743-17.19-13.35-17.241-30.173m.001 0-.311-70.312m0 0s.256-5.52-2.925-9.178c-2.103-2.415-6.81-6.034-6.81-6.034m.001.001 27.901-18.507m0 0s14.748 9.638 13.797 27.009m0-.001v69.917m0 0s-.396 7.504 1.511 10.84"/><path fill="#e77e03" fill-rule="evenodd" stroke="#000" stroke-miterlimit="2.613" stroke-width="2.488" d="m404.006 189.64 32.786-35.535h-48.559v-3.066l.146-70.666-58.415 40.815v35.055l-.632.825-26.503 31.17 21.992.105 2.741.015v3.052l-.14 157.572c.074 8.505 2.599 15.282 7.205 21.672 10.879 15.087 28.585 27.219 28.585 27.219l41.718-41.896s-11.634-7.354-15.315-12.113c-4.336-5.606-3.968-18.341-3.968-18.341l.097-1.797V189.861z" clip-rule="evenodd"/><path fill="none" stroke="#000" stroke-miterlimit="2.613" stroke-width="2.488" d="m404.006 189.64 32.786-35.535h-48.559v-3.066l.146-70.666-58.415 40.815v35.055l-.632.825-26.503 31.17 21.992.105 2.741.015v3.052l-.14 157.572c.074 8.505 2.599 15.282 7.205 21.672 10.879 15.087 28.585 27.219 28.585 27.219l41.718-41.896s-11.634-7.354-15.315-12.113c-4.336-5.606-3.968-18.341-3.968-18.341l.097-1.797V189.861z"/><path fill="#fff1c3" fill-rule="evenodd" d="m388.378 80.931-9.227 13.616-18.449 286.121 2.448 17.161c-1.138-.788-18.014-12.603-28.523-27.175-4.606-6.39-7.131-13.167-7.205-21.672l.14-157.572v-3.052l-2.741-.015-21.992-.105 26.503-31.17.632-.825v-35.055l58.415-40.815z" clip-rule="evenodd"/><path fill="none" stroke="#000" stroke-miterlimit="2.613" stroke-width="2.488" d="m404.006 189.64 32.786-35.535h-48.559v-3.066l.146-70.666-58.415 40.815v35.055l-.632.825-26.503 31.17 21.992.105 2.741.015v3.052l-.14 157.572m.001-.001c.074 8.505 2.599 15.282 7.205 21.672 10.879 15.087 28.585 27.219 28.585 27.219m-.001 0 41.718-41.896m0 .001s-11.634-7.354-15.315-12.113c-4.336-5.606-3.968-18.341-3.968-18.341m0-.001.097-1.797V189.861l18.263-.221"/><path fill="#e77e03" fill-rule="evenodd" stroke="#000" stroke-miterlimit="2.613" stroke-width="2.488" d="M291.197 343.495c-3.84-5.481-2.699-15.426-2.699-15.426l.067-113.446c-.184-13.714-1.018-17.381-3.476-24.504-5.485-12.252-28.81-33.271-28.81-33.271l-40.958 40.499s10.165 9.069 13.217 15.174c2.605 5.212 2.522 13.73 2.522 13.73l-.001 1.229-.081 121.887c-.146 7.57 2.207 15.813 5.102 20.736 9.051 13.99 27.503 27.751 27.503 27.751l41.984-42.792c.003 0-10.34-5.809-14.37-11.567z" clip-rule="evenodd"/><path fill="none" stroke="#000" stroke-miterlimit="2.613" stroke-width="2.488" d="M291.197 343.495c-3.84-5.481-2.699-15.426-2.699-15.426l.067-113.446c-.184-13.714-1.018-17.381-3.476-24.504-5.485-12.252-28.81-33.271-28.81-33.271l-40.958 40.499s10.165 9.069 13.217 15.174c2.605 5.212 2.522 13.73 2.522 13.73l-.001 1.229-.081 121.887c-.146 7.57 2.207 15.813 5.102 20.736 9.051 13.99 27.503 27.751 27.503 27.751l41.984-42.792c.003 0-10.34-5.809-14.37-11.567z"/><path fill="#fff1c3" fill-rule="evenodd" d="m256.356 156.918-.575 10.171 5.917 215.849 1.752 14.813c-1.68-1.27-18.768-14.354-27.368-27.648-2.896-4.924-5.248-13.166-5.102-20.736l.081-121.887.001-1.229s.083-8.518-2.522-13.73c-3.053-6.105-13.217-15.174-13.217-15.174l40.958-40.499c-.002 0 .026.025.075.07" clip-rule="evenodd"/><path fill="none" stroke="#000" stroke-miterlimit="2.613" stroke-width="2.488" d="M291.197 343.495c-3.84-5.481-2.699-15.426-2.699-15.426m.001 0 .067-113.446m-.001 0c-.184-13.714-1.018-17.381-3.476-24.504-5.485-12.252-28.81-33.271-28.81-33.271m0 0-40.958 40.499m.001 0s10.165 9.069 13.217 15.174c2.605 5.212 2.522 13.73 2.522 13.73m.001-.001-.001 1.229-.081 121.887m0 0c-.146 7.57 2.207 15.813 5.102 20.736 9.051 13.99 27.503 27.751 27.503 27.751m0 .001 41.984-42.792m.001 0s-10.343-5.809-14.373-11.566"/><path fill="#e77e03" fill-rule="evenodd" stroke="#000" stroke-miterlimit="2.613" stroke-width="2.488" d="m255.963 78.63-37.464 36.253c5.269 5.629 25.425 25.647 36.784 37.496l37.603-36.501z" clip-rule="evenodd"/><path fill="none" stroke="#000" stroke-miterlimit="2.613" stroke-width="2.488" d="m255.963 78.63-37.464 36.253c5.269 5.629 25.425 25.647 36.784 37.496l37.603-36.501z"/><path fill="#fff1c3" fill-rule="evenodd" d="m256.146 78.815-1.424 10.942.982 15.791-1.378 32.874 1.134 13.786-.176.171c-11.359-11.848-31.515-31.867-36.784-37.496l37.464-36.253z" clip-rule="evenodd"/><path fill="none" stroke="#000" stroke-miterlimit="2.613" stroke-width="2.488" d="m255.963 78.63-37.464 36.253m0 0c5.269 5.629 25.425 25.647 36.784 37.496m0 0 37.603-36.501-36.923-37.248"/><path fill="#fff" fill-rule="evenodd" d="M158.18 167.557q.085-.761.086-1.545c0-6.964-6.149-13.98-9.292-17.42-3.605-3.945-8.221-8.164-12.293-12.237-4.926-4.926-15.097-14.212-21.552-19.924 3.466-3.738 24.318-26.088 24.318-26.088.656-.656 1.607-1.093 2.502-1.093a3.3 3.3 0 0 1 2.378.973l1.577 1.644 38.818 36.993c1.649 1.436 2.761 3.624 2.761 5.866a7.54 7.54 0 0 1-2.223 5.367zM69.271 93.251l25.611 25.52-.005 98.895.143 140.776h53.633l.291-98.177c-.536-8.045-2.99-13.364-6.694-17.542-2.897-3.188-4.082-3.976-5.82-5.714-1.314-1.314-15.676-15.322-25.664-25.059 8.851-7.578 21.105-18.14 25.834-22.531l1.738-1.605 4.93 5.072c.156.126 10.997 8.977 22.029 19.152 11.836 10.917 21.709 21.486 23.215 26.001.622 1.866.894 19 .738 38.35a2436 2436 0 0 1-.577 35.756c-.416 13.02.126 20.899.932 25.772l-41.142 40.818-118.372.075 21.661-23.728 3.012-3.506V347.1l.196-191.866-.015-8.049c-.662-8.189-6.576-15.702-10.361-19.717a76 76 0 0 0-4.904-4.738z" clip-rule="evenodd"/><path fill="#fcc51d" fill-rule="evenodd" d="M159.501 163.542c-1.055-6.644-6.458-13.18-9.191-16.171-3.622-3.964-8.258-8.204-12.35-12.295-4.603-4.603-13.856-13.005-20.212-18.645 3.623-3.909 22.992-24.661 22.992-24.661.363-.363.891-.583 1.244-.583.464 0 .816.161 1.095.44l1.559 1.532 38.496 37.112c1.297 1.129 2.168 2.863 2.168 4.528 0 1.601-.636 3.03-1.693 4.087zm-66.429-44.02-.004 98.144.145 142.585h57.245l.294-100.043c-.561-8.406-3.159-14.188-7.155-18.694-2.928-3.222-4.131-4.028-5.887-5.785-1.254-1.254-14.381-14.058-24.263-23.692 8.703-7.46 19.907-17.132 24.383-21.29l.44-.406 3.779 3.879c.156.126 11.032 9.013 22.021 19.148 11.999 11.067 21.404 21.279 22.725 25.244.497 1.49.804 18.134.646 37.763-.146 18.188-.572 35.549-.576 35.719-.393 12.301.062 20.114.81 25.19l-39.957 39.644L34.196 377l18.91-20.716 3.467-4.034v-5.15l.197-191.867-.018-8.123c-.716-8.853-7.031-16.831-10.852-20.884a76 76 0 0 0-3.594-3.559l26.965-26.861z" clip-rule="evenodd"/><path fill="#fff" fill-rule="evenodd" d="m237.342 348.063.081-121.922.001-1.22c.001-.295.007-2.663-.327-5.713-.329-2.999-1.065-7.478-2.959-11.268-1.535-3.069-4.173-6.377-6.685-9.167l-2.289-2.542 30.408-30.664 2.57 2.547c6.754 6.695 16.082 16.598 19.245 23.147 2.172 6.259 2.894 9.358 3.065 22.141l-.067 112.092-.006.878a47 47 0 0 0-.071 6.455c.215 3.497.975 9.037 4.085 13.477 1.574 2.249 3.715 4.37 5.895 6.212l2.977 2.516-31.167 31.768-2.572-2.235c-5.7-4.956-13.411-12.374-18.151-19.605-2.142-3.777-4.152-10.741-4.033-16.897m44.399-233.605-27.187 26.624-2.532-2.603c-7.216-7.416-15.534-15.879-21.648-22.148l-2.537-2.601 27.144-26.267z" clip-rule="evenodd"/><path fill="#f2a8c7" fill-rule="evenodd" d="M239.233 226.142v-1.215c.002-.306.009-2.755-.338-5.917-.335-3.055-1.098-7.795-3.14-11.879-1.405-2.811-3.641-5.756-5.875-8.341l-2.192-2.535 27.906-28.142 2.57 2.582c6.533 6.563 14.66 15.385 17.534 21.236 2.076 5.977 2.774 8.913 2.942 21.482l-.067 112.08-.006.799a49 49 0 0 0-.067 6.645c.22 3.581 1.002 9.542 4.408 14.404 1.346 1.923 3.059 3.735 4.844 5.359l2.781 2.529-28.555 29.104-2.575-2.287c-5.442-4.833-12.225-11.555-16.487-18.037-1.959-3.497-3.876-10.121-3.765-15.931z" clip-rule="evenodd"/><path fill="#fcc51d" fill-rule="evenodd" d="m254.586 138.518-2.532-2.599c-6.412-6.582-13.521-13.82-19.114-19.549l-2.541-2.601 24.555-23.761 24.22 24.432zm-15.353 87.624v-1.215c.002-.306.009-2.755-.338-5.917-.335-3.055-1.098-7.795-3.14-11.879-1.405-2.811-3.641-5.756-5.875-8.341l-2.192-2.535 27.906-28.142 2.57 2.582c6.533 6.563 14.66 15.385 17.534 21.236 2.076 5.977 2.774 8.913 2.942 21.482l-.067 112.08-.006.799a49 49 0 0 0-.067 6.645c.22 3.581 1.002 9.542 4.408 14.404 1.346 1.923 3.059 3.735 4.844 5.359l2.781 2.529-28.555 29.104-2.575-2.287c-5.442-4.833-12.225-11.555-16.487-18.037-1.959-3.497-3.876-10.121-3.765-15.931z" clip-rule="evenodd"/><path fill="#fff" fill-rule="evenodd" d="M336.328 157.366v-33.747l43.907-30.68-.117 56.749V160h39.27l-19.464 21.096-22.296.27-.002 140.822-.088 1.728c-.014.558-.073 4.074.401 8.164.459 3.965 1.582 10.354 5.075 14.869 1.598 2.066 4.058 4.285 6.558 6.281l3.155 2.52-31.126 31.26-2.54-2.075a154 154 0 0 1-2.247-1.873c-5.583-4.746-12.237-11.118-17.189-17.985-3.808-5.282-5.778-10.641-5.838-17.519l.141-157.488v-10.256l-16.377-.086 16.589-19.52z" clip-rule="evenodd"/><path fill="#fcc51d" fill-rule="evenodd" d="M338.137 153.859v-29.297l40.281-28.146-.11 53.27v12.124h36.948l-16.133 17.486-23.304.282-.002 142.611-.087 1.657a66 66 0 0 0 .412 8.441c.462 3.988 1.618 10.825 5.441 15.769 1.733 2.24 4.33 4.567 6.86 6.588l1.578 1.26-28.544 28.667-1.271-1.038a140 140 0 0 1-2.22-1.851c-5.533-4.703-12.063-10.967-16.894-17.665-3.607-5.004-5.44-9.994-5.496-16.467l.14-157.48v-12.057l-14.291-.076 14.099-16.592 2.594-3.363z" clip-rule="evenodd"/><path fill="#fff" fill-rule="evenodd" d="M501.715 280.4a20 20 0 0 1 2.331 5.318c1.248 4.522 1.399 9.403 1.212 12.314-.021.32-.118 48.436-.118 48.436-.164 7.323-.532 11.676-1.705 15.101-.679 1.982-1.136 3.192-3.106 5.259-2.271 2.381-6.461 5.767-14.928 11.466l-18.849 12.562-1.002-.661c-4.922-3.248-13.457-9.094-19.747-14.545-7.232-6.268-14.791-16.893-14.293-34.681l-.067-113.792 20.407-20.366v83.295l.347 39.068c.1 4.921.241 10.075.434 14.173.1 2.116.214 3.974.343 5.423.072.81.15 1.505.23 2.065.087.605.224 1.365.449 2.031 1.587 4.711 5.209 8.39 7.845 10.64a42 42 0 0 0 3.664 2.794c.718.487 3.121 1.896 4.461 2.677 1.891-1.146 6.253-3.835 8.437-5.528 1.424-1.105 3.026-2.471 4.36-3.954 1.165-1.296 2.881-3.486 3.247-6.234.605-4.544.95-16.133.95-16.133l-.021-28.104c-.055-2.632.043-4.704-.061-6.575-.131-2.35-.551-4.683-1.712-7.41-1.074-2.515-2.546-4.625-3.851-6.226-1.251-1.535-2.512-2.784-3.247-3.523l-13.45-12.913 15.015-15.925 1.317 1.3c2.838 2.8 6.097 6.1 9.087 9.165a764 764 0 0 1 6.715 6.966l2.397 2.56c.861 1.102 1.925 2.372 2.909 3.957" clip-rule="evenodd"/><path fill="#fcc51d" fill-rule="evenodd" d="M502.301 286.199c1.18 4.276 1.328 8.947 1.151 11.719-.021.322-.122 48.547-.122 48.547-.165 7.324-.539 11.399-1.607 14.518-.632 1.844-.98 2.787-2.705 4.597-2.125 2.228-6.171 5.521-14.625 11.211l-17.849 11.896-1.004-.668c-4.995-3.326-12.759-8.715-18.553-13.735-6.897-5.978-14.149-16.134-13.668-33.289l-.067-113.066 16.787-16.753v78.938l.347 39.087c.1 4.938.242 10.12.436 14.231.101 2.145.217 4.029.348 5.498.076.849.158 1.577.243 2.164.101.701.265 1.578.524 2.351 1.747 5.185 5.676 9.125 8.385 11.438a45 45 0 0 0 3.822 2.914c.767.521 3.909 2.358 5.492 3.279.927-.557 2.401-1.45 3.666-2.243 2.015-1.267 4.397-2.816 5.865-3.955 1.464-1.137 3.161-2.578 4.596-4.174 1.213-1.35 3.253-3.887 3.694-7.205.613-4.597.966-16.347.966-16.347l-.02-28.149c-.056-2.656.042-4.767-.064-6.656-.141-2.524-.599-5.068-1.854-8.019-1.163-2.721-2.743-4.978-4.113-6.659-1.297-1.593-2.619-2.903-3.381-3.671l-12.172-11.686 12.518-13.275 1.317 1.311a741 741 0 0 1 7.742 7.832 735 735 0 0 1 6.694 6.944l2.338 2.496c.817 1.041 1.824 2.243 2.749 3.734a18.2 18.2 0 0 1 2.124 4.845" clip-rule="evenodd"/><path fill="#fff" fill-rule="evenodd" d="M624.691 375.903a3641 3641 0 0 0-14.977 14.786c-3.262-2.808-8.712-6.679-11.55-11.336-1.432-2.347-6.135-12.095-6.135-12.095l-28.117 24.316c-2.389-1.72-16.382-14.133-18.095-16.377-3.438-4.501-6.27-10.237-6.29-17.091l-.311-70.242c.014-.525.019-2.169-.357-4.237-.422-2.32-1.413-5.692-3.9-8.553a29 29 0 0 0-1.885-1.94l18.557-12.309a32 32 0 0 1 3.296 3.597c3.03 3.89 5.783 9.534 5.399 16.534l-.004 70.064c-.025.652-.076 2.425.051 4.499.138 2.277.53 6.156 2.175 9.035 2.253 3.943 7.521 7.822 11.309 8.241l20.916-18.466-.068-76.004c-.247-2.442-.728-4.591-1.324-6.351l22.349-12.06-.143 91.775v1.742c-.025.729-.081 2.956.13 5.537.223 2.727.824 7.433 3.218 10.66 1.67 2.261 3.89 4.518 5.756 6.275" clip-rule="evenodd"/><path fill="#fcc51d" fill-rule="evenodd" d="M609.639 388.212c-3.049-2.74-7.492-6.005-9.925-9.813-4.525-7.083-6.968-14.597-6.968-14.597l-28.718 25.873c-2.248-1.648-15.136-13.434-16.771-15.575-3.285-4.303-5.9-9.664-5.919-16l-.311-70.243a23.3 23.3 0 0 0-.387-4.553c-.45-2.481-1.529-6.213-4.315-9.418l-.414-.461 15.499-10.28c.684.701 1.4 1.505 2.09 2.39 2.844 3.65 5.372 8.926 5.019 15.372l-.006 70.114a49 49 0 0 0 .055 4.609c.139 2.276.536 6.542 2.41 9.822 2.367 4.144 8.361 8.738 12.999 9.251l22.607-20.016-.074-76.453a34 34 0 0 0-.969-5.367l18.374-9.915-.138 88.737v1.744a51 51 0 0 0 .136 5.685c.222 2.715.835 7.905 3.567 11.59 1.362 1.84 3.048 3.655 4.616 5.207-3.791 3.73-8.788 8.651-12.457 12.297" clip-rule="evenodd"/><path fill="#fff" fill-rule="evenodd" d="m686.975 273.056 12.111-14.417 14.699 14.653-13.558 13.396zm4.143 104.168-14.31 14.414c-3.832-2.339-9.862-6.325-13.033-9.998-4.432-5.13-5.65-10.755-6.068-17.107v-72.352c.113-2.739-.204-7.37-2.061-11.797a39 39 0 0 0-5.193-8.833l17.001-14.519c1.902 1.877 7.802 7.526 10.983 15.527v82.501c-.009.559-.012 2.691.339 5.204.356 2.55 1.241 6.913 4.034 9.948 2.436 2.648 5.678 5.155 8.308 7.012" clip-rule="evenodd"/><path fill="#fcc51d" fill-rule="evenodd" d="m699.204 261.312 12.012 11.976-10.962 10.832-10.842-11.152zm-22.666 128.03c-3.773-2.369-8.729-5.799-11.393-8.885-4.047-4.684-5.219-9.827-5.629-15.984v-72.292c.112-2.922-.228-7.791-2.201-12.497a40.6 40.6 0 0 0-4.398-7.857l14.416-12.311c1.731 1.887 6.663 7.184 9.294 13.518v81.089l.001.925c-.009.588-.014 2.821.356 5.467.361 2.591 1.298 7.449 4.494 10.923 2.036 2.215 4.575 4.304 6.867 6.012z" clip-rule="evenodd"/><path fill="#fff" fill-rule="evenodd" d="M739.762 379.374c-2.513-2.323-6.372-6.088-8.912-12.905-1.578-4.232-2.592-12.05-2.736-15.724l.005-58.179 18.771-17.563v71.206c-.035 3.419.691 12.782 11.073 22.316 2.045 1.877 4.355 3.435 6.527 4.68l1.914 1.098-13.902 15.93-1.357-1.113c-3.592-2.945-8.215-6.814-11.383-9.746m-.288 30.076 23.717 16.298c.271.173 1.82 1.154 3.57 2.086 1.036.552 2.163 1.099 3.207 1.513.961.381 2.57.953 4.253.953 3.901 0 5.557-3.133 6.004-4.235.534-1.318.682-2.685.739-3.536.088-1.313.013-2.694-.032-3.304l-.003-39.537v-12.344l-.233-78.684-25.884-21.068 11.804-11.044 36.927 27.432-.001.911c-.013 19.734-.074 113.172-.044 119.763.021 4.784-10.631 33.796-47.18 33.681-11.931-.039-23.687-7.264-30.559-12.436l-1.675-1.262z" clip-rule="evenodd"/><path fill="#fcc51d" fill-rule="evenodd" d="M732.546 365.836c-1.481-3.972-2.482-11.57-2.625-15.162l.007-57.322 15.152-14.177V346.2c-.04 3.786.804 13.69 11.659 23.658 1.597 1.467 3.335 2.74 5.041 3.825l1.777 1.131-11.268 12.908-1.357-1.121c-3.316-2.737-7.185-6.004-9.941-8.556-2.435-2.251-6.052-5.783-8.445-12.209m29.641 61.418a60 60 0 0 0 3.724 2.178c1.095.583 2.287 1.16 3.391 1.598.29.114.675.263 1.133.413l1.013.333c2.703.525 7.635.505 10.563-5.312.555-1.496.702-2.959.759-3.813.093-1.374.021-2.812-.027-3.494l-.002-39.469v-12.347l-.236-79.543-24.941-20.302 9.188-8.595 34.982 25.988v.911c-.015 21.534-.074 112.366-.045 118.86.013 2.694-4.322 15.428-16.97 23.934l-4.563 3.072c-.625.315-3.393 1.624-3.751 1.735l-6.097 1.516c-4.158 1.034-8.805 1.622-13.982 1.606-10.418-.034-20.859-5.894-27.743-10.803l-1.753-1.249 12.854-12.685z" clip-rule="evenodd"/><path fill="#fff" fill-rule="evenodd" d="M871.366 366.695c3.635 2.852 8.715 6.17 12.888 8.767l1.29.792-14.462 14.592c-6.828-4.821-20.757-15.114-25.636-21.972-5.583-7.841-8.21-14.521-8.029-26.125l.001-59.303 18.053-12.143.021 56.897 35.571-28.079-27.201-34.245 13.308-9.166a690 690 0 0 1 21.991 27.792c2.372 3.178 4.078 5.479 5.144 7.389 1.053 1.887 1.143 5.306.761 6.305-2.477 6.481-48.625 38.9-48.625 38.9l-.347 2.286c-.001 12.957 8.302 21.848 15.272 27.313" clip-rule="evenodd"/><path fill="#fcc51d" fill-rule="evenodd" d="m882.655 376.598-11.778 11.883c-7.196-5.141-19.562-14.479-23.957-20.655-5.377-7.554-7.867-13.875-7.693-25.062l.001-58.354 14.435-9.709.021 57.233 39.896-31.493-26.823-34.426 10.068-6.892a690 690 0 0 1 20.887 26.463c2.4 3.216 4.019 5.404 5.013 7.186.967 1.734.979 3.994.881 4.451-1.26 5.855-48.988 39.088-48.988 39.088l-.329 2.988c0 13.803 8.85 23.243 15.963 28.82 3.492 2.741 8.31 5.914 12.403 8.479" clip-rule="evenodd"/><path fill="#fff1c3" fill-rule="evenodd" d="M105.633 207.113c.168.169-5.802 4.902-5.802 4.902l6.757 7.527c0 .001-1.124-12.597-.955-12.429" clip-rule="evenodd"/><path fill-rule="evenodd" d="m113.75 198.604-16.327 13.474 16.9 17.186-.152-3.358-13.104-13.104 13.16-11.306zm659.778 163.927 12.493 9.006-27.531 30.756 18.667-30.092zm161.638-79.601c1.82 5.236 1.637 9.574 1.637 9.574v72.649c.44 6.91-1.598 17.192 4.002 23.679 5.601 6.486 19.151 13.332 19.151 13.332l25.646-25.996s-7.133-3.837-14.676-10.422c-4.463-3.895-3.777-9.933-3.777-9.933v-70.447l12.847 13.166 25.555-24.783-27.148-26.847-15.257 18.038-.686-1.507c-4.662-9.328-14.438-17.018-14.438-17.018l-23.023 20.629c0 .002 9.177 13.033 10.167 15.886" clip-rule="evenodd"/><path fill="#e77e03" fill-rule="evenodd" d="M926.902 282.963c1.483 3.539 1.741 7.388 1.638 9.577v72.646c.438 6.913 1.786 13.997 7.389 20.48 5.6 6.487 18.033 13.258 18.033 13.258l21.967-22.127s-8.383-4.914-12.859-9.783c-3.155-3.428-2.941-11.477-2.941-11.477v-77.414l16.285 16.752 21.341-21.089-22.76-22.689-15.799 18.806s-1.597-2.883-2.711-4.653c-7.68-12.206-12.89-14.775-12.89-14.775l-24.688 21.083c-.001.001 4.937 4.118 7.995 11.405" clip-rule="evenodd"/><path fill="#fff1c3" fill-rule="evenodd" d="m943.926 250.666-1.806 11.583s7.521 78.737 7.175 82.898 1.388 15.518 2.081 18.985 1.387 9.276 1.387 9.276l-1.553 14.559 2.566 10.854c-1.561-.866-12.648-7.132-17.848-13.155-5.603-6.483-6.95-13.567-7.389-20.48V292.54c.104-2.189-.154-6.038-1.638-9.577-3.059-7.287-7.996-11.404-7.996-11.404l24.688-21.083c.002 0 .115.055.333.19" clip-rule="evenodd"/><path fill="#e77e03" fill-rule="evenodd" d="m975.254 251.357-.927 10.264.829 19.348 1.449 13.717-.192.191-16.285-16.752v1.603c-.48-.941-1.738-4.07-1.125-10.169l.192.346 15.799-18.806z" clip-rule="evenodd"/><path fill="none" stroke="#000" stroke-miterlimit="2.613" stroke-width="2.488" d="M926.902 282.963c1.483 3.539 1.741 7.388 1.638 9.577m0 0v72.646m0 .001c.438 6.913 1.786 13.997 7.389 20.48 5.6 6.487 18.033 13.258 18.033 13.258m0 0 21.967-22.127m0 0s-8.383-4.914-12.859-9.783c-3.155-3.428-2.941-11.477-2.941-11.477m-.001 0v-77.414l16.285 16.752 21.341-21.089-22.76-22.689-15.799 18.806m0 0s-1.597-2.883-2.711-4.653c-7.68-12.206-12.89-14.775-12.89-14.775m.001 0-24.688 21.083m-.001 0s4.938 4.117 7.996 11.404"/><path fill="#fff" fill-rule="evenodd" d="m962.36 273.534 12.112-14.417 14.699 14.654-13.558 13.397zm4.144 104.168-14.31 14.415c-3.833-2.34-9.862-6.325-13.033-9.998-4.432-5.131-5.65-10.756-6.068-17.108V292.66c.112-2.74-.204-7.371-2.061-11.798a39 39 0 0 0-5.193-8.833l17.002-14.519c1.901 1.878 7.801 7.526 10.981 15.528v82.5a36 36 0 0 0 .34 5.204c.356 2.55 1.241 6.913 4.034 9.948 2.436 2.65 5.678 5.156 8.308 7.012" clip-rule="evenodd"/><path fill="#fcc51d" fill-rule="evenodd" d="m974.589 261.79 12.013 11.976-10.962 10.832-10.842-11.153zm-22.665 128.03c-3.773-2.368-8.729-5.799-11.393-8.885-4.047-4.684-5.219-9.827-5.629-15.984V292.66c.112-2.923-.228-7.792-2.201-12.498a40.7 40.7 0 0 0-4.397-7.857l14.415-12.311c1.73 1.887 6.663 7.184 9.294 13.519v82.013a38 38 0 0 0 .357 5.467c.361 2.591 1.298 7.449 4.494 10.924 2.036 2.214 4.575 4.304 6.866 6.011z" clip-rule="evenodd"/><path fill-rule="evenodd" d="M577.818 131.833c0 30.572-19.239 45.525-48.778 45.525h-14.86c-29.538 0-48.777-14.953-48.777-45.525V79.52c0-33.189 30.307-43.675 46.261-43.675h19.895c15.953 0 46.261 10.486 46.261 43.675v52.313z" clip-rule="evenodd"/><path fill="#fff" fill-rule="evenodd" d="M573.698 129.597c0 28.93-17.843 43.03-46.283 43.03h-14.861c-28.44 0-46.282-14.101-46.282-43.03V77.284c0-31.091 28.338-41.181 43.766-41.181h19.895c15.429 0 43.767 10.09 43.767 41.181v52.313z" clip-rule="evenodd"/><path fill-rule="evenodd" d="M527.289 164.941h-13.411c-23.596 0-35.94-11.024-35.94-33.411V79.217C477.938 56.531 498.517 48 511.36 48h13.058-6.221 13.058c12.844 0 33.423 8.532 33.423 31.218v52.313c0 22.387-12.344 33.411-35.939 33.411h-13.412 11.962z" clip-rule="evenodd"/><path fill="#fcc51d" fill-rule="evenodd" d="M525.966 163.008h-13.412c-23.595 0-35.939-11.024-35.939-33.412V77.284c0-22.687 20.579-31.218 33.423-31.218h13.058-6.221 13.058c12.845 0 33.423 8.532 33.423 31.218v52.313c0 22.387-12.344 33.412-35.939 33.412h-13.412 11.961z" clip-rule="evenodd"/><path fill="#e77e03" fill-rule="evenodd" d="M512.317 160.003h3.012c-20.816 0-29.732-10.478-29.732-31.755V78.529c0-16.293 9.24-24.905 18.645-28.141 3.041-1.046 6.099-.559 8.867-.559h-4.289c-6.676 0-17.095 3.89-22.027 8.568-4.395 4.688-7.805 11.274-7.805 20.131l-.076 49.719c0 21.57 7.891 32.171 32.544 32.171z" clip-rule="evenodd"/><path fill="#fcc51d" fill-rule="evenodd" d="M574.302 77.284v52.313c0 29.327-18.181 43.634-46.887 43.634h-14.861c-28.706 0-46.886-14.307-46.886-43.634V77.284c0-31.599 28.815-41.784 44.37-41.784h19.895c15.554 0 44.369 10.186 44.369 41.784m-51.207-38.883h6.837c14.926 0 41.469 9.711 41.469 38.883v52.313c0 27.424-16.563 40.732-43.985 40.732h-14.861c-27.422 0-43.985-13.309-43.985-40.732V77.284c0-29.172 26.543-38.883 41.468-38.883z" clip-rule="evenodd"/><path fill-rule="evenodd" d="M490.383 156.201c-7.413-4.939-11.075-13.329-11.075-25.295V78.672c0-20.446 18.51-28.457 30.658-28.457h19.865c6.516 0 14.862 2.305 21.201 7.597l-.788-.675c-6.343-5.313-14.708-7.626-21.236-7.626h-19.864c-12.148 0-30.658 8.011-30.658 28.457v52.233c0 13.026 4.339 21.814 13.133 26.527z" clip-rule="evenodd"/><path fill="#fff" fill-rule="evenodd" d="M553.104 59.841c3.507 4.31 5.796 9.968 5.796 17.17v52.233c0 20.648-10.895 30.647-33.171 30.647h-14.838c-11.064 0-19.321-2.467-24.83-7.48 3.922 5.678 14.154 8.438 25.597 8.438h14.838c22.276 0 33.172-9.999 33.172-30.647V77.969c0-8.461-3.164-14.792-7.74-19.308z" clip-rule="evenodd"/><path fill="#fcc51d" fill-rule="evenodd" d="M485.526 133.962s2.138-3.287 1.604-17.702c-.535-5.247 2.401-9.305 6.488-14.173-.116-2.782.377-11.359 1.305-12.548 1.391-1.305 5.448-3.16 5.448-3.16l1.623-.348s2.928 3.043 3.507 4.087c.116.116.927 6.869.927 6.869l-1.738-.958.116 3.855.232 2.434-4.434-.116s-2.232 1.885.232 2.232c2.463.348 6.288.695 6.288.695l2.318 1.159-1.159 1.159-4.289-1.043s-2.318 2.086-.463 3.245a225 225 0 0 1 4.173 2.696l-6.057-.58s-1.652 2.318.116 3.477c2.811.812 4.782 1.391 4.782 1.391s2.086 1.477 1.391 2.086c-.695.61-2.897-.927-2.897-.927l-2.782 1.537s-2.812.086-2.348 6.143c0 .812-1.854 1.885-1.854 1.885s-2.867 3.593-3.245 5.1-2.116 6.49-1.537 8.144c-3.132-3.244-7.747-6.639-7.747-6.639m26.706-38.506c-.473-1.359-3.531-8.661-2.549-11.168.355-1.567 2.862-2.706 2.549-3.646s-.156-5.485-.156-5.485l-.47-1.724.638-1.328.054-2.152s-.538-2.99.054-4.121c.592-1.13 2.368-4.143 2.368-4.143l5.733-4.066 6.488-1.614 5.949-.108 4.897 1.076 5.142 1.806 1.884 1.883 1.561 6.273.538 2.744.054 1.561.377 2.398.161 4.251.161 3.636.461 1.937.431 3.229s-1.483 4.013-1.591 4.336c-.107.322-.808 2.313-.808 2.313l.054 1.292s-1.13.269-1.452.376-1.346 2.452-1.346 2.452-1.452 3.713-1.56 3.928-7.026 7.671-7.026 7.671l-16.786-7.164s6.675 9.488-1.17 2.59c-2.261-3.282-1.723-4.819-1.723-4.819l-.107-.646s-2.336-2.21-2.81-3.568m19.679 26.357s.943-1.189 4.339-.255c1.782.085 2.037 1.953 2.037 1.953l-.849 6.121-1.783 2.122-1.867-2.037-.679-2.037s-.17-2.556-.255-2.896-.943-2.971-.943-2.971" clip-rule="evenodd"/><path fill-rule="evenodd" d="M547.396 87.496c.318-.879.803-2.547.694-3.703.511.09 1.203.367 1.618 1.169.538 1.037-.112 3.335-.505 4.424-.394 1.089-1.426 3.189-1.595 3.976s.057 2.1-.225 3.076c-.281.977-.627 1.083-.977 1.146-.883.158-.674-.696-.899-.583s-.14 1.087-1.032 3.47c-1.058 2.822-1.637 3.431-4.657 7.034s-9.854 4.24-9.854 4.24-.008-.338.183-.507c.189-.169.112-.527.112-.527l.169-1.011c.808-.224 1.931-.224 2.156-.471.077-.085.088-.159.044-.216 1.981-.61 4.168-1.614 5.538-3.248 3.02-3.604 3.771-4.749 4.502-7.186s.808-3.358 1.032-3.47.563.696.899.583.695-.168.977-1.145c.28-.977.056-2.29.225-3.077.17-.785 1.203-2.885 1.595-3.974m.607-4.936-.984.659c-.748-1.242-1.385-1.349-1.385-1.349l.563-1.201c.342-.733.567-1.214.717-1.632.243-.146.206-.245.11-.349q.056-.207.093-.421l.051-.363a1 1 0 0 0 .33-.127c.337-.225 0-.674-.225-.786-.044-.072.63-.88.518-1.441-.084-.419-.386-.756-.511-.993.12.045.219.049.273-.024.061-.08-.023-.239-.165-.428.064-.077.122-.175.122-.374 0-.165-.017-.275-.054-.392.154.05.34.098.547.126.562.078.73.45.977 1.067.246.618.337.696.337 1.089 0 .394-.225.394-.281.618-.056.225.449.64.562 1.201.112.562-.562 1.37-.562 1.37s0 .674-.112 1.348c-.113.674-.36 1.201-.921 2.402m-.548-12.7a34 34 0 0 1-.162 2.628c-.144-.351-1.15-.555-1.373-.708 0-.4.248-1.079.184-1.374-.104-.466-.649-2.021-.638-2.437l.015-.527c.225.145.435.295.591.374.337.168 0-.337 0-.674 0-.233-.297-.531-.561-.692.037-1.515.007-2.899-.46-4.443a40 40 0 0 1-.677-2.54c.98.492 2.02.828 2.02.828s.533 1.265.898 3.582c.334 2.109.219 3.827.163 5.983m-20.868 44.067c1.26.049 2.253.388 2.136.847-.405 1.578-1.518 3.828-1.876 4.727s-1.29 3.054-1.819 3.077c-3.422.149-3.08-4.44-3.147-4.458-.449-.112-2.592.366-2.592.366-.899.976-4.803 2.947-5.421.791a6 6 0 0 1-.204-1.029c1.369-.19 3.163-1.378 3.742-2.008 0 0 .92.864 1.369.977s1.426-.45 1.426-.45 1.593 1.171 1.954 2.085c.349.804 2.527-.344 2.886-1.243.256-.644 1.08-2.466 1.546-3.682m-17.96-7.908.232.099c.729.337 1.689.933 1.49 1.599-.274.916-1.7 1.247-2.564 1.19s-.673-.106-2.043-.275c-.789-.097-2.897-.361-3.204-.458-1.257-.393-2.145-.141-2.538-.309-.146-.063-.472-.117-.865-.156-.052-.236-.056-.489-.124-.693a2 2 0 0 1-.077-.358c.527.112.782.245 1.403.287.843.056 2.212-.337 3.582-.168s1.707.394 2.571.45c.781.05 1.82-.587 2.137-1.208a1 1 0 0 0 .076-.197c.168-.674-.921-1.257-1.651-1.595a6 6 0 0 0-.654-.25c-.704-.229-1.853-.051-2.578-.134-.977-.112-2.046-.163-3.416-.275s-2.643.198-3.113.367-.255.686-.086 1.191c.08.241.071.55.157.821l-.282.228c-.674.506-2.493 2.774-2.493 2.774s1.257-2.627 1.594-3.694c.258-.817.43-1.548.235-1.946.436-.364.903-.701 1.372-.844.92-.281 1.875-.112 2.718.056.842.168 3.357.281 3.806-.112.069-.06.828-.542.881-.608.855.215 1.093.442 1.311.732.251.335.103 1.111-.105 1.445.244.08.466.164.654.25.73.337 1.819.92 1.651 1.595q-.026.096-.077.196m-6.651 12.563c.505-.056.808.078 1.369.302.562.225 1.875.899 1.875.899s-1.175.348-1.767.534c-1.277.401-1.741.75-2.134 1.648-.284.649-.277 2.457-.275 3.142-.366-.117-.91-1.282-1.19-1.465-.04.7.206 1.006.134 1.655l2.632.097q.265.105.556.184c.899.246 1.236.471 2.606.583s2.919.548 2.963.9c.063.486-.459.638-3.065.638h-5.57s-.218-1.33-.133-2.306c.082-.746.131-1.528.171-2.228l.063-1.057c.056-.843 0-1.763.056-2.044s-.281-.562.168-.562.696.056.92-.225c.228-.28.115-.639.621-.695m-2.425-.532c-.18.225-.374.233-.674.228.313-.176.564-.305.778-.408a.8.8 0 0 1-.104.18m-1.863 1.047c.202-.192.443-.375.735-.556.027.089.06.192.039.294-.057.281 0 1.201-.057 2.044-.056.843-.112 2.178-.224 3.189-.113 1.011-.158 2.594-.158 2.594l.366-1.282c.058.67 1.007 1.677.824 4.057-.098 1.277-1.361 3.369-2.373 4.346s-1.243 2.325-1.749 3.167c-.506.843-.394 2.708-.394 2.708s-.452-.431-.732-.824-.917-.646-.861-1.096c.056-.449.54-1.953.955-3.245a7 7 0 0 0 .283-1.407c.238-.382.52-.759.875-1.102 1.011-.977 2.156-3.076 2.402-4.334.247-1.257-.189-3.111-.189-3.638s.189-1.932.302-3.133c.051-.545-.003-1.201-.044-1.782m7.127-27.658h1.381s.394 1.18.506 2.606c.113 1.426.449 3.526.056 3.638s-1.313-1.349-1.313-1.349 0 1.539.056 2.213.168 1.819-.112 1.987c-.097.059-.344.013-.643-.087a.9.9 0 0 0-.188-.49c-.208-.277-.948-.478-1.76-.683a2.2 2.2 0 0 1-.395-.931l-.035-.246c-.056-.583-.112-1.426-.112-1.426s.056.843.112 1.426l.035.246c.514.229 1.026.391 1.179.3.281-.168.168-1.313.112-1.987s-.056-2.213-.056-2.213.92 1.461 1.313 1.349.056-2.213-.056-3.639a11 11 0 0 0-.08-.714m-3.672 27.704c-.311.168-.573.174-.837.198.159-.146.331-.167.594-.167a1 1 0 0 0 .243-.031m5.993-1.63c.233.231.427.434.578.552.358.281 1.686 1.501.713 2.068-.675.394-1.085.368-1.725.087-.639-.281-2.299-.482-2.974-.82-.233-.116-.709-.454-.915-.549.1-.023-2.58-.874-3.142-1.099-.187-.075.696-.527.549-.578.188-.034.614-.018.732-.183.083-.118.828.059.875-.09l.44.227c.674.337 1.987.92 2.627 1.201s1.37.45 2.044.056c.366-.211.363-.535.198-.872m30.85 5.729s-.085-.938 0-.92c.281.057.64.471.921 1.258.28.786.73 1.854.955 2.549s.695 1.84.583 2.458-.952 1.954-1.273 2.251-.973.852-1.241 1.274c-.394.618-.597 1.966-1.012 2.605-.414.64-1.292 2.199-1.594 2.009s-1.089-1.616-1.089-2.458c.319-.527.66-1.109.876-1.442.293-.452.494-1.263.718-1.916a2.9 2.9 0 0 0 1.146-.73c.226-.226.449-.751 1.011-1.088l.281-.899c.358-1.145.471-1.054.471-2.009s-.134-1.201-.303-1.932-.45-1.01-.45-1.01m-43.622-21.481-.002-.592zm-2.397 36.691.745.769c2.549 2.683 6.131 6.546 6.131 6.546s-.618.506-1.369 1.012c-.752.505-1.651 1.145-1.651 1.145s-.48-.91-1.399-2.102c.318-.225.731-.591 1.243-.935.752-.506 1.37-1.012 1.37-1.012s-2.692-2.902-5.07-5.423m10.683-24.833c-.364.019-.386-.197-1.33.168-.663.106-2.526 1.376-2.93 1.648-.379.163-.816.652-1.634 1.131a6 6 0 0 0-.434.278c.07-.279.197-.649.421-1.014.449-.73.808-1.539 1.313-2.212.506-.674.639-1.033 1.37-1.313.387-.149.826-.339 1.163-.555l.254-.023c1.067-.056 2.233.506 2.795.73.562.225 2.739 1.313 3.807 1.257s1.595-.168 1.707-.843c1.048.524 1.576 1.022 1.472 1.647-.112.674-.642 1.12-1.372 1.086-1.741-.079-3.245-1.032-3.807-1.257-.561-.222-1.728-.784-2.795-.728m41.704 33.232c.608-.185 1.014-.293 1.014-.293l1.539 1.819s-2.605 1.201-4.481 2.627c-1.896 1.442-4.053 3.582-4.053 3.582s-1.127-1.044-2.119-2.188l.313.297s2.156-2.14 4.053-3.582c1.249-.95 2.823-1.801 3.734-2.262m-2.084-1.997c-.253-.286-.53-.571-.796-.856.419.326.701.368.952.332.394-.057-.056-.843-.168-1.314s-.113-1.538-.113-1.538 1.988-4.313 3.639-8.59c.939-2.436 1.57-4.348 2.032-6.076a.92.92 0 0 0 .336-.511c.047-.175.014-.406-.044-.65.207-.876.376-1.723.527-2.589.506-2.886.057-2.683 0-3.997-.056-1.313 0-1.932-.112-3.47s-1.533-2.156-1.87-2.998l-.184-.761c.14.049 1.083.268 1.233.361 1.033.64 1.258 1.391 1.595 2.234s.92 1.517 1.032 3.055.057 2.156.112 3.47c.057 1.313.506 1.11 0 3.997-.505 2.887-1.025 4.982-2.852 9.826-3.438 9.12-3.638 9.657-3.525 10.128s.48 1.042.087 1.098l-1.739-1.282z" clip-rule="evenodd"/><path fill="#fff" fill-rule="evenodd" d="M524.771 56.937c.843-.225 1.953-.449 3.076-.505 1.124-.057 2.101-.112 2.494-.057.394.057.64-.225.808.113.169.337-.168.527-.112.92s.225.843.73.786c.506-.056.786-.337.73-.618s-.45-.695-.45-.695-.562-.337-.168-.449 1.236-.225 2.156-.057c.92.169 2.985.864 3.828 1.257.843.394 1.987 1.651 2.269 1.707s.695-.168 1.201-.281 1.103 0 1.629.506c.527.505.752 1.089.472 1.201-.281.112-1.089-.147-1.482-.281s-.864-.281-1.258.056c-.393.337-.505.956-.786 1.011-.281.056-.864-.597-1.033-1.067-.168-.471-.337-1.313-.617-1.482-.281-.168-1.033.056-1.258-.112s-.484-.583-.674-.752c-.19-.168-.808-.393-.977 0s-.36 1.01-.887 1.01-1.473-.54-1.719-.258c-.246.281.168 1.088.28 1.538s.563 1.068.618 1.348c.057.281 1.146 1.089 1.538 1.033.394-.056 1.313-.808 1.595-.977.281-.168.864-.505 1.707-.112.843.394 1.65 1.033 2.156 1.37.505.337 2.009 1.37 2.515 1.651.505.28 1.046.505 1.292.505s.864.471.864.808.337.843 0 .674-.921-.674-1.37-.73-1.054.112-.977.562c.078.449 1.181 1.033 1.595 1.37.415.337 1.089 1.033 1.201 1.538s.112 1.538.056 1.819-.168.393 0 .73c.169.337 1.146 1.202.977 1.426-.168.225-.751-.281-1.088-.449s-.787-.112-.73.281c.056.394.898.864.842 1.146-.056.28-.674.056-.505.562.168.506.977.808 1.201.92s.562.562.225.786c-.337.225-.921.113-.921.393 0 .281.787.583.45.809-.337.225-1.271.246-1.461-.169s.112-.751.112-.751.449-.372.281-.955c-.169-.583-.64-2.381-1.201-3.638-.562-1.258-2.381-4.299-5.738-5.423s-3.133-1.461-8.142-1.348-8.006.505-10.408 2.437-2.347 3.301-2.571 3.75c-.225.45-.169 2.774-.225 3.526-.057.752 0 3.133 0 3.133s2.773-.864 3.807-1.089c1.032-.225 3.098-.541 3.997.134.898.674.506 1.236.337 1.46-.169.225-1.067-.674-2.156-.562-1.089.113-1.672.204-2.627.506s-2.493 1.201-2.493 1.201l-.057 1.538s2.662-.618 3.808-.618 2.303.112 2.604.056c.303-.056 1.224-1.145 2.234-.695 0 0 .394-.281.337 1.369-.056 1.651.057 4.875-.169 5.739-.224.864-.786 2.269-.562 3.245.226.977.934 1.37 1.461 1.426s1.56-.484 2.065-.843 1.511-.751 1.46 0c-.055.843-2.021 1.145-2.998 1.819s-2.269 1.763-3.189 1.65-1.819-1.595-1.595-2.627c.168-.77.337-1.772.45-2.325.337-1.65.281-2.999.449-3.638.169-.64.752-1.503.808-2.065s-.358-2.269-.864-2.269c-.505 0-.708.808-1.18.977-.471.168-1.011.337-1.65.281s-1.784-.506-2.178-.225-.259.899.246 1.067c.506.168 1.37.168 1.932.168s1.461-.203 1.292.302c-.168.506-1.594.394-2.044.394s-1.257-.169-1.481-.056c-.225.112.112.562-.618.618s-.484-.372-.787-.787c-.302-.415-.583-.696-.583-.977s-.034-.674-.729-.674c-.696 0-1.427.674-1.427.674s.372.281.787.225.808-.056.808-.056-.808.358-1.258.639-.674.562-.674.787.112.505.112.505.484-.393.843-.618.864-.394.864-.394l-.92.899-.337.394s0 1.819.28 2.908c.281 1.089.674 1.841 1.37 2.402.695.562 1.257.843 1.257.843s.225.471.112.92c-.112.449-.562 1.123-.562 1.123l-.64.583s-.246 3.863.281 5.738 1.201 3.111 1.538 3.751.527 1.145.864 1.37.597.977.955 1.313.527.562 1.257.899 1.202.415 1.202.415-1.202-1.292-1.539-1.707-.92-.73-.863-1.313c.056-.583.021-1.089.526-.92.506.168 1.595 1.292 1.987 1.763.394.471 1.089 1.257 1.819 1.595.73.337 1.953.449 3.133.337s2.571-.168 3.133-.225.898.091.675.337c-.226.246-1.349.246-2.157.471s-1.65.449-1.65.449-.056.281.449.505c.506.225 1.033.056 1.033.056s.078.359-.112.527-.19.562-.19.562 6.996-.54 10.017-4.144 3.771-4.749 4.502-7.186.808-3.357 1.032-3.47c.226-.112.563.696.899.583s.695-.169.977-1.145c.28-.977.056-2.29.225-3.077s1.201-2.887 1.595-3.976 1.043-3.386.505-4.424c-.721-1.391-2.269-1.202-2.269-1.202l.563-1.202c.562-1.201.808-1.728.92-2.402s.112-1.349.112-1.349.674-.808.562-1.37-.617-.976-.562-1.201c.057-.225.281-.225.281-.618 0-.394-.091-.471-.337-1.089s-.415-.99-.977-1.067c-.563-.078-.977-.303-.977-.303s.189-1.145.246-3.301.203-3.919-.415-5.963-.898-3.582-.898-3.582-3.66-2.156-7.579-3.189-7.817-1.65-13.352-.168-6.996 2.908-7.916 3.414c-.921.506-2.065 2.079-2.628 2.718-.562.639-1.214 1.728-1.348 2.065s-.303.843-.471 1.124c-.169.281-.506 1.426-.506 2.626 0 1.202 0 2.248.168 2.606.169.358.563.358.563.751s-.225.674-.394.899-.674.415-.786.977-.169 1.236-.057 2.044-.035 1.348-.225 1.987c-.189.64-.604.899-.358 1.875s.415 1.405.64 1.875.505 1.089.843.977.414-.506.639-.674.618-.19.675-.583c.056-.393.112-.618-.112-.674-.226-.056-.809-.281-.809-.281s.246.078.696-.168.989-.471 1.067-.808.337-.674 0-.674c-.338 0-.675.281-.955.449-.281.169-.675.506-.618.169.056-.337.337-.618.562-.843s.674-.358.843-.864.112-.506-.337-.562-.54.112-.955.169c-.415.056-.808-.057-.64-.281s.246-.147.752-.394c.506-.246.506-.583.168-.751s-.505-.281-.168-.618.64-.527.112-.808c-.527-.281-.829-.281-.583-.562s.695-.19.864-.752c.168-.562.337-.618.056-.73s-.562.168-.562.168-.169-.428.056-.955.338-1.56.394-2.458c.057-.899-.112-1.37-.056-1.763.056-.394-.169-.45.056-.562s.394.021.449-.281c.057-.303-.056-.696 0-1.145.057-.45.303-.752.583-.977.281-.225 1.651-1.067 2.325-2.156s1.707-2.121 3.076-2.739c0 0-.134-.057.674-.281.809-.225 1.819-.675 1.988-.226s.057.583-.169.696c-.225.112-.898.393-.955.842-.056.45-.111.977.281.977.394 0 .506-.189.674-.583s.864-.955.864-.955.73-.73 1.012-.337c.28.393.169.843-.112 1.124s-.808.92-1.201 1.257c-.394.337-1.349 1.145-1.349 1.594s.45.281.73.113c.281-.169.695-.485 1.257-.73.563-.246 1.033-.359 1.37-.64s.281-.597.225-.898c-.056-.303-.562-.303-.337-.696s.394-.541.618-.899.225-.977-.169-1.089-1.032.337-1.369.337c-.338 0-.956-.168-.844-.505.113-.337.147-.225.899-.45s.474-.184 1.317-.409" clip-rule="evenodd"/><path fill="#fff" fill-rule="evenodd" d="M528.185 56.993c.562 0 .484.471.843.92.358.449.302.583.639 1.033.338.449 1.292 1.426.955 1.763s-.393.112-.674.057c-.281-.057-.752-.337-.92 0s.66.934.414 1.292-.358.639-.752.751c-.393.113-1.594.562-1.763.113s-.168-.752-.28-1.426c-.113-.675-.337-1.314-.449-1.932-.113-.618-.45-1.258-.113-1.538.337-.281.449 0 .898-.057.45-.056.641-.168.753-.449s-.113-.527.449-.527m3.806 4.446c.808-.169 1.258.471 1.201.864s-.64.393-1.089.393-1.335.078-1.146-.337c.191-.414.227-.751 1.034-.92m6.209 1.033c.449-.056 1.313.337 1.37.73.056.394-.527.864-.977.752s-1.313-.302-1.257-.695c.057-.394.415-.731.864-.787m1.82 1.803c.281-.281.203-.112.73-.225.526-.112.864-.168 1.145.225s.618 1.145.281 1.257-.583.315-1.201-.246c-.619-.562-1.236-.73-.955-1.011m-19.247 1.498c0-.246.226-.583 1.314-.977 1.088-.393 1.896-1.089 4.39-1.257 2.493-.169 6.02-.091 8.983.414 2.964.506 5.851 2.346 6.884 3.414 1.032 1.068 3.132 3.47 2.852 3.863s-3.47-3.92-6.097-5.008c-2.493-1.033-3.076-1.436-8.478-1.594-5.739-.168-6.975.674-7.559.787-.582.112-2.289.605-2.289.358" clip-rule="evenodd"/><path fill="#fcc51d" fill-rule="evenodd" d="M529.835 79.708c.449-.337.449.112.674 0s.583-.752.977-1.257c.394-.506.675-1.257 1.932-1.37 1.258-.112 2.605.359 4.088.696 1.482.337 4.109.92 4.053 1.707s-1.707.393-3.188.225-2.943-.471-3.582-.583c-.64-.113-1.067-.394-1.595-.225-.527.169-1.258.752-1.538 1.033-.281.281-.808 1.011-1.201.955s-.972-.917-.62-1.181m2.212 1.82c.506-.337.675-.506 1.707-.506s1.785.056 2.739.168c.955.112 1.967.112 2.887.449.921.337.809.977 1.201 1.258.394.281.921.787.921.787s-.977.112-1.313-.057c-.338-.168-.809-.505-1.258-.618s-1.201 0-1.482-.112c-.28-.113-.393-.527-.617-.527-.226 0-.092.527-.506.696s-.808.281-1.258.168c-.449-.112-.864-.147-1.089-.45-.225-.302-.259-.436-.955-.302-.695.133-1.257.393-1.257-.056s-.225-.561.28-.898m.337 2.212c.282-.337.753 0 .977.225.226.225.092.527.787.639s1.124.169 1.932.169 1.538-.169 1.426.337c-.112.505-1.349.618-2.269.562s-1.966.056-2.269-.337-1.031-1.059-.584-1.595m7.579.808c.281-.415.45.056.787.168s.886.337.639.562c-.246.225-.47.337-.751.112s-.955-.427-.675-.842m4.727-4.896c.281-.168.562.428.618.899s-.113.92.056 1.257 1.089.428 1.089.73-.526.527-.808.864-.203.864-.506 1.032c-.302.168-.695 1.483-.583.057s.134-1.988.134-2.852-.28-1.818 0-1.987m3.224 4.201c.583.056-.225.583-.281.977-.056.393 0 .933-.225 1.067s-.652-.315-.955.303-.134 1.426-.471 1.65-.449.92-.73.168-.337-.842.112-1.763.696-1.089 1.033-1.426.934-1.033 1.517-.976m-2.718 6.883c.28-.562.786.134.73.527s.056.899-.394.843-.785-.471-.336-1.37m-12.98-1.068c.168-.225 1.616 1.425 2.29 1.875s1.538 1.201 2.1 1.426.821.281 1.181.225c.358-.056.66.168.302.449s-.64.428-.527.899.64 1.447.584 2.065-.303.618-.527.449-.112-.035-.337-.618-.449-.696-.449-.696-.394.056-.449-.337c-.057-.393-.247-.618-.64-.73-.394-.113-2.325-1.089-2.719-1.953-.395-.862-.978-2.829-.809-3.054m7.41 4.537c.337-.056.394.303.618.64s.337.877.225 1.292-.168.583-.449.64c-.28.056-.506.583-.449-.506.055-1.089-.282-2.009.055-2.066m-20.145-.337c-.695-.337.113-.583.506-1.032.394-.45.977-.73 1.258-1.18s.843-.941.898-.583c.057.359-.449 1.18-.786 1.539-.336.358-1.179 1.593-1.876 1.256m-.336 1.932c.675 0 .281.583.281.583s-.415.337-.471.562c-.057.225-.112 1.124-.562 1.011-.45-.112-.73.056-.45-.505.281-.562.394-.394.562-.674.169-.281-.034-.977.64-.977m1.516.808a2.6 2.6 0 0 1 1.314 0c.393.112 3.132.168 4.951.168s4.931.112 5.514.056 1.313-.056 1.482-.281c.168-.225-.091-.64.639-.808s1.384 1.313 1.518 1.763.281 1.426-.057 1.482c-.337.056-.898-.337-1.011-.674s-.246-1.201-.752-1.201c-.505 0-.877.618-1.404.73s-3.548.056-4.222.056-3.133-.147-3.301.19.898.73 2.043.899c1.146.168 2.628.337 3.077.281s1.145-.078 1.032.281-2.57.64-4.39.415c-1.819-.224-3.582-.695-4.088-1.032s-1.032-.92-1.481-1.033-1.482.225-1.258-.562c.226-.786-.02-.618.394-.73m4.952 4.2c.618-.225.843-.056 1.763-.056.921 0 2.459-.169 2.516.225.056.393-1.461.471-2.045.527s-1.46.337-1.931.168-.92-.639-.303-.864" clip-rule="evenodd"/><path fill="#fff" fill-rule="evenodd" d="M514.811 99.214c-.056.639.203 2.269.563 3.076.358.808 1.089 1.91 1.426 2.325s-.112-.808-.394-1.763-.808-2.134-.864-2.83-.056-1.313-.337-1.257-.338-.191-.394.449m-2.964-9.04c.337-.864.64-.056.695.225.057.28.246 1.033-.168.92s-.864-.281-.527-1.145m-.731-5.514c.337-.225.675.64.73 1.37.057.73.225 2.1-.168 2.157-.394.056-.899-1.011-.843-1.875s-.056-1.427.281-1.652" clip-rule="evenodd"/><path fill="#fff" fill-rule="evenodd" d="M509.803 82.841c.562-.113.562 1.257.449 2.1s-.393 2.177-.225 2.852c.169.674 1.033 2.416 1.258 3.167.225.752.506 1.841.506 2.234 0 .394-.022.787.28.73.303-.056.695-.449.752-.112s.225 1.742-.112 2.1-1.867.578-1.875-1.538c-.005-1.125-.527-2.865-1.033-4.762s-1.166-3.751-1.032-4.783.47-1.875 1.032-1.988m28.606 46.909c-.321.298-.973.852-1.241 1.274-.394.618-.597 1.966-1.012 2.605-.414.64-1.292 2.199-1.595 2.009s-1.088-1.616-1.088-2.458-.281-1.201-.169-1.65c.112-.45-.091-.821-.449-1.124s-1.146-1.56-1.313-2.346c-.169-.787-.169-.808 0-1.146.168-.337.562-.281.449-.674s-1.011-.696-.899-1.482c.113-.787-.111-.64-.056-1.482.056-.843.056-1.707.281-1.819.225-.113.596-.527 1.123.112.527.64.752 1.482 1.089 2.852s.64 2.402.977 2.964.449.73.73.899c.281.168.674.281.393.337-.28.056-.617.19-.842.358-.226.169-.752.281-.584.562s.358.45.864.281.864-.45 1.146-.73c.226-.226.449-.752 1.011-1.089l.281-.899c.358-1.146.471-1.054.471-2.009s-.134-1.201-.302-1.932c-.169-.73-.45-1.011-.45-1.011s-.203.021-1.067-.225-1.447-.246-1.84-.527c-.394-.281-.472-.45 0-.394.471.056 2.627.169 2.907.225s.64.471.921 1.257c.28.787.729 1.854.955 2.549.225.696.695 1.841.583 2.458s-.953 1.957-1.274 2.255" clip-rule="evenodd"/><path fill="#fff" fill-rule="evenodd" d="M529.027 121.458c.471-.225.639.021.695.808s0 3.448.169 4.2c.168.752.863 3.154 1.2 4.334.338 1.18.787 2.178.787 3.301s-.169 4.334-.112 5.008.112 2.346 1.594 3.526 3.133 2.359 3.358 2.942.674 1.785.562 2.122-.169.842-.449.505c-.281-.337-.696-1.011-1.37-2.044s-2.796-2.605-3.47-3.526-.977-1.65-1.089-3.077c-.112-1.426.056-4.256-.112-5.625-.169-1.37-.934-3.919-1.349-5.121-.414-1.201-.583-2.817-.64-3.884-.055-1.067-.245-3.244.226-3.469m4.11-4.45c-.472.358.112 1.124.505 1.594.394.471 1.63.977 2.213 1.089s2.269.281 3.02.225c.752-.056 2.234-.056 2.515.169.281.224.45.751.563 1.145s.056.618.449.506.639-1.089.695-1.932 0-2.022-1.369-2.269c-1.37-.246-3.154-.415-4.222-.471s-3.9-.415-4.369-.056m-1.146 1.257c-.337-.056-1.089-.056-1.707.168s-1.235.415-.898.752.934.337 1.572.449c.64.112 1.673.618 2.01.618s.021-.541-.225-1.011-.415-.92-.752-.976m-37.94-26.857h1.011s-.618 3.055-.843 4.65c-.225 1.594-.618 4.614-.618 4.614s-.056-5.209.45-9.264m1.986.003h.562s0 1.37-.169 2.212c-.168.843-.337 2.269-.562 2.381s-.169-1.272-.057-2.53.226-2.063.226-2.063m2.437 8.386c2.684-.113 2.705.562 3.885.955s2.907.639 3.245 1.088c.337.45.203.977-.246 1.37-.45.394-2.964.281-3.807.113s-1.797-.337-2.718-.056c-.92.281-1.84 1.313-2.515 1.819-.674.506-2.493 2.774-2.493 2.774s1.257-2.627 1.595-3.695c.336-1.067.527-1.987-.057-2.212-.583-.225-1.145-.281-2.964 1.987s-3.224 5.008-4.032 6.771-1.033 2.437-1.033 3.863.394 6.097.394 7.747c0 1.651.056 4.144-.168 5.739-.225 1.594-.597 3.301-.787 3.582s-.64.281-.64-.168.316-2.121.506-3.188c.189-1.067.189-2.887.189-4.369s-.146-4.502-.168-5.928-.268-3.786-.021-4.594c.246-.808.73-2.493 1.201-3.414s2.739-6.097 5.457-7.972c1.128-.778 2.494-2.1 5.177-2.212m17.981-37.9c.438-.063.376.391.313.767s-.251.767-.251 1.143-.125 1.065-.125 1.065-.689-.83-.501-1.582c.188-.751.126-1.33.564-1.393m-.563 3.68c.25 0 .25.689.188 1.002-.063.313.078 1.456-.313 1.456-.392 0-.705-.83-.518-1.331.189-.501.392-1.127.643-1.127m-1.52-1.769c.376 0 .689.376.689.689s-.063 1.018-.188 1.456c-.126.438-.423 1.832-.752 1.77s-.141-1.441-.203-2.083.079-1.832.454-1.832m-.606 5.105c.454-.188.391.516.328.83s-.063 1.018-.063 1.018-.078.267-.392 0c-.313-.266-.313-.078-.25-.705s-.077-.955.377-1.143" clip-rule="evenodd"/><path fill="#fcc51d" fill-rule="evenodd" d="M541.256 61.777c.245-.169.808-.169 1.032 0 .225.168.639.246.92.526.281.281.956.843.787 1.124s-.449 0-.73-.281-.246-.73-.583-.674c-.337.057-.169.506-.394.563s-.542.168-.843-.225c-.301-.394-.434-.865-.189-1.033" clip-rule="evenodd"/><path fill="#fff" fill-rule="evenodd" d="M518.898 114.631c.358 0 .394-.674 1.539-.674s1.369.618 1.369.618.639-.506 2.57-.73c1.932-.225 3.639.147 3.582.787s-1.517 3.828-1.875 4.727-1.307 2.943-1.819 3.076c-.864.225-1.952-.527-2.346-1.426-.393-.899-.674-2.493-.674-2.493s-.977.562-1.426.45c-.45-.113-1.37-.977-1.37-.977-.899.977-4.727 3.301-5.345 1.145-.404-1.408-.272-2.69.225-4.39.449-1.538 1.292-2.999 1.987-2.887s1.404.597 1.819 1.124c.416.526 1.406 1.65 1.764 1.65m-20.312-10.241c.471-.168 1.426-.337 2.795-.225 1.37.113 2.773 0 3.75.113.977.112 2.234.415 2.965.751.73.337 1.818.92 1.65 1.595s-1.349 1.461-2.213 1.404c-.864-.056-1.201-.281-2.57-.449-1.37-.169-4.594-.113-5.682-.225s-.864-.92-1.033-1.426-.133-1.369.338-1.538" clip-rule="evenodd"/><path fill="#fcc51d" fill-rule="evenodd" d="M506.839 105.816c.281-.112.358.393.639.505s.562.303.899.303.674.112.45.225c-.226.112-.822.337-1.293.112s-.976-1.033-.695-1.145" clip-rule="evenodd"/><path fill="#fff" fill-rule="evenodd" d="M501.27 114.855c.225-.169.808-.112 1.482-.225.674-.112 1.517.19 2.324.695.808.506 1.404 1.257 1.763 1.539.358.281 2.006 1.644 1.033 2.212-.675.394-1.405.225-2.044-.056s-1.953-.864-2.626-1.201c-.674-.337-1.145-.674-1.932-.505s-.696.709-1.033.843-1.067.021-1.404.302.057 2.023-.056 3.224c-.112 1.201-.302 2.605-.302 3.133 0 .527.437 2.381.19 3.638-.246 1.257-1.391 3.357-2.402 4.333-1.012.977-1.426 2.234-1.932 3.077-.505.842-.618 2.774-.618 2.774s-.696-.449-.977-.842-.449-.696-.394-1.145c.057-.449.541-1.953.955-3.245.415-1.292.359-2.83.359-4.032s.112-1.896.449-2.908c.337-1.011.808-2.156 1.257-3.526s.562-3.167.843-3.863.73-1.201 1.595-1.707c.864-.505 1.313-.696 1.707-.864s.977 0 1.257-.393.28-1.089.506-1.258" clip-rule="evenodd"/><path fill="#fff" fill-rule="evenodd" d="M501.213 118.157c.506-.056.808.078 1.37.302.562.225 1.875.899 1.875.899s-.696.168-1.313.225-.695.394-1.201.394c-.505 0-.674.077-1.067.976s-.674 2.29-.393 2.908 1.033 1.046 1.931 1.292 1.236.471 2.605.583c1.37.112 2.852.224 2.964.562.113.337-.414.562-3.02.562h-5.57s-.281-.976-.168-1.987.168-2.346.225-3.189 0-1.763.056-2.044-.281-.562.168-.562.695.056.92-.225.113-.64.618-.696m-15.811 13.71s3.997 3.582 6.546 6.265c2.55 2.684 6.132 6.546 6.132 6.546s-.618.506-1.37 1.012c-.751.505-1.65 1.145-1.65 1.145s-2.97-3.998-5.233-6.603c-2.606-3-5.401-5.345-5.401-5.345zm12.453-40.435h7.579s.393 1.18.505 2.605.449 3.526.056 3.639-1.313-1.349-1.313-1.349 0 1.539.056 2.212c.056.675.168 1.819-.112 1.988s-1.797-.527-2.268-.92-.696-.934-.752-1.517-.112-1.426-.112-1.426-.281.056-1.595-.056c-1.313-.112-2.212-.19-2.269-1.033s.225-4.143.225-4.143m2.628-6.378c1.18-.057 1.819.203 2.437.73s.976 1.404 1.089 1.707c.112.302.449.583.73.808s.752.709.864 1.068c.112.358.168 1.37.168 1.37h-11.667s.337-.484.506-1.011.133-1.202.639-1.651.956-.414 1.125-.808c.168-.393.021-1.045.864-1.236.843-.19.92-.19 1.707-.471.786-.282.358-.45 1.538-.506m-4.053 24.794s.899-1.236 1.707-1.349 2.515 0 2.908.169c.394.168 1.124.056 2.381.449s3.582 1.686 4.727 2.381c1.145.696 2.156 1.503 2.044 2.178-.112.674-.64.787-1.707.843s-3.245-1.033-3.807-1.258-1.728-.786-2.795-.73-1.629.583-3.055 1.37c-1.426.786-3.357 2.325-3.357 2.325s.057-.751.506-1.482.808-1.538 1.313-2.212c.506-.674.64-1.033 1.37-1.313.73-.281 1.651-.709 1.707-1.18s.056-1.032-1.595-1.032c-1.148-.002-2.347.841-2.347.841m37.258 40.918c.881-.583 3.159-1.853 4.643-2.714 1.873-1.087 5.337-2.006 5.337-2.006l1.536 1.816s-2.602 1.2-4.475 2.623c-1.894 1.44-4.046 3.577-4.046 3.577s-1.977-1.829-2.995-3.296m9.474-5.057c-.393.056-.862-.078-1.816-1.199-.953-1.122-2.377-2.23-2.152-3.409s.525-2.118 1.199-3.296c.673-1.178 1.592-3.443 1.816-4.362.224-.918.505-.975.953-1.479.449-.505 1.312-.863 1.48-1.368s.056-1.571.336-2.49.807-1.031 1.199-1.368c.394-.336.765-.414.897-.919.134-.505-.393-1.479-.28-1.873s.414-1.087.471-1.816.189-1.984 0-3.576c-.19-1.592-1.144-2.68-1.312-3.633-.169-.954-.246-2.658-.751-2.658s-.897.807-.897 1.704.729 1.929.897 2.658.448 2.188-.056 2.377c-.505.19-1.648-1.269-2.209-1.626-.562-.358-1.2-.807-1.256-1.087s-.281-.505-.674-.393-.525.561-.918.561c-.394 0-1.985.056-2.378-.168s-.862-.505-1.479-.505-1.367.147-1.312-.358.505-.988 1.536-1.29 2.209-.526 3.296-.47 2.567.47 3.016.639q.673.254.673-.281c0-.535-.259-1.333.583-1.894.841-.561 1.57-1.031 2.602-.393 1.031.639 1.255 1.389 1.592 2.23s.919 1.515 1.031 3.051.056 2.153.112 3.464c.056 1.312.505 1.108 0 3.991s-1.199 5.54-2.848 9.812-3.633 8.577-3.633 8.577 0 1.065.112 1.536.563 1.255.17 1.311" clip-rule="evenodd"/><path fill="#fcc51d" fill-rule="evenodd" d="M506.39 117.497s.505-.057.807.112c.302.168.731.787.506.787a2.4 2.4 0 0 1-.976-.281c-.281-.168-.337-.618-.337-.618" clip-rule="evenodd"/></svg>