<svg xmlns="http://www.w3.org/2000/svg" xml:space="preserve" width="313.285" height="369.751"><defs><clipPath><path d="M0 0h924.094v1315.276H0z"/></clipPath><clipPath><path d="M-281.575-168.788v279.212h563.15v-279.212z"/></clipPath><clipPath><path d="M0 0v421.92h562.56V0z"/></clipPath><clipPath><path d="M-150.394-84.23V47.48h275.906V-84.23z"/></clipPath><clipPath><path d="M0 0v314.64h419.52V0z"/></clipPath><clipPath><path d="M-64.567-120.157V73.74H67.528v-193.897z"/></clipPath><clipPath><path d="M0 0v425.52h283.44V0z"/></clipPath><clipPath><path d="M-425.099-198.205v396.41H425.1v-396.41z"/></clipPath><clipPath><use href="#a"/></clipPath><clipPath><use href="#a"/></clipPath><clipPath><path d="M3.7 362.99c15.503 1.808 27.73 14.035 29.538 29.537h783.524c1.808-15.502 14.035-27.729 29.538-29.537V33.01c-15.503-1.808-27.73-14.035-29.538-29.537H33.238C31.43 18.975 19.203 31.202 3.701 33.01z"/></clipPath><clipPath><use href="#b"/></clipPath><clipPath><use href="#c"/></clipPath><clipPath><use href="#b"/></clipPath><clipPath><use href="#c"/></clipPath><clipPath><path d="M138.701 83.91c0-30.121-24.445-54.566-54.566-54.566S29.569 53.789 29.569 83.91s24.445 54.567 54.566 54.567 54.566-24.446 54.566-54.567"/></clipPath><clipPath><use href="#d"/></clipPath><clipPath><use href="#b"/></clipPath><clipPath><use href="#c"/></clipPath><clipPath><path d="M820.422 83.91c0-30.121-24.446-54.566-54.567-54.566s-54.567 24.445-54.567 54.566 24.446 54.567 54.567 54.567 54.567-24.446 54.567-54.567"/></clipPath><clipPath><use href="#d"/></clipPath><clipPath><use href="#b"/></clipPath><clipPath><use href="#c"/></clipPath><clipPath><use href="#b"/></clipPath><clipPath><use href="#c"/></clipPath><clipPath><path d="M581.66 139.247h72.083v-79.87H581.66z"/></clipPath><clipPath><use href="#d"/></clipPath><clipPath><path d="m16.504 330.82 119.987 21.151 28.553-161.973-119.987-21.151"/></clipPath><clipPath><use href="#e"/></clipPath><clipPath><use href="#e"/></clipPath><path id="a" d="M0 .015h850.197v396.41H0z"/><path id="b" d="M-.197 396.425h850.394V-.425H-.197z"/><path id="c" d="M0 396.855h850.38V.015H0z"/><path id="d" d="M0 0h1v1H0z"/><path id="e" d="m709.9 343.887 123.12-21.704-28.721-162.926L681.18 180.96"/></defs><g transform="matrix(1.25 0 0 -1.25 395.868 1254.97)"><path fill="#003022" d="M-191.298 708.483c-58.948 0-125.012 41.923-125.012 147.52 0 105.595 66.064 147.518 125.012 147.518 58.952 0 124.992-41.923 124.992-147.519s-66.04-147.519-124.992-147.519"/><path fill="#cbb33e" fill-rule="evenodd" d="M-191.371 708.175c-7.516 0-15.073.685-22.461 2.033a123 123 0 0 0-22.265 6.272c-15.335 5.94-28.945 14.788-40.45 26.296-12.489 12.49-22.241 27.897-28.983 45.8-7.407 19.681-11.165 42.39-11.165 67.5s3.758 47.821 11.165 67.499c6.742 17.903 16.494 33.31 28.984 45.8 11.504 11.508 25.114 20.356 40.449 26.296a123 123 0 0 0 22.265 6.272 125.5 125.5 0 0 0 22.46 2.033c7.516 0 15.074-.686 22.462-2.033a123 123 0 0 0 22.257-6.268c15.331-5.94 28.937-14.784 40.438-26.288 12.49-12.49 22.238-27.898 28.979-45.805 7.411-19.681 11.17-42.393 11.17-67.507 0-25.23-3.793-48.033-11.27-67.78-6.803-17.953-16.632-33.388-29.222-45.874-11.485-11.388-25.045-20.147-40.303-26.026a122.7 122.7 0 0 0-22.157-6.206 125.4 125.4 0 0 0-22.353-2.014m0 7.107c-30.716 0-59.183 11.55-80.15 32.518-11.77 11.77-20.972 26.33-27.356 43.282-7.107 18.873-10.71 40.742-10.71 64.993 0 24.252 3.603 46.12 10.71 64.993 6.384 16.952 15.585 31.513 27.355 43.283 20.968 20.967 49.435 32.517 80.15 32.517 30.713 0 59.169-11.546 80.132-32.506 11.77-11.77 20.972-26.33 27.355-43.282 7.107-18.877 10.71-40.75 10.71-65.005 0-46.147-13.274-83.704-38.388-108.606-20.93-20.756-49.273-32.187-79.808-32.187"/><path fill="#cbb33e" fill-rule="evenodd" d="M-191.371 720.58c-29.315 0-56.465 11.003-76.443 30.985-11.239 11.235-20.036 25.168-26.154 41.412-6.88 18.272-10.368 39.501-10.368 63.098s3.488 44.827 10.368 63.1c6.118 16.243 14.915 30.176 26.154 41.41 19.978 19.982 47.128 30.986 76.443 30.986 29.31 0 56.45-11 76.424-30.974 11.238-11.238 20.035-25.172 26.15-41.415 6.88-18.273 10.368-39.506 10.368-63.107 0-23.708-3.52-45.026-10.461-63.356-6.168-16.286-15.038-30.243-26.365-41.473-19.944-19.774-46.971-30.666-76.116-30.666m0-1.505c-29.719 0-57.243 11.16-77.506 31.424-11.392 11.392-20.305 25.503-26.5 41.95-6.942 18.442-10.464 39.848-10.464 63.626s3.522 45.185 10.464 63.63c6.195 16.444 15.108 30.555 26.5 41.947 20.263 20.263 47.787 31.424 77.506 31.424 29.71 0 57.231-11.157 77.486-31.416 11.393-11.389 20.306-25.503 26.496-41.947 6.946-18.446 10.465-39.856 10.465-63.638 0-23.893-3.554-45.388-10.56-63.888-6.246-16.49-15.232-30.623-26.713-42.008-20.224-20.059-47.633-31.104-77.174-31.104"/><path fill="#fff" d="M-260.391 809.093c.589-.139 1.174.02 1.559.42.142.246.331.593.473.839.59-.135 1.614.273 1.386-.809.386-2.39.77-4.785 1.206-7.18-.936.231-2.538-.631-2.807.64-.612 1.505-1.906 2.71-3.346 3.66-2.818 1.471-6.834 1.598-9.448-.211a3.455 3.455 0 0 1-1.309-3.696c1.174-2.676 4.505-2.618 7.061-3.111 4.855-.454 10.938-.836 12.648-6.099.843-3.415-.224-7.057-2.734-9.159-3.469-3.196-9.88-3.6-14.515-1.917-1.717.312-3.465 2.144-5.301.739-.239-.397-.474-.84-.416-1.328l-1.964.061c-.489 2.784-.831 5.668-1.274 8.501l2.791.05c.662-1.409 1.517-2.764 2.807-3.627 3.711-2.09 9.379-4 13.194-.993 1.255 1.101 2.056 2.78 1.39 4.482-1.732 3.888-6.85 2.48-10.349 3.542-3.684.623-8.012 1.77-9.594 5.417-.52 1.61-.755 3.757.054 5.294.18.735.708 1.432 1.09 2.075 3.741 4.524 12.111 4.866 17.398 2.41m90.503 1.039c.728-2.387 1.552-4.724 2.183-7.11l-2.156-.04c-.554 1.021-.774 2.338-1.863 2.958-1.837 1.386-4.424.9-6.776.958-.147-2.845-.047-5.732-.047-8.624l.07-12.39c.011-.735.466-1.412 1.109-1.793.592-.235 1.278-.224 1.963-.212l.03-1.86-.338-.154-12.64.073-.034 1.96c1.178-.077 2.352.042 2.918 1.178l.235.74-.027 20.963-.196.142c-2.692-.192-5.937.486-7.608-1.844-.381-.646-.616-1.336-.897-2.075l-2.152-.038c.592 2.51 1.386 4.778 2.125 7.238zm27.825-.1.893-6.106c-.635-.258-1.082.027-1.763-.08-.459 1.07-.975 2.383-2.253 2.606l-.885.277-10.334.015c-.096-3.087-.142-5.979.058-9.059l5.047-.011c1.074.115 1.498 1.105 1.78 1.99l-.012.59a6 6 0 0 0 1.86.03c.05-2.791.195-5.629.05-8.374l-1.814-.03c-.166 1.073-.331 2.194-1.513 2.617-1.864.066-3.485.185-5.44 0a144 144 0 0 1 .015-9.209l.296-.139c4.062.17 7.935-.107 11.85.158 1.664.224 2.707 2.152 3.073 3.627l1.86.035c-.4-2.36-1.094-4.674-1.49-7.08-8.724.092-16.952-.05-25.719.042l-.034 1.956c1.028.019 1.863-.112 2.583.635.339.346.474.89.566 1.378-.023 6.76.058 13.33-.058 20.086-.107.635-.22 1.27-.862 1.652-.597.573-1.57.265-2.31.496l.112 1.914 6.81.019zm13.521-.057c5.895-6.51 11.747-13.464 17.591-19.975l.096.247-.034 15.97c-.112.781-.809 1.455-1.452 1.64-.589.139-1.274.173-1.96.162l-.034 1.86c3.43.01 7.196.227 10.726.092.108-.59.123-1.32.035-1.91-1.124-.07-2.449-.046-3.119-.985l-.28-.79.034-24.394c-1.956-.084-4.016.027-6.122.039-5.498 6.225-10.895 12.35-16.443 18.623l-.097-.1.012-14.746c.162-.682.42-1.363 1.159-1.644.639-.235 1.42-.22 2.156-.208l.085-2.006-10.877.054-.03 1.91c1.174.069 2.594-.054 3.164 1.085.189.443.377.886.27 1.425l-.108 20.178c-.308.781-.959 1.455-1.84 1.486-.54-.058-1.079-.015-1.521.123l.015 1.91zm-101.596-.012c3.489-.574 7-2.425 8.332-5.779.99-3.365.323-7.196-2.626-9.406-3.861-3.3-10.295-2.479-14.896-2.66a97 97 0 0 1-.084-6.418c.107-.585.462-1.167 1.005-1.452.739-.23 1.524-.365 2.406-.3l-.016-1.96c-4.747-.08-9.013.089-13.714.004l-.034 1.96c.828.212 2.256-.254 2.876.69.812 1.285.539 2.944.558 4.515l-.108 17.437c-.208.778-.854 1.406-1.644 1.536-.539.043-1.028.131-1.617.07-.108.589-.17 1.42.016 2.01 6.564-.081 13.024.18 19.546-.247m-9.105-3.05-.146-.05c.019-3.869-.066-7.545.054-11.41 3.426.107 7.6-.505 9.906 2.128 1.251 1.348 1.748 3.658 1.028 5.556-1.833 4.081-6.826 3.896-10.842 3.777m33.353 3.18c-.096-3.038 2.04-4.813 3.069-7.392 3.334-5.868 6.179-11.797 9.517-17.664.458-.924 1.632-1.001 2.568-1.228l-.02-1.764a269 269 0 0 0-12.585-.073l-.035 1.956c.932-.081 1.806.277 2.283 1.12.254 2.16-1.536 3.793-2.352 5.59l-12.05.035a51 51 0 0 1-2.03-4.443c-.185-.543.166-.928.32-1.367.647-.723 1.532-.95 2.514-.885.104-.54.12-1.32.03-1.96-3.18-.057-7.245-.077-10.63.012.04.635-.069 1.27.02 1.86 1.32-.028 2.637.292 3.503 1.19 1.525 2.475 2.507 5.235 3.781 7.9 1.84 4.15 3.723 8.539 5.756 12.643.285.64.22 1.52-.23 2.052-.501.678-1.333.662-1.972.7l-.03 1.714c2.887.1 5.782.004 8.573.004m-4.185-7.227c-1.27-2.91-2.691-5.875-3.962-8.835.004-.147-.192-.15-.042-.297 3.18.154 5.783-.142 8.913.108-1.62 3.007-3.242 6.164-4.909 9.024"/><path fill="#cbb33e" d="M-254.139 809.986c.389-2.54.724-5.082 1.21-7.573l-1.029-.015-1.363 7.912c.397-.143 1.12.311 1.182-.324"/><path fill="none" d="M-254.139 809.986c.389-2.54.724-5.082 1.21-7.573l-1.029-.015-1.363 7.912c.397-.143 1.12.311 1.182-.324"/><path fill="#cbb33e" d="M-219.169 804.72c1.175-2.823.797-6.357-1.078-8.544-1.675-2.137-4.64-3.461-7.573-3.808 3.265.89 7 3.015 7.966 6.607.785 2.853.042 5.975-2.048 7.9-1.544 1.54-3.57 2.434-5.587 3.038 3.438-.527 6.746-2.087 8.32-5.194"/><path fill="none" d="M-219.169 804.72c1.175-2.823.797-6.357-1.078-8.544-1.675-2.137-4.64-3.461-7.573-3.808 3.265.89 7 3.015 7.966 6.607.785 2.853.042 5.975-2.048 7.9-1.544 1.54-3.57 2.434-5.587 3.038 3.438-.527 6.746-2.087 8.32-5.194"/><path fill="#cbb33e" d="M-203.002 810.094c-.066-1.863.747-3.415 1.651-4.724 3.646-6.792 7.242-13.637 10.939-20.382.35-.432.893-.67 1.093-1.06-1.074-.065-1.871.605-2.472 1.43-4 7.522-8 14.945-12 22.422-.258.682-.324 1.513-.24 2.299z"/><path fill="none" d="M-203.002 810.094c-.066-1.863.747-3.415 1.651-4.724 3.646-6.792 7.242-13.637 10.939-20.382.35-.432.893-.67 1.093-1.06-1.074-.065-1.871.605-2.472 1.43-4 7.522-8 14.945-12 22.422-.258.682-.324 1.513-.24 2.299z"/><path fill="#cbb33e" d="M-139.172 809.936c.135-2.056.562-4.058.693-6.014l-1.078.031c-.085 2.106-.658 4.004-.693 6.064.343-.046.782.108 1.078-.08"/><path fill="none" d="M-139.172 809.936c.135-2.056.562-4.058.693-6.014l-1.078.031c-.085 2.106-.658 4.004-.693 6.064.343-.046.782.108 1.078-.08"/><path fill="#cbb33e" d="M-125.8 810.02c4.746-5.255 9.143-10.175 13.594-15.388l-.08-1.128c-4.898 5.598-9.645 10.903-14.493 16.501z"/><path fill="none" d="M-125.8 810.02c4.746-5.255 9.143-10.175 13.594-15.388l-.08-1.128c-4.898 5.598-9.645 10.903-14.493 16.501z"/><path fill="#cbb33e" d="M-267.46 807.106c-1.02-.458-2.183-1.359-2.449-2.833-.273-1.329.335-2.395 1.325-3.065.25-.189.496-.331.793-.474-1.42-.027-2.607.69-3.119 1.952-.315 1.125-.092 2.303.678 3.196.724.6 1.744 1.209 2.772 1.224"/><path fill="none" d="M-267.46 807.106c-1.02-.458-2.183-1.359-2.449-2.833-.273-1.329.335-2.395 1.325-3.065.25-.189.496-.331.793-.474-1.42-.027-2.607.69-3.119 1.952-.315 1.125-.092 2.303.678 3.196.724.6 1.744 1.209 2.772 1.224"/><path fill="#cbb33e" d="M-100.683 808.061c-1.028-.115-2.056-.185-2.776-.932-.296-.003-.385-.446-.577-.646-.204-8.035.046-16.652-.112-24.59l-.978-.02c-.092 7.985-.138 16.309-.08 24.298.13.785.766 1.04 1.347 1.444.631.204 1.267.315 1.998.377.189.589.027 1.274.065 1.91l1.079.019z"/><path fill="none" d="M-100.683 808.061c-1.028-.115-2.056-.185-2.776-.932-.296-.003-.385-.446-.577-.646-.204-8.035.046-16.652-.112-24.59l-.978-.02c-.092 7.985-.138 16.309-.08 24.298.13.785.766 1.04 1.347 1.444.631.204 1.267.315 1.998.377.189.589.027 1.274.065 1.91l1.079.019z"/><path fill="#cbb33e" d="M-166.115 807.21c.42-1.413.882-2.776 1.251-4.189-.342-.053-.831-.211-1.127.077-.32 1.417-.832 2.78-1.252 4.143.393.154.74-.035 1.128-.03"/><path fill="none" d="M-166.115 807.21c.42-1.413.882-2.776 1.251-4.189-.342-.053-.831-.211-1.127.077-.32 1.417-.832 2.78-1.252 4.143.393.154.74-.035 1.128-.03"/><path fill="#cbb33e" d="m-236.571 796.869-1.074-.065c-.104 3.033-.054 5.829.042 8.816l.978-.03z"/><path fill="none" d="m-236.571 796.869-1.074-.065c-.104 3.033-.054 5.829.042 8.816l.978-.03z"/><path fill="#cbb33e" d="M-189.646 805.624c-.586-.254-.766-1.09-1.098-1.682l-.377-.94-1.028-.065c.327.935.497 2.456 1.717 2.675.193.2.49.104.782.112z"/><path fill="none" d="M-189.646 805.624c-.586-.254-.766-1.09-1.098-1.682l-.377-.94-1.028-.065c.327.935.497 2.456 1.717 2.675.193.2.49.104.782.112z"/><path fill="#cbb33e" d="m-153.625 799.006-.982-.02-.112 6.465c.293.154.736.015 1.078-.031z"/><path fill="none" d="m-153.625 799.006-.982-.02-.112 6.465c.293.154.736.015 1.078-.031z"/><path fill="#cbb33e" d="M-209.216 798.575c-.52-1.136-.99-2.372-1.602-3.558-.346.042-.785-.112-1.032.131.659 1.478 1.267 3.107 2.126 4.443z"/><path fill="none" d="M-209.216 798.575c-.52-1.136-.99-2.372-1.602-3.558-.346.042-.785-.112-1.032.131.659 1.478 1.267 3.107 2.126 4.443z"/><path fill="#cbb33e" d="m-144.882 791.906-.927-.015-.1 8.424 1.077.019z"/><path fill="none" d="m-144.882 791.906-.927-.015-.1 8.424 1.077.019z"/><path fill="#cbb33e" d="m-153.652 786.562-.932-.015-.115 6.56c.439.154.685.062 1.128.02z"/><path fill="none" d="m-153.652 786.562-.932-.015-.115 6.56c.439.154.685.062 1.128.02z"/><path fill="#cbb33e" d="M-273.44 790.397c1.036-3.165 4.49-4.674 7.493-5.552-3.188.385-7.184 1.837-8.52 5.386.142.397.635.158 1.028.166"/><path fill="none" d="M-273.44 790.397c1.036-3.165 4.49-4.674 7.493-5.552-3.188.385-7.184 1.837-8.52 5.386.142.397.635.158 1.028.166"/><path fill="#cbb33e" d="M-175.786 805.624c.115-6.614-.02-12.886.096-19.497.112-.831.616-1.605 1.405-1.983.497-.284 1.132-.177 1.721-.261l.035-1.96-1.028-.02-.085 1.91c-1.128.178-2.502.347-2.964 1.517l-.216 1.22.058 19.105c.293.004.589-.039.978-.03"/><path fill="none" d="M-175.786 805.624c.115-6.614-.02-12.886.096-19.497.112-.831.616-1.605 1.405-1.983.497-.284 1.132-.177 1.721-.261l.035-1.96-1.028-.02-.085 1.91c-1.128.178-2.502.347-2.964 1.517l-.216 1.22.058 19.105c.293.004.589-.039.978-.03"/><path fill="#cbb33e" d="M-250.177 793.596c.843-3.56-.12-7.4-3.019-9.555-1.305-.955-2.956-1.818-4.47-2.037 3.5 1.528 6.68 4.474 6.703 8.736.19 3.288-1.424 5.952-4.242 7.323l-1.825.75.05.05c2.949-.581 6.014-2.194 6.803-5.267"/><path fill="none" d="M-250.177 793.596c.843-3.56-.12-7.4-3.019-9.555-1.305-.955-2.956-1.818-4.47-2.037 3.5 1.528 6.68 4.474 6.703 8.736.19 3.288-1.424 5.952-4.242 7.323l-1.825.75.05.05c2.949-.581 6.014-2.194 6.803-5.267"/><path fill="#cbb33e" d="M-126.702 785.954c.062-.731.613-1.46 1.306-1.74.643-.331 1.374-.27 2.063-.404l-.015-1.91-.982-.02-.03 1.91c-1.229.224-2.75.247-3.262 1.563a107 107 0 0 0-.196 11.262l1.051-1.255z"/><path fill="none" d="M-126.702 785.954c.062-.731.613-1.46 1.306-1.74.643-.331 1.374-.27 2.063-.404l-.015-1.91-.982-.02-.03 1.91c-1.229.224-2.75.247-3.262 1.563a107 107 0 0 0-.196 11.262l1.051-1.255z"/><path fill="#cbb33e" d="M-236.706 790.697c.674-2.094-.985-5.359 1.629-6.39.639-.136 1.186-.42 1.867-.359l.035-1.91-.978-.065c-.304.632.404 2.16-.674 2.044-1.032.131-2.114.5-2.618 1.375-.373 1.61-.162 3.477-.289 5.236.193.3.732.208 1.028.07"/><path fill="none" d="M-236.706 790.697c.674-2.094-.985-5.359 1.629-6.39.639-.136 1.186-.42 1.867-.359l.035-1.91-.978-.065c-.304.632.404 2.16-.674 2.044-1.032.131-2.114.5-2.618 1.375-.373 1.61-.162 3.477-.289 5.236.193.3.732.208 1.028.07"/><path fill="#cbb33e" d="M-213.413 789.292c-.37-1.428-1.767-2.726-1.05-4.331.65-.77 1.632-1.048 2.663-1.078l-.015-1.914c-.347.093-1.27-.362-1.086.424.039.489.27 1.374-.223 1.613-1.078-.07-2.114.354-2.572 1.228-.22 1.467.69 2.757 1.301 4.039z"/><path fill="none" d="M-213.413 789.292c-.37-1.428-1.767-2.726-1.05-4.331.65-.77 1.632-1.048 2.663-1.078l-.015-1.914c-.347.093-1.27-.362-1.086.424.039.489.27 1.374-.223 1.613-1.078-.07-2.114.354-2.572 1.228-.22 1.467.69 2.757 1.301 4.039z"/><path fill="#cbb33e" d="m-136.5 788.869-1.498-6.93-.978-.066c.305 2.306.851 4.666 1.398 6.976z"/><path fill="none" d="m-136.5 788.869-1.498-6.93-.978-.066c.305 2.306.851 4.666 1.398 6.976z"/><path fill="#000301" d="m-166.103 961.767 38.65-.003.162-9.271.147-61.883c.489-13.17-1.067-25.595-6.711-36.371-6.541-13.348-18.434-24.286-32.133-30.308-.727-.17-1.451-.439-2.175-.766-11.847-4.635-27.405-5.79-39.867-2.102-6.122 1.717-12.051 4.112-17.322 7.511-17.964 11.512-28.856 29.811-30.165 51.095l-.204 11.665-.027 22.4-.058 47.976.05.054 61.99.038z"/><path fill="#fff" d="m-221.945 958.707 33.388.061 22.508-.023 32.606.05 3.076-.05.058-12.293.139-49.693c-.058-8.597.404-17.187-1.07-25.233-4.082-22.889-22.289-42.27-44.904-47.772-17.064-4.204-35.975-1.097-49.481 8.566-16.078 11.023-26.604 28.968-27.016 49.535l-.062 15.628-.077 25.314-.03 31.463-.024 4.427 7.238.077z"/><path fill="none" d="m-221.945 958.707 33.388.061 22.508-.023 32.606.05 3.076-.05.058-12.293.139-49.693c-.058-8.597.404-17.187-1.07-25.233-4.082-22.889-22.289-42.27-44.904-47.772-17.064-4.204-35.975-1.097-49.481 8.566-16.078 11.023-26.604 28.968-27.016 49.535l-.062 15.628-.077 25.314-.03 31.463-.024 4.427 7.238.077z"/><path d="m-196.422 955.977 27.085.004 16.2.023 20.006-.016.104-8.959.088-49.8c-.108-8.805.628-18.065-1.209-26.223-4.516-21.8-21.556-39.498-43.186-44.773-23.289-5.77-46.786 3.404-60.484 21.241-7.412 9.818-11.786 21.622-12.067 34.743l-.057 15.312-.135 58.394.104.054 29.688.05z"/><path fill="#ed192e" d="m-189.835 954.58 26.357-.008c9.845.065 19.432-.027 28.91-.016l.124-6.926.142-49.9c-.292-10.061.774-20.514-1.932-29.52-6.168-22.822-25.769-39.778-49.901-42.027-22.573-2.005-43.556 9.244-54.51 27.96-4.512 7.838-7.11 16.39-7.746 25.964-.362 8.798.062 17.453-.196 26.25l-.1 47.506c.05.158-.116.624.092.732z"/><path d="M-162.057 950.69c1.621-.338 3.092-.989 3.538-2.752.409-2.387.197-5.101.397-7.6 1.209-21.649 3.042-43.079 6.322-63.857.142-2.083.82-5.144-1.14-6.376l-1.136-.385c-8.227-.3-16.412.027-24.428-.166-1.094-.177-2.025-.554-2.63-1.555l-.493-1.625c-.077-4.69-.096-9.378.035-14.064 1.051-.504 1.902-1.425 1.975-2.568.02-1.251-.062-2.503-1.036-3.353.166-3.643-.646-7.824 1.59-10.6.64-.77.713-1.967.57-2.906-.797-2.045-3.238-2.403-5.205-3.061-6.226-1.41-13.317-1.013-18.877 1.182-.743.612-1.532 1.224-1.71 2.26-.303 2.652 2.38 3.95 2.18 6.603l.042 6.564c-1.005.866-1.293 2.425-1.005 3.785.297.943.805 1.578 1.737 1.905l.154.266c.077 4.532.096 9.271-.035 13.749.027 1.459-.932 2.745-2.245 3.295l-.835.143c-7.816.073-15.212.15-23.027.065-1.144.035-2.295.17-3.088.936.05.004.154.004.154.054-1.27 1.124-1.04 3.003-1.016 4.62 3.861 23.458 5.363 47.81 6.498 72.366.34 1.359 1.102 2.414 2.45 2.802l1.504.34c19.359 1.173 39.78 1.112 58.76-.066"/><path fill="#fff" d="M-188.03 949.609c8.91-.154 17.869-.208 26.531-.993.42-.047.632-.355.951-.713.582-3.584.34-7.496.667-11.242 1.459-20.967 3.022-41.88 6.344-62.086-.034-.94.247-2.183-.63-2.614.053-.104.207-.05.31-.046-1.809-.713-3.641-.17-5.616-.362l-13.13.03c2.657.047 5.314.043 7.917.193-4.901.07-9.849.088-14.792-.154l-.258-.108c.158-.104.416-.046.623-.042-2.079-.297-3.665-1.94-4.254-3.877-.293-1.255-.373-2.56-.296-3.966l.088-11.146c-1.193-.123-.704 1.606-1.906 1.844-1.1.397-2.61.32-3.646-.065-.05 0-.104-.054-.05-.104.524-.2 1.101-.293 1.675-.389.581-.404 1.567-.23 1.787-.905-4.282.447-9.283.462-13.433-.392-.347 4.84.304 9.486-.147 14.322-.292 1.767-1.312 3.519-3.045 4.274.054 0 .212-.05.208.053-.893.559-1.99.643-3.138.674l-18.75-.015c-1.57.289-3.692-.428-5.113.485-.57 2.595.274 5.059.543 7.511a399 399 0 0 1 2.996 25.422l1.54 19.247a440 440 0 0 1 1.124 22.057c.038.832.28 1.775 1.109 2.048 4.262.7 9.267.424 13.479.809z"/><path fill="none" d="M-188.03 949.609c8.91-.154 17.869-.208 26.531-.993.42-.047.632-.355.951-.713.582-3.584.34-7.496.667-11.242 1.459-20.967 3.022-41.88 6.344-62.086-.034-.94.247-2.183-.63-2.614.053-.104.207-.05.31-.046-1.809-.713-3.641-.17-5.616-.362l-13.13.03c2.657.047 5.314.043 7.917.193-4.901.07-9.849.088-14.792-.154l-.258-.108c.158-.104.416-.046.623-.042-2.079-.297-3.665-1.94-4.254-3.877-.293-1.255-.373-2.56-.296-3.966l.088-11.146c-1.193-.123-.704 1.606-1.906 1.844-1.1.397-2.61.32-3.646-.065-.05 0-.104-.054-.05-.104.524-.2 1.101-.293 1.675-.389.581-.404 1.567-.23 1.787-.905-4.282.447-9.283.462-13.433-.392-.347 4.84.304 9.486-.147 14.322-.292 1.767-1.312 3.519-3.045 4.274.054 0 .212-.05.208.053-.893.559-1.99.643-3.138.674l-18.75-.015c-1.57.289-3.692-.428-5.113.485-.57 2.595.274 5.059.543 7.511a399 399 0 0 1 2.996 25.422l1.54 19.247a440 440 0 0 1 1.124 22.057c.038.832.28 1.775 1.109 2.048 4.262.7 9.267.424 13.479.809z"/><path d="m-193.42 944.931-.273-5.213h-.104c-.154 2.86-.254 5.725-.72 8.424l.358.373c1.363-.5.616-2.44.74-3.584"/><path fill="none" d="m-193.42 944.931-.273-5.213h-.104c-.154 2.86-.254 5.725-.72 8.424l.358.373c1.363-.5.616-2.44.74-3.584"/><path d="M-195.656 947.861c.034-2.03-.139-3.958-.208-5.94l-.108.153c.17 2.245-.697 4.155-.631 6.291.465.166.681-.246.947-.504"/><path fill="none" d="M-195.656 947.861c.034-2.03-.139-3.958-.208-5.94l-.108.153c.17 2.245-.697 4.155-.631 6.291.465.166.681-.246.947-.504"/><path d="m-210.394 947.503-.47-8.813c.154 3.18-1.313 6.437-.166 9.371.47.116.632-.196.636-.558"/><path fill="none" d="m-210.394 947.503-.47-8.813c.154 3.18-1.313 6.437-.166 9.371.47.116.632-.196.636-.558"/><path d="m-208.612 947.01-.416-3.08c-.596 1.294-.258 2.703-.177 4.062.42-.1.843-.454.593-.982"/><path fill="none" d="m-208.612 947.01-.416-3.08c-.596 1.294-.258 2.703-.177 4.062.42-.1.843-.454.593-.982"/><path d="M-191.598 948.192c.27-3.638.077-7.55-.016-11.25l-.188-.943c-.332 3.904-.459 8.328-.216 12.293.154 0 .362.108.42-.1"/><path fill="none" d="M-191.598 948.192c.27-3.638.077-7.55-.016-11.25l-.188-.943c-.332 3.904-.459 8.328-.216 12.293.154 0 .362.108.42-.1"/><path d="M-212.69 947.772c.028-1.509.051-2.968-.184-4.327-.265-2.764-.004-5.779-.531-8.447l-.354 11.3c.096.573.134 1.251.546 1.57.158-.05.416.112.524-.096"/><path fill="none" d="M-212.69 947.772c.028-1.509.051-2.968-.184-4.327-.265-2.764-.004-5.779-.531-8.447l-.354 11.3c.096.573.134 1.251.546 1.57.158-.05.416.112.524-.096"/><path d="M-189.258 948.184a24 24 0 0 0-.458-6.522l-.215 6.507z"/><path fill="none" d="M-189.258 948.184a24 24 0 0 0-.458-6.522l-.215 6.507z"/><path d="M-187.013 948.015c.085-1.771.062-3.492-.589-5.013-.343 1.66-.112 3.384.07 5.001z"/><path fill="none" d="M-187.013 948.015c.085-1.771.062-3.492-.589-5.013-.343 1.66-.112 3.384.07 5.001z"/><path d="M-185.527 946.475c-.158 0-.262-.004-.315.154-.112.516.088.936.184 1.41.32-.413.278-1.09.131-1.564"/><path fill="none" d="M-185.527 946.475c-.158 0-.262-.004-.315.154-.112.516.088.936.184 1.41.32-.413.278-1.09.131-1.564"/><path d="M-215.13 947.364c.085-4.843-.246-9.848-.631-14.645-.397 1.867-.012 3.646-.097 5.62l-.28 7.135.434 1.933c.204.057.366-.15.574-.043"/><path fill="none" d="M-215.13 947.364c.085-4.843-.246-9.848-.631-14.645-.397 1.867-.012 3.646-.097 5.62l-.28 7.135.434 1.933c.204.057.366-.15.574-.043"/><path d="M-168.925 947.445c.007-.627.023-1.409-.227-2.036-.212.204-.27.62-.328.985l-.292 1.763c.42-.096.735-.3.847-.712"/><path fill="none" d="M-168.925 947.445c.007-.627.023-1.409-.227-2.036-.212.204-.27.62-.328.985l-.292 1.763c.42-.096.735-.3.847-.712"/><path d="M-206.883 946.467c-.104-.104-.258-.265-.416-.111-.108.207-.062.52-.07.835.109-.054.155.208.313.108.211-.204.115-.52.173-.832"/><path fill="none" d="M-206.883 946.467c-.104-.104-.258-.265-.416-.111-.108.207-.062.52-.07.835.109-.054.155.208.313.108.211-.204.115-.52.173-.832"/><path d="M-166.935 946.698c-.035-.89.189-1.925-.108-2.71-.311-.058-.219.57-.327.828-.227.985-.454 2.075-.47 3.114.828.174.64-.82.905-1.232"/><path fill="none" d="M-166.935 946.698c-.035-.89.189-1.925-.108-2.71-.311-.058-.219.57-.327.828-.227.985-.454 2.075-.47 3.114.828.174.64-.82.905-1.232"/><path d="M-197.885 947.095c-.039-.678.13-1.352-.07-1.93l-.208.051-.088 2.133c.204.054.365-.1.365-.254"/><path fill="none" d="M-197.885 947.095c-.039-.678.13-1.352-.07-1.93l-.208.051-.088 2.133c.204.054.365-.1.365-.254"/><path d="M-165.064 946.99c.239-1.766-.308-3.341-.173-5.108-.204-.054-.158.208-.212.258-.188 1.925-.847 3.734-.724 5.663.774.381.79-.504 1.11-.812"/><path fill="none" d="M-165.064 946.99c.239-1.766-.308-3.341-.173-5.108-.204-.054-.158.208-.212.258-.188 1.925-.847 3.734-.724 5.663.774.381.79-.504 1.11-.812"/><path d="M-219.708 946.818c-.315-5.58-.111-11.358-.747-16.84l-1.313-11.378c-.766 5.298.505 10.115.516 15.27.197 3.808-.616 8.535.412 12.3.2.474.613.64 1.132.648"/><path fill="none" d="M-219.708 946.818c-.315-5.58-.111-11.358-.747-16.84l-1.313-11.378c-.766 5.298.505 10.115.516 15.27.197 3.808-.616 8.535.412 12.3.2.474.613.64 1.132.648"/><path d="M-217.355 946.544c.042-5.52-.593-10.791-1.024-16.112-.208.154-.216.516-.274.777l.328 14.018c.204.47-.147 2.5.97 1.317"/><path fill="none" d="M-217.355 946.544c.042-5.52-.593-10.791-1.024-16.112-.208.154-.216.516-.274.777l.328 14.018c.204.47-.147 2.5.97 1.317"/><path d="M-163.227 946.136c.12-.882-.127-1.617-.216-2.398 0-.104-.262-.058-.366-.058-.23 1.347-.412 2.649-.643 4 .986.327 1.01-.974 1.225-1.544"/><path fill="none" d="M-163.227 946.136c.12-.882-.127-1.617-.216-2.398 0-.104-.262-.058-.366-.058-.23 1.347-.412 2.649-.643 4 .986.327 1.01-.974 1.225-1.544"/><path d="m-170.477 946.74-.312-.007-.011.627.312.004z"/><path fill="none" d="m-170.477 946.74-.312-.007-.011.627.312.004z"/><path d="M-161.456 946.22c.573-3.064.377-6.61.381-9.89-.331 1.036-.35 2.18-.527 3.273a74 74 0 0 1-1.333 7.788c.982.435 1.055-.762 1.479-1.17"/><path fill="none" d="M-161.456 946.22c.573-3.064.377-6.61.381-9.89-.331 1.036-.35 2.18-.527 3.273a74 74 0 0 1-1.333 7.788c.982.435 1.055-.762 1.479-1.17"/><path d="M-163.262 942.332c-.104 0-.158-.104-.208-.158-.162.362-.273.778-.123 1.194.104-.05.154.162.312.058z"/><path fill="none" d="M-163.262 942.332c-.104 0-.158-.104-.208-.158-.162.362-.273.778-.123 1.194.104-.05.154.162.312.058z"/><path d="M-190.643 926.331c.596-4.416.627-9.209 1.228-13.729l-.624-.012c-.393 4.524-.785 9.102-.658 13.791z"/><path fill="none" d="M-190.643 926.331c.596-4.416.627-9.209 1.228-13.729l-.624-.012c-.393 4.524-.785 9.102-.658 13.791z"/><path d="M-194.278 913.66c-.17-2.294-.023-4.689-.716-6.679.061 2.24.285 4.54.4 6.78.104 0 .208.004.316-.1"/><path fill="none" d="M-194.278 913.66c-.17-2.294-.023-4.689-.716-6.679.061 2.24.285 4.54.4 6.78.104 0 .208.004.316-.1"/><path d="M-188.73 909.175c.747-6.968 1.34-14.04 2.187-20.955l-.254-.162c-1.517 3.257-.913 7.434-1.448 11.123-.423 3.43-.64 6.918-.962 10.349.25.577.423-.2.477-.355"/><path fill="none" d="M-188.73 909.175c.747-6.968 1.34-14.04 2.187-20.955l-.254-.162c-1.517 3.257-.913 7.434-1.448 11.123-.423 3.43-.64 6.918-.962 10.349.25.577.423-.2.477-.355"/><path d="M-194.948 904.274c.216-3.488-.3-6.78-.762-10.014l-.054-.004c.1 3.285-.016 6.827.554 10.014z"/><path fill="none" d="M-194.948 904.274c.216-3.488-.3-6.78-.762-10.014l-.054-.004c.1 3.285-.016 6.827.554 10.014z"/><path d="M-196.095 889.46c-.743-5.117-1.12-10.388-2.233-15.405-.25-.581-.92-1.009-1.382-1.382-.274.728.238 1.36.435 1.99.954 4.963 1.963 9.93 3.022 14.792z"/><path fill="none" d="M-196.095 889.46c-.743-5.117-1.12-10.388-2.233-15.405-.25-.581-.92-1.009-1.382-1.382-.274.728.238 1.36.435 1.99.954 4.963 1.963 9.93 3.022 14.792z"/><path d="M-187.413 887.319c-.1-.104-.258-.058-.416-.058-.104.1-.162.362.046.416.208.004.37-.2.37-.358"/><path fill="none" d="M-187.413 887.319c-.1-.104-.258-.058-.416-.058-.104.1-.162.362.046.416.208.004.37-.2.37-.358"/><path d="M-186.139 886.09c.866-1.91.7-4.312 1.825-6.113 1.736-1.013 4.023-.659 5.96-1.148a.44.44 0 0 0 .108-.204c-1.821-.138-3.754.143-5.637.42-.2-.262-.35-.736-.085-1.044.69-.716 1.73-.592 2.672-.785l4.012-.138.004-.262a24.7 24.7 0 0 0-6.199.05c.004-.158-.2-.37-.042-.524 2.622-.993 5.64-.785 8.459-1.205l.004-.208c-2.284-.354-4.998-.138-7.346.081-.154-.058-.154-.162-.15-.316l.843-.454c3.445-.566 7.095-.712 10.491-1.328-3.122-.158-7.346-.023-10.734.127-2.348.373-2.71 3.076-3.21 4.993-.309 2.757-1.137 5.294-1.133 8.055z"/><path fill="none" d="M-186.139 886.09c.866-1.91.7-4.312 1.825-6.113 1.736-1.013 4.023-.659 5.96-1.148a.44.44 0 0 0 .108-.204c-1.821-.138-3.754.143-5.637.42-.2-.262-.35-.736-.085-1.044.69-.716 1.73-.592 2.672-.785l4.012-.138.004-.262a24.7 24.7 0 0 0-6.199.05c.004-.158-.2-.37-.042-.524 2.622-.993 5.64-.785 8.459-1.205l.004-.208c-2.284-.354-4.998-.138-7.346.081-.154-.058-.154-.162-.15-.316l.843-.454c3.445-.566 7.095-.712 10.491-1.328-3.122-.158-7.346-.023-10.734.127-2.348.373-2.71 3.076-3.21 4.993-.309 2.757-1.137 5.294-1.133 8.055z"/><path d="m-187.163 884.928.115-.466c-.261-.058-.781.038-1.047.292-.161.155-.215.362-.22.62.305.424 1.194.177 1.152-.446"/><path fill="none" d="m-187.163 884.928.115-.466c-.261-.058-.781.038-1.047.292-.161.155-.215.362-.22.62.305.424 1.194.177 1.152-.446"/><path d="M-182.37 884.959c-.827-.274-1.617.18-2.348.269.25.528.681-.142 1.093.073.52.112 1.044-.034 1.255-.342"/><path fill="none" d="M-182.37 884.959c-.827-.274-1.617.18-2.348.269.25.528.681-.142 1.093.073.52.112 1.044-.034 1.255-.342"/><path d="M-155.388 876.261c.119-.881.134-1.925-.216-2.66l-.52-.008c.027 4.27-1.078 8.055-1.255 12.116.886-3.007 1.62-6.171 1.99-9.448"/><path fill="none" d="M-155.388 876.261c.119-.881.134-1.925-.216-2.66l-.52-.008c.027 4.27-1.078 8.055-1.255 12.116.886-3.007 1.62-6.171 1.99-9.448"/><path d="M-199.595 884.085c-.562-3.658.135-7.916-2.052-10.87-.412-.319-.662-.846-1.04-.226-.169.881.863 1.42.797 2.306l2.187 8.944z"/><path fill="none" d="M-199.595 884.085c-.562-3.658.135-7.916-2.052-10.87-.412-.319-.662-.846-1.04-.226-.169.881.863 1.42.797 2.306l2.187 8.944z"/><path d="M-180.248 882.86c.054-.154-.1-.211-.204-.315-1.356.13-2.815.157-3.97.658l.204.212c1.305-.185 2.614-.474 3.97-.555"/><path fill="none" d="M-180.248 882.86c.054-.154-.1-.211-.204-.315-1.356.13-2.815.157-3.97.658l.204.212c1.305-.185 2.614-.474 3.97-.555"/><path d="M-186.805 882.433c-.046-.262.32-.412.22-.724-.786.247-1.983.223-2.107 1.263l.05.316c.728.011 1.564-.131 1.837-.855"/><path fill="none" d="M-186.805 882.433c-.046-.262.32-.412.22-.724-.786.247-1.983.223-2.107 1.263l.05.316c.728.011 1.564-.131 1.837-.855"/><path d="M-226.765 873.817c-.32.254-1.143-.282-1.101.396.108 2.764.37 5.583.793 8.247l.158-.154z"/><path fill="none" d="M-226.765 873.817c-.32.254-1.143-.282-1.101.396.108 2.764.37 5.583.793 8.247l.158-.154z"/><path d="M-179.02 881.005c-.05-.05.004-.05.054-.1-1.764-.397-3.746-.224-5.367.269l.096.312c1.575-.597 3.6-.247 5.217-.481"/><path fill="none" d="M-179.02 881.005c-.05-.05.004-.05.054-.1-1.764-.397-3.746-.224-5.367.269l.096.312c1.575-.597 3.6-.247 5.217-.481"/><path d="m-186.397 879.834.216-.358c-1.036-.227-2.04.485-2.78 1.201.62.22 2.129.247 2.564-.843"/><path fill="none" d="m-186.397 879.834.216-.358c-1.036-.227-2.04.485-2.78 1.201.62.22 2.129.247 2.564-.843"/><path d="M-203.43 879.903c.043-2.552-.069-5-1.02-7.153-.158.046-.416-.112-.523.146.007 2.553.904 4.809 1.382 7.161z"/><path fill="none" d="M-203.43 879.903c.043-2.552-.069-5-1.02-7.153-.158.046-.416-.112-.523.146.007 2.553.904 4.809 1.382 7.161z"/><path d="M-224.828 876.142c.227-.882.45-1.867.365-2.857-.465-.373-.789.4-.95.659-.128 1.355.057 2.71.242 4.015.32-.462.231-1.193.343-1.817"/><path fill="none" d="M-224.828 876.142c.227-.882.45-1.867.365-2.857-.465-.373-.789.4-.95.659-.128 1.355.057 2.71.242 4.015.32-.462.231-1.193.343-1.817"/><path d="M-206.471 878.025c-.127-1.617-.358-3.288-.909-4.701l-.312-.008c-.238 1.821.724 3.296.955 4.966.158.054.212-.153.266-.257"/><path fill="none" d="M-206.471 878.025c-.127-1.617-.358-3.288-.909-4.701l-.312-.008c-.238 1.821.724 3.296.955 4.966.158.054.212-.153.266-.257"/><path d="M-158.041 879.03c.343-1.872.793-3.789.462-5.776.004-.104-.208-.004-.308-.057-.555 1.813-.12 3.854-.312 5.829z"/><path fill="none" d="M-158.041 879.03c.343-1.872.793-3.789.462-5.776.004-.104-.208-.004-.308-.057-.555 1.813-.12 3.854-.312 5.829z"/><path d="M-185.773 877.14c-.362-.166-.932-.436-1.456-.236-.63.354-1.158.763-1.482 1.382 1.144.02 2.395-.011 2.938-1.147"/><path fill="none" d="M-185.773 877.14c-.362-.166-.932-.436-1.456-.236-.63.354-1.158.763-1.482 1.382 1.144.02 2.395-.011 2.938-1.147"/><path d="m-222.283 873.582-.57-.008c-.227.932-.089 2.029-.158 3.068l.312-.046z"/><path fill="none" d="m-222.283 873.582-.57-.008c-.227.932-.089 2.029-.158 3.068l.312-.046z"/><path d="M-209.44 875.056c-.096-.47-.138-1.147-.654-1.259-.162.258.038.624.035.936l.327 2.09c.577-.25.28-1.247.292-1.767"/><path fill="none" d="M-209.44 875.056c-.096-.47-.138-1.147-.654-1.259-.162.258.038.624.035.936l.327 2.09c.577-.25.28-1.247.292-1.767"/><path d="M-185.473 874.744c-.1-.262.216-.462-.042-.623-1.463.235-2.472 1.312-3.931 1.547-.108.05.046.208.15.312 1.305-.289 3.022.004 3.823-1.236"/><path fill="none" d="M-185.473 874.744c-.1-.262.216-.462-.042-.623-1.463.235-2.472 1.312-3.931 1.547-.108.05.046.208.15.312 1.305-.289 3.022.004 3.823-1.236"/><path d="M-220.99 874.178c-.258-.107-.315.15-.473.25.046.262-.166.678.142.786l.262.004z"/><path fill="none" d="M-220.99 874.178c-.258-.107-.315.15-.473.25.046.262-.166.678.142.786l.262.004z"/><path d="M-212.185 874.174c-.104-.103-.261-.003-.415-.057-.058.312.034.835.292.993.212-.15.116-.624.123-.936"/><path fill="none" d="M-212.185 874.174c-.104-.103-.261-.003-.415-.057-.058.312.034.835.292.993.212-.15.116-.624.123-.936"/><path d="M-159.12 875.052c.166-.573.02-1.2-.23-1.67-.427.615-.185 1.505-.25 2.336.515.324.215-.465.48-.666"/><path fill="none" d="M-159.12 875.052c.166-.573.02-1.2-.23-1.67-.427.615-.185 1.505-.25 2.336.515.324.215-.465.48-.666"/><path d="m-160.509 874.036-.096-.366c-.52-.165-.216.412-.324.67.308.112.366-.146.42-.304"/><path fill="none" d="m-160.509 874.036-.096-.366c-.52-.165-.216.412-.324.67.308.112.366-.146.42-.304"/><path d="m-185.119 872.461.066-.831-.366-.008c-1.209.708-2.518 1.155-3.73 1.913-.005.158-.005.208.1.262 1.509.027 3.23-.046 3.93-1.336"/><path fill="none" d="m-185.119 872.461.066-.831-.366-.008c-1.209.708-2.518 1.155-3.73 1.913-.005.158-.005.208.1.262 1.509.027 3.23-.046 3.93-1.336"/><path d="M-189.061 871.348v.054l.677.012v-.054z"/><path fill="none" d="M-189.061 871.348v.054l.677.012v-.054z"/><path d="m-184.707 869.655.378-.774c-1.244-.231-2.045.9-3.15 1.351-.523.304-1.77.123-1.628.859 1.617-.077 3.642.215 4.4-1.436"/><path fill="none" d="m-184.707 869.655.378-.774c-1.244-.231-2.045.9-3.15 1.351-.523.304-1.77.123-1.628.859 1.617-.077 3.642.215 4.4-1.436"/><path d="M-184.341 866.536c-1.086-.385-1.786.855-2.78 1.147l-1.62.34c-.108.257.2.523.35.734 1.62-.23 3.6-.3 4.05-2.221"/><path fill="none" d="M-184.341 866.536c-1.086-.385-1.786.855-2.78 1.147l-1.62.34c-.108.257.2.523.35.734 1.62-.23 3.6-.3 4.05-2.221"/><path d="M-194.736 865.312c.327-.878.246-2.13-.37-2.819a1.21 1.21 0 0 0-1.243-.335c-.84.35-1.17 1.333-1.132 2.222.038.782.443 1.467 1.166 1.79.674.17 1.255-.342 1.579-.858"/><path fill="none" d="M-194.736 865.312c.327-.878.246-2.13-.37-2.819a1.21 1.21 0 0 0-1.243-.335c-.84.35-1.17 1.333-1.132 2.222.038.782.443 1.467 1.166 1.79.674.17 1.255-.342 1.579-.858"/><path d="M-208.681 864.391c.82-2.225 1.586-4.4 2.614-6.518-.674-.273-1.294-.596-1.967-.712-3.743 2.487-9.302 4.682-13.63 1.848-2.263-1.655-2.518-4.993-1.998-7.746.555-1.918 1.883-3.458 3.82-3.943 1.72-.127 3.538.112 4.35 1.483.655 1.155.886 2.88.189 4.065-1.748 1.687-4.651.7-6.619.197l-.023 4.165c3.908-.034 7.346.027 11.304-.061.736-.197 1.417-.497 1.69-1.22.258-2.861.154-5.834.258-8.748l1.067-1.544-.493-1.625c-1.667.077-3.546.2-5.313.012-4.37-.285-9.248-1.41-12.836 1.394-3.057 1.925-4.166 5.76-3.866 9.567.347 3.862 3.465 7.25 7.042 8.355 3.203 1.513 7.28.646 10.773.5.885.12 1.497.755 1.694 1.54.412.162.931.277 1.397.39.216-.467.485-.879.547-1.399m23.797.574c.108-.312.324-.62.331-1.04-1.043-.069-1.786.805-2.63 1.26l-1.728.542c.874.847 2.287.35 3.334.004z"/><path fill="none" d="M-184.884 864.965c.108-.312.324-.62.331-1.04-1.043-.069-1.786.805-2.63 1.26l-1.728.542c.874.847 2.287.35 3.334.004z"/><path d="M-155.6 861.515c.077-1.559.366-3.014.546-4.523l-2.125-.505c-1.082 2.272-3.35 3.85-5.856 4.066-2.033.12-4.543.65-5.81-1.301-.15-.42-.034-.99.282-1.244 2.152-.847 4.797-.335 7.15-.658 2.975-.466 5.982-2.603 6.818-5.61.877-2.591-.328-5.267-1.91-6.96-4.058-3.408-10.083-1.43-14.98-1.306-1.252.03-2.018-.92-2.838-1.613l-1.837.647c.886 3.037.77 6.68-.323 9.633l1.76.758c2.614-3.55 6.468-6.657 11.403-5.844 1.094.177 2.387.562 2.838 1.559.246.79-.131 1.613-.812 1.913-3.931 1.286-9.218-.365-11.99 3.284-1.332 1.798-2.005 4.601-.739 6.653 1.613 2.946 4.717 4.409 8.262 4.155 2.915.158 6.703-2.172 8.732 1.04 2.349-.116.832-2.8 1.429-4.144"/><path fill="#fff" d="M-207.957 858.778c-4.004 2.483-10.126 4.147-14.453 1.26-2.318-1.499-3.365-4.174-3.261-7.093.192-2.129.854-4.15 2.806-5.525 1.69-1.324 4.605-1.27 6.676-.558 1.756.863 2.345 2.853 2.418 4.732-.123 1.09-.662 2.017-1.61 2.626-1.574.704-3.919.662-5.574.061l.023 1.613c3.488.116 6.772.12 10.106-.03.158-.1.32-.308.374-.516.42-3.015-.146-6.41.631-9.26.158-.104.266-.204.216-.412-5.79.47-12.76-3.091-17.218 1.679-2.383 2.144-2.714 6.149-1.932 9.186 1.082 3.665 4.947 6.076 8.74 6.56 2.806.517 5.632-.423 8.546-.215.57.27.924.797 1.336 1.013z"/><path fill="none" d="M-207.957 858.778c-4.004 2.483-10.126 4.147-14.453 1.26-2.318-1.499-3.365-4.174-3.261-7.093.192-2.129.854-4.15 2.806-5.525 1.69-1.324 4.605-1.27 6.676-.558 1.756.863 2.345 2.853 2.418 4.732-.123 1.09-.662 2.017-1.61 2.626-1.574.704-3.919.662-5.574.061l.023 1.613c3.488.116 6.772.12 10.106-.03.158-.1.32-.308.374-.516.42-3.015-.146-6.41.631-9.26.158-.104.266-.204.216-.412-5.79.47-12.76-3.091-17.218 1.679-2.383 2.144-2.714 6.149-1.932 9.186 1.082 3.665 4.947 6.076 8.74 6.56 2.806.517 5.632-.423 8.546-.215.57.27.924.797 1.336 1.013z"/><path d="M-184.845 862.567c.061-.312.22-.566.173-.882-.628.092-1.263.654-1.89.905l-2.46.739c-.058.208.046.366.146.47 1.559.134 3.126.003 4.03-1.232"/><path fill="none" d="M-184.845 862.567c.061-.312.22-.566.173-.882-.628.092-1.263.654-1.89.905l-2.46.739c-.058.208.046.366.146.47 1.559.134 3.126.003 4.03-1.232"/><path fill="#fff" d="M-156.582 857.958c-2.348 3.292-6.957 4.72-11.311 3.5-1.402-.34-2.48-1.136-2.769-2.653.012-.678.077-1.301.5-1.763 2.057-1.475 5.064-.64 7.52-.963 3.022-.05 5.552-1.829 6.591-4.574.5-1.813.12-3.85-1.058-5.12-3.835-4.131-10.242-1.067-15.289-1.521-.986-.223-1.806-1.02-2.472-1.606l-.108.154c.69 2.41.636 5.533-.138 7.916 2.818-3.284 7.3-6.28 12.436-5.147 1.455.285 2.953.99 3.345 2.456.193.785-.08 1.613-.558 2.18-3.538 2.694-9.533-.17-12.463 3.584-1.112 1.228-1.567 3.199-1.124 4.824.943 2.568 3.365 4.223 6.176 4.377 3.53.635 7.38-2.267 10.249.547.192-2.029.334-4.112.473-6.191"/><path fill="none" d="M-156.582 857.958c-2.348 3.292-6.957 4.72-11.311 3.5-1.402-.34-2.48-1.136-2.769-2.653.012-.678.077-1.301.5-1.763 2.057-1.475 5.064-.64 7.52-.963 3.022-.05 5.552-1.829 6.591-4.574.5-1.813.12-3.85-1.058-5.12-3.835-4.131-10.242-1.067-15.289-1.521-.986-.223-1.806-1.02-2.472-1.606l-.108.154c.69 2.41.636 5.533-.138 7.916 2.818-3.284 7.3-6.28 12.436-5.147 1.455.285 2.953.99 3.345 2.456.193.785-.08 1.613-.558 2.18-3.538 2.694-9.533-.17-12.463 3.584-1.112 1.228-1.567 3.199-1.124 4.824.943 2.568 3.365 4.223 6.176 4.377 3.53.635 7.38-2.267 10.249.547.192-2.029.334-4.112.473-6.191"/><path d="m-185.119 860.48.54-1.136c-.513-.373-.89.193-1.306.289-1.005.712-2.052 1.109-3.103 1.613l.154.212c1.405.077 2.91.204 3.715-.978"/><path fill="none" d="m-185.119 860.48.54-1.136c-.513-.373-.89.193-1.306.289-1.005.712-2.052 1.109-3.103 1.613l.154.212c1.405.077 2.91.204 3.715-.978"/><path d="M-184.75 857.1c-1.039.034-1.786.854-2.675 1.15-.577.25-1.305.185-1.678.647.616.482 1.705.709 2.494.358.84-.35 1.533-1.328 1.86-2.156"/><path fill="none" d="M-184.75 857.1c-1.039.034-1.786.854-2.675 1.15-.577.25-1.305.185-1.678.647.616.482 1.705.709 2.494.358.84-.35 1.533-1.328 1.86-2.156"/><path d="M-195.171 857.284c.273-.623.493-1.347.35-2.079-.25-.681-.604-1.209-1.224-1.428-.782-.012-1.101.45-1.479 1.07-.377.72-.134 1.713.22 2.399.35.785 1.705.808 2.133.038"/><path fill="none" d="M-195.171 857.284c.273-.623.493-1.347.35-2.079-.25-.681-.604-1.209-1.224-1.428-.782-.012-1.101.45-1.479 1.07-.377.72-.134 1.713.22 2.399.35.785 1.705.808 2.133.038"/><path d="M-185.038 855.898c.162-.362.324-.674.277-1.09-1.212.863-2.78 1.202-4.296 1.54-.004.105-.058.209-.058.313 1.036.277 2.495.354 3.438-.15z"/><path fill="none" d="M-185.038 855.898c.162-.362.324-.674.277-1.09-1.212.863-2.78 1.202-4.296 1.54-.004.105-.058.209-.058.313 1.036.277 2.495.354 3.438-.15z"/><path fill="#fff" d="M-181.915 850.115c.315-.358.43-1.031.18-1.455-1.231-1.113-2.66.162-4.115.035-4.593.439-9.752.612-14.16-.458-.316.05-.628.096-.894.35-.266.258-.323.67-.227 1.04 1.424 1.898 3.815 2.202 6.102 2.448 4.744-.073 9.468.79 13.114-1.96"/><path fill="none" d="M-181.915 850.115c.315-.358.43-1.031.18-1.455-1.231-1.113-2.66.162-4.115.035-4.593.439-9.752.612-14.16-.458-.316.05-.628.096-.894.35-.266.258-.323.67-.227 1.04 1.424 1.898 3.815 2.202 6.102 2.448 4.744-.073 9.468.79 13.114-1.96"/><path d="m-182.535 849.792.004-.258c-2.299.273-4.647.7-6.946.97-.158.104-.162.208-.108.312 2.445.042 4.998.089 7.05-1.024"/><path fill="none" d="m-182.535 849.792.004-.258c-2.299.273-4.647.7-6.946.97-.158.104-.162.208-.108.312 2.445.042 4.998.089 7.05-1.024"/><path fill="#fff" d="M-182.643 847.032c.335-4.32-.828-9.287 2.037-12.417.323-.512.335-1.19.034-1.771-2.271-1.34-5.128-1.756-7.935-2.064-4.79-.238-9.64.093-13.633 2.106-.816 1.914 1.36 2.784 1.536 4.559.836 2.88.305 6.31.459 9.436 1.447.755 3.164.786 4.827 1.02 4.374.078 8.848.366 12.675-.87"/><path fill="none" d="M-182.643 847.032c.335-4.32-.828-9.287 2.037-12.417.323-.512.335-1.19.034-1.771-2.271-1.34-5.128-1.756-7.935-2.064-4.79-.238-9.64.093-13.633 2.106-.816 1.914 1.36 2.784 1.536 4.559.836 2.88.305 6.31.459 9.436 1.447.755 3.164.786 4.827 1.02 4.374.078 8.848.366 12.675-.87"/><path d="M-184.04 846.435c.157-.154.057-.262.007-.42-1.051.45-2.402.273-3.4.724a5.35 5.35 0 0 0 3.392-.304"/><path fill="none" d="M-184.04 846.435c.157-.154.057-.262.007-.42-1.051.45-2.402.273-3.4.724a5.35 5.35 0 0 0 3.392-.304"/><path d="m-183.91 844.822.004-.208c-1.201.288-2.406.635-3.708.612l-.007.416c1.143.177 3.014.415 3.711-.82"/><path fill="none" d="m-183.91 844.822.004-.208c-1.201.288-2.406.635-3.708.612l-.007.416c1.143.177 3.014.415 3.711-.82"/><path d="M-195.198 843.998c.589-.824.558-2.022.104-2.86-.362-.32-.716-.902-1.398-.652-.681.355-1.216 1.02-1.178 1.906-.015.886.335 1.725 1.163 2.052.57.166.993-.138 1.309-.446"/><path fill="none" d="M-195.198 843.998c.589-.824.558-2.022.104-2.86-.362-.32-.716-.902-1.398-.652-.681.355-1.216 1.02-1.178 1.906-.015.886.335 1.725 1.163 2.052.57.166.993-.138 1.309-.446"/><path d="m-183.883 843.416.008-.42c-1.255.293-2.514.686-3.87.767l-.007.366c1.46-.027 2.857.57 3.87-.713"/><path fill="none" d="m-183.883 843.416.008-.42c-1.255.293-2.514.686-3.87.767l-.007.366c1.46-.027 2.857.57 3.87-.713"/><path d="m-183.856 841.8.012-.574c-1.263.604-2.819.315-4.081.87.354.735 1.451.543 2.179.504.681-.196 1.363-.339 1.89-.8"/><path fill="none" d="m-183.856 841.8.012-.574c-1.263.604-2.819.315-4.081.87.354.735 1.451.543 2.179.504.681-.196 1.363-.339 1.89-.8"/><path d="m-183.821 839.874.011-.677c-1.309.446-2.672.785-4.18.812-.213.1-.163.258-.062.47 1.355-.081 3.268.731 4.23-.605"/><path fill="none" d="m-183.821 839.874.011-.677c-1.309.446-2.672.785-4.18.812-.213.1-.163.258-.062.47 1.355-.081 3.268.731 4.23-.605"/><path d="M-183.52 837.637c0-.104.103-.154.053-.258l-4.651.909.1.212c1.513-.131 3.63.893 4.497-.863"/><path fill="none" d="M-183.52 837.637c0-.104.103-.154.053-.258l-4.651.909.1.212c1.513-.131 3.63.893 4.497-.863"/><path d="M-181.989 833.445c.104-.1.262-.254.216-.462-4.855.539-10.076 1.228-15.22.462-.261.1-.153-.212-.311-.162.008-.416.423-.408.689-.562 3.923-.866 7.25-.55 11.208-.585-.978-.59-2.28-.666-3.527-.74-4.112-.277-8.386-.042-11.908 1.667-.212.205-.424.359-.428.774 1.494.863 3.37.948 5.24 1.032 4.794.081 9.841.377 14.041-1.424"/><path fill="none" d="M-181.989 833.445c.104-.1.262-.254.216-.462-4.855.539-10.076 1.228-15.22.462-.261.1-.153-.212-.311-.162.008-.416.423-.408.689-.562 3.923-.866 7.25-.55 11.208-.585-.978-.59-2.28-.666-3.527-.74-4.112-.277-8.386-.042-11.908 1.667-.212.205-.424.359-.428.774 1.494.863 3.37.948 5.24 1.032 4.794.081 9.841.377 14.041-1.424"/><path fill="#fff" d="m-267.972 836.109-.94.042c-3.438.154-5.043 1.779-4.912 3.604.154 2.144 2.637 4.262 6.406 4.143.92-.027 1.621-.15 2.203-.347l.458-.154-.174-.189-.978.166c-1.02.165-1.628.2-2.344.139-3.046-.255-4.882-1.895-5.14-3.585-.27-1.767 1.224-3.415 4.643-3.469l1.028-.019.508.716c2.969 4.177 5.96 5.968 7.674 6.083.562.035.87-.258.873-.689.008-.735-.284-1.305-1.786-2.853-1.544-1.598-2.86-2.46-4.666-3.15l-.936-.353-2.545-3.693a8 8 0 0 0-1.313-1.316c-1.686-1.336-3.55-1.968-5.933-1.96-2.695.015-3.653.843-3.688 1.894-.035.982.59 1.617 1.452 1.617.488 0 .723-.223.723-.627q-.005-.306-.173-.474c-.189-.192-.396-.28-.55-.285-.12 0-.266.035-.466.139-.135.065-.247.1-.355.115-.207.031-.388-.17-.323-.593.104-.654 1.009-1.359 2.818-1.382 2.584-.03 4.79 1.244 7.581 5.252zm2.167.527.628.212c.993.32 2.145.99 3.477 2.172.931.827 1.724 1.678 2.098 2.19.431.585.539.84.57 1.275.019.327-.177.5-.5.473-1.04-.096-2.6-1.101-4.975-4.381q-.399-.554-.774-1.124l-.531-.805zm.443-4.643-.223-.262c-.65-.77-.847-1.216-.89-1.651-.03-.32.185-.54.613-.55.612-.016 1.12.095 1.99.48.555.247 1.42.755 2.707 1.671l.647.458.188-.204-1.078-.797c-1.513-1.12-2.618-1.628-3.542-1.79a4.6 4.6 0 0 0-1.097-.088c-1.063.054-1.525.585-1.475 1.424.066 1.078.397 1.721 1.833 3.119.45.439.974.82 1.54 1.12 1.255.67 2.16.92 3.188.94.493.007.77-.243.793-.563.042-.515-.27-.97-1.694-1.882-.658-.42-1.405-.755-2.922-1.24zm.316.44.955.315c1.463.462 2.61 1.166 3.176 1.817.32.366.408.55.408.747a.27.27 0 0 1-.239.273c-.111.016-.223.004-.5-.05-.543-.111-1.767-.862-3.473-2.726l-.339-.362z"/><path fill="#fff" d="M-257.943 835.635h1.848l-3.619-4.654-.165-.224a3 3 0 0 1-.166-.246c-.277-.424-.327-.55-.335-.697-.008-.112.081-.196.235-.181.4.046.693.17 1.555.785l1.987 1.644.162-.2-.786-.685c-1.401-1.213-2.102-1.652-2.54-1.798-.278-.089-.482-.12-.674-.104-.49.039-.786.339-.867.936a2 2 0 0 0-.011.188c.019.774.262 1.286 1.61 2.992zm1.81 2.564q.032.18.115.335c.193.347.52.543.959.555.504.015.874-.312.874-.82 0-.558-.493-1.032-1.128-1.028-.443.004-.716.223-.809.623a1 1 0 0 0-.011.335"/><path fill="#fff" d="M-253.342 836.582h-1.309l.131.32h1.44l2.464 3.223h1.829l-2.464-3.211h1.902l-.174-.3h-1.955l-3.304-4.259c-1.486-1.913-1.66-2.198-1.698-2.495-.015-.12.081-.215.247-.192.52.061 1.043.315 2.833 1.817l.797.662.174-.242-1.005-.844c-1.783-1.486-2.156-1.686-2.857-1.732-.624-.039-.932.239-.955.766-.038 1.009.22 1.629 1.702 3.62l1.66 2.12zm122.952-2.541 4.07 4.266.535.597-.012.012-2.364-1.467c-2.456-1.502-3.41-2.045-5.163-2.934l-.154.281q.576.305 1.148.616c3.13 1.717 5.14 2.968 7.396 4.574h.4l-1.09-1.428-1.416-1.914-5.344-7.365h-2.33a238 238 0 0 0 4.324 4.762m8.555 4.201.262-.17-.508-.716a3 3 0 0 0-.382-.446c-.32-.3-.616-.485-.881-.578-.42-.146-.709-.185-.951-.158-.44.043-.747.44-.674 1.055.038.316.17.628.497 1.082.358.504 1.02 1.036 1.805 1.386a4.8 4.8 0 0 0 1.906.412c1.128.008 1.698-.543 1.71-1.286.015-1.093-.736-2.175-2.626-3.018l-1.556-.666v-.016l.458-.073c.705-.127 1.117-.635 1.09-1.401-.054-1.386-1.494-3.107-4.632-4.19a7 7 0 0 0-2.048-.353c-.985-.035-1.498.446-1.505 1.143-.004.27.073.49.22.65a.8.8 0 0 0 .561.286c.228.007.42-.131.509-.393a.5.5 0 0 0 .038-.17c.023-.257-.15-.477-.473-.52-.25-.03-.297-.069-.305-.196-.015-.23.181-.435.666-.47.817-.06 2.522.66 4.332 2.677q.213.241.412.488c.774 1.005.947 1.383.982 1.852.011.22-.143.39-.382.382-.296-.004-.446-.043-1.12-.32-.12-.05-.239-.104-.362-.154l-.774-.358-.042-.004-.023.004c-.058.02-.085.058-.085.096 0 .07.054.143.227.231l.674.331c.878.393 1.486.747 1.987 1.132 1.04.805 1.878 1.74 2.248 2.364.404.693.477.97.443 1.19-.027.23-.227.408-.516.439-.216.019-.435 0-.92-.112-.624-.146-1.49-.628-2.241-1.332-.67-.624-.832-1.001-.809-1.31a.61.61 0 0 1 .605-.554c.381.008 1.128.355 1.786 1.156.104.13.204.269.285.415zm7.161-3.192-.008.008-.623-.5c-1.07-.84-1.652-1.09-2.334-1.14-.927-.066-1.547.566-1.528 1.517.035 1.378.805 2.783 2.495 3.961q.707.498 1.517.793c.7.258 1.282.374 1.983.393 1.14.035 1.77-.593 1.728-1.663-.05-1.425-.75-3.01-2.51-4.982-2.653-2.984-5.34-4.293-6.976-4.312-.851-.016-1.298.393-1.329 1.016-.027.574.32.936.724.924a.6.6 0 0 0 .266-.077.63.63 0 0 0 .312-.5.46.46 0 0 0-.081-.277c-.089-.131-.196-.193-.44-.22-.172-.023-.222-.065-.222-.2-.004-.243.177-.404.577-.381 1.236.077 2.08.558 4.474 3.037a12 12 0 0 1 1.52 1.918zm-3.561-.893c.015-.262.238-.478.577-.474.297.008.678.127 1.36.516.438.247.931.609 1.509 1.148 2.025 1.878 2.668 3.291 2.598 3.98-.027.266-.208.451-.535.486-.812.096-2.029-.597-4.085-3.096q-.3-.362-.57-.743c-.62-.858-.77-1.166-.831-1.49a1.3 1.3 0 0 1-.023-.327"/><path fill="#fff" d="M-114.635 829.325c1.062 1.178 2.34 2.522 4.127 4.304l5.066 4.798.924.877-.015.012-.55-.266c-.878-.412-1.367-.539-1.833-.562-.435-.02-.785.066-1.305.327a3 3 0 0 1-.262.124c-.447.204-.547.238-.712.265-.281.035-.559-.054-.824-.3l-.34-.335-.257-.281-.4.008 2.221 2.722h.485l-1.055-1.367.012-.012.643.174c.562.146.87.184 1.197.177.304-.008.662-.077 1.117-.227l.65-.197q.204-.057.412-.07c.555-.038 1.055.163 1.648.744l.158.162c.03.034.073.061.127.069a.107.107 0 0 0 .123-.092c.008-.054-.023-.116-.161-.27l-1.175-1.247c-1.474-1.579-3.58-4.043-6.683-7.99a77 77 0 0 1-1.206-1.562z"/><path fill="#cbb33e" d="M-201.74 764.613c.667 0 1.452.431 2.041 1.136.431.512.666 1.101.666 1.61 0 .704-.508 1.177-1.216 1.177-.628 0-1.49-.512-2.08-1.216a2.44 2.44 0 0 1-.589-1.571c0-.116.039-.235.039-.35.12-.513.55-.786 1.14-.786m-5.806 2.707a2.44 2.44 0 0 1-.59-1.571c0-.116.04-.235.04-.35.118-.513.55-.786 1.139-.786.666 0 1.451.431 2.04 1.136.432.512.666 1.101.666 1.61 0 .704-.512 1.177-1.178 1.177s-1.528-.512-2.117-1.216"/><path fill="#cbb33e" d="M-138.656 759.392c-.158 0-.273-.115-.393-.388-.077-.158-.312-.474-.627-.905l-.94-1.059c-1.336-1.567-3.099-2.864-3.846-2.864-.312 0-.585.196-.585.473 0 .235.192.585.431.978.077.12.666.862 1.644 2.275.866 1.217 1.413 1.964 1.532 2.16.393.59.628 1.098.628 1.567 0 1.02-.943 1.806-2.275 1.806-.863 0-2.118-.47-3.22-1.217-.507-.311-.9-.627-2.117-1.647l1.06 1.413c.157.234.276.512.276.704 0 .081 0 .239-.08.393h-3.689c0-.116.042-.274.042-.312 0-.196-.119-.512-.315-.785l-4.012-5.91c-1.598-1.583-3.269-2.484-4.659-2.484-.904 0-1.336.432-1.336 1.175 0 .666.278 1.532 1.02 2.787 4.278.705 7.574 2.549 7.574 4.355 0 .939-.982 1.528-2.553 1.528-2.39 0-5.097-1.255-7.06-3.257-1.245-1.178-2.084-2.645-2.296-3.908a33 33 0 0 0-.693-.643c-1.135-1.02-1.801-1.451-2.352-1.451-.393 0-.666.196-.666.55 0 .196.196.55.431.94l1.49 2.079 1.729 2.317c.35.47.508.978.508 1.49 0 1.178-.747 1.883-2.079 1.883-1.49 0-3.022-.824-5.298-2.784l5.69 8.394c.547.823.744 1.097.744 1.332 0 .119-.077.277-.116.512h-3.727c.039-.235.077-.354.077-.431 0-.197-.157-.59-.508-1.102l-8.793-13.074-.27-.262c-1.767-1.725-2.903-2.353-4.042-2.353-.982 0-1.452.393-1.452 1.178 0 1.06.824 2.9 2.199 4.628 1.49 1.96 2.783 3.061 3.569 3.061.55 0 .939-.431.939-.982v-.273l-.116-.354v-.039c0-.158.039-.196.158-.196.116 0 .509.196.782.393.354.273.589.627.589.939 0 .708-1.136 1.255-2.472 1.255-2.194 0-4.393-.978-6.118-2.626-1.347-1.316-2.279-2.799-2.63-4.135-1.25-1.324-2.71-2.34-3.368-2.34-.316 0-.589.196-.589.473 0 .235.196.585.431.978.077.12.666.862 1.648 2.275.862 1.217 1.413 1.964 1.528 2.16.393.59.628 1.098.628 1.567 0 1.02-.94 1.806-2.275 1.806-.863 0-2.118-.47-3.215-1.217-.512-.311-.905-.627-2.118-1.647l1.06 1.413c.153.234.272.512.272.704 0 .081 0 .239-.077.393h-3.688c0-.116.039-.274.039-.312 0-.196-.12-.512-.316-.785l-3.303-4.87c-.694-.813-1.448-1.564-1.91-1.957-.628-.589-1.375-.981-1.844-.981-.432 0-.628.196-.628.627 0 .197.158.59.354.905l.55.743 1.017 1.451 2.08 3.138c.588.824.866 1.375.866 1.61v.43h-3.689c.039-.153.039-.311.039-.392 0-.235-.235-.743-.628-1.41l-2.04-2.983c-.705-1.02-1.255-1.648-2.434-2.668-.546-.431-1.016-.824-1.528-1.174-.393-.235-.785-.393-1.097-.393-.393 0-.59.196-.59.547 0 .393.158.708 1.06 2.04l1.177 1.687 1.999 2.903c.354.512.627 1.216.627 1.532 0 .038 0 .196-.038.312h-3.689c.043-.154.043-.312.043-.35 0-.235-.158-.709-.55-1.217l-2.003-2.984c-.285-.431-.504-.766-.67-1.013l-.042-.046c-.863-.9-1.763-1.451-2.43-1.451-.589 0-1.058.55-1.058 1.293 0 .432.038.824.154 1.298.238.94.392 1.528.512 1.763l.9 1.844.825 1.725c.47.943 1.14 1.964 2.471 3.885 1.098 1.49 1.648 2.16 2.51 3.06.59.59 1.098 1.06 1.452 1.294.158.158.393.278.628.393.234.12.392.196.512.273.35.081.47.12.47.24 0 .076-.12.153-.355.153-.038 0-.115 0-.196-.038l-.47-.077c-1.332-.235-3.176-1.06-4.666-2.04-1.375-.944-2.591-2.003-4.397-3.924-.978-1.059-1.686-1.883-2.079-2.472l-2.118-2.903c-1.255-1.686-1.92-2.433-3.842-4.316 1.174 1.648 1.49 2.314 2.195 3.923.277.747.55 1.413.708 1.964 0 .116.154.824.508 2.195.039.119.158.746.47 1.882.235.905.393 1.452.473 1.687.155.473.312.981.509 1.451.354.943 1.02 1.767 1.61 2.04.272.12.43.278.43.393 0 .081-.119.12-.196.12a1.7 1.7 0 0 1-.431-.12l-.747-.312c-1.136-.512-2.98-1.844-4.077-3.06-1.02-1.14-2.515-2.98-4.2-5.298l-1.687-2.275c-2.276-3.1-3.766-4.628-5.61-5.845-1.609-1.02-3.176-1.567-4.628-1.567-2.51 0-4.042 1.567-4.042 4.158 0 1.764 1.101 3.881 2.787 5.333.978.785 2.276 1.297 3.53 1.297 1.764 0 2.865-1.059 2.865-2.826 0-.55-.196-1.255-.627-2.002-.316-.508-.59-.9-.866-1.02-.312-.154-.509-.312-.509-.47 0-.038 0-.077.077-.115.039-.081.12-.12.158-.12.158 0 .393.12.666.393l1.217.94c1.097.904 1.805 2.433 1.805 3.846 0 1.767-1.14 2.787-3.099 2.787-2.275 0-5.532-1.767-7.53-4.2-1.494-1.802-2.515-4.197-2.515-5.922 0-2.864 1.806-4.708 4.632-4.708 2.233 0 4.431 1.02 6.788 3.099 1.212 1.097 2.314 2.314 3.646 4.158.354.55.9 1.332 1.686 2.433.708 1.059 1.255 1.883 1.648 2.391l2.117 2.788c1.452 1.882 1.61 2.036 2.591 2.941-.077-.196-.119-.277-.119-.316-.35-.47-.35-.47-.978-1.332-.589-.824-1.374-2.472-1.805-3.923-.077-.273-.235-.943-.513-1.96a115 115 0 0 0-1.135-4.08c-.235-.825-.512-1.452-.705-1.964-.55-1.098-1.297-2.118-1.61-2.391-.315-.158-.473-.274-.473-.431 0-.12.12-.235.278-.235.115 0 .392.115.666.235l1.02.666c1.882 1.097 4.512 3.803 7.257 7.415l2.118 2.745c1.49 2.04 2.668 3.296 4.196 4.709 1.298 1.174 1.844 1.567 3.415 2.471l-1.058-1.062c-1.648-1.606-2.357-2.43-3.531-3.92-.862-1.178-1.686-2.275-2.356-3.415-1.96-3.099-3.1-6.04-3.1-7.808 0-1.528.786-2.39 2.199-2.39 1.193 0 2.356.677 3.758 2.16a2 2 0 0 1-.027-.316c0-1.06.904-1.725 2.237-1.725 1.647 0 3.218.9 5.336 3.138-.274-.628-.432-1.217-.432-1.533 0-1.058.901-1.763 2.195-1.763 1.32 0 2.445.577 3.985 1.987l-1.082-1.594h3.804l4.196 6.194.747.709 1.06.94c.823.708 1.959 1.258 2.629 1.258.35 0 .589-.238.589-.589 0-.473-.158-.708-2.083-3.141-1.802-2.314-2.314-3.215-2.314-4.04 0-1.02.747-1.686 2.002-1.686 1.328 0 3.473 1.267 5.244 2.961-.012-.127-.031-.25-.031-.373 0-1.687 1.101-2.626 3.18-2.626 1.725 0 3.138.508 4.432 1.61.119.1.246.215.377.33l-1.043-1.547h3.688l3.415 5.136c.94 1.336 2.903 3.06 4.273 3.727.393.196.786.315 1.02.315.393 0 .513-.158.513-.512 0-.627-.512-1.409-2.04-3.295-1.649-1.999-2.238-2.942-2.238-3.843 0-1.136.666-1.844 1.883-1.844 1.49 0 2.941.785 4.67 2.352.123.124.262.254.4.393.02-1.817 1.348-2.822 3.566-2.822 1.686 0 3.06.431 4.354 1.413q.2.145.389.296l-.897-1.316h3.808l4.196 6.194.747.709 1.059.94c.824.708 1.96 1.258 2.626 1.258.354 0 .589-.238.589-.589 0-.473-.158-.708-2.08-3.141-1.805-2.314-2.313-3.215-2.313-4.04 0-1.02.747-1.686 2.002-1.686 1.844 0 5.255 2.434 7.06 5.06.394.55.628.862.744.943.12.115.196.273.196.392 0 .077-.077.154-.196.154m-18.557 2.041c1.14 1.063 1.724 1.413 2.356 1.413.389 0 .627-.196.627-.59 0-.665-.627-1.685-1.69-2.548-.47-.354-.978-.704-1.528-.943-.786-.389-1.294-.508-2.51-.782.9 1.529 1.332 2.08 2.745 3.45"/></g></svg>