<?xml version="1.0" encoding="utf-8"?>
<!-- Generator: Adobe Illustrator 27.0.0, SVG Export Plug-In . SVG Version: 6.00 Build 0)  -->
<svg version="1.1" id="Livello_1" xmlns="http://www.w3.org/2000/svg" xmlns:xlink="http://www.w3.org/1999/xlink" x="0px" y="0px"
	 viewBox="0 0 249.7 250.2" style="enable-background:new 0 0 249.7 250.2;" xml:space="preserve">
<style type="text/css">
	.st0{fill:#2B2E2A;}
</style>
<g>
	<g id="Livello_2_00000096773463620825670480000010196351328658853259_">
		<path class="st0" d="M227.9,0c-0.6,0.1-1.1,0.6-1.2,1.2l-1.6,8.2c-0.3,1.4-0.5,2.7-0.8,4.1l-0.9,4.1l-1.9,8.1l-2.2,8l-2.4,8
			l-2.9,7.8l-2.9,7.8c-0.5,1.3-0.9,2.6-1.4,3.9l-1.2,3.1c-7.7-4.3-16.9-5.7-25.6-3.8c-2.2,0.5-4.4,1.2-6.4,2.1
			c-2.1,0.9-4.1,2-5.9,3.3c-3.8,2.5-7.1,5.8-9.6,9.5v0c-0.1,0.1-0.1,0.1-0.1,0.2c-0.1,0.4,0.1,0.8,0.5,0.9l2.9,0.8l2.9,0.7l3,0.5
			l3,0.3l3,0.2l3,0l3-0.2l3-0.3l3-0.5l2.9-0.7l2.9-0.8l2.9-1l2.8-1.2l2.7-1.3l2.6-1.5l0.4-0.3l-2.9,6.3l-1,2.1
			c-0.3,0.7-0.6,1.4-1,2.1l-2.2,4.2l-4.4,8.3l-2.2,4.2l-1.1,2.1c-0.2,0.4-0.5,0.9-0.7,1.3c-3-2.4-6.5-4-10.2-4.9
			c-4-0.9-8.1-1.1-12.2-0.5c-2,0.3-4,0.8-5.9,1.4c-1.9,0.6-3.8,1.3-5.7,2.2c-3.7,1.7-7.1,3.8-10.4,6.1c-0.1,0.1-0.1,0.1-0.2,0.2
			c-0.2,0.3-0.1,0.8,0.2,1.1c6.1,4.2,13.6,5.8,20.8,5.6c6.6-0.2,12.9-1.7,19-3.8l-7.5,11.8l-1.1,1.7c-0.4,0.6-0.7,1.1-1.1,1.7
			l-2.4,3.3l-4.2,6c-3.7-2.8-7.8-4.9-12.2-6.2c-2.3-0.7-4.7-1.2-7.1-1.4c-1.2-0.1-2.4-0.2-3.6-0.2c-1.2,0-2.5,0.1-3.6,0.2
			c-4.9,0.5-9.6,2-13.8,4.3s-8.1,5.4-11.2,9.2l0,0c0,0-0.1,0.1-0.1,0.2c-0.2,0.4,0,0.8,0.4,1l2.9,1.4l3,1.1l3.1,0.9l3.2,0.8l3.2,0.6
			l3.2,0.4l3.2,0.1l3.2-0.1l3.2-0.2l3.2-0.4l3.2-0.6l3.1-0.8l3.1-1l3-1.2l2.4-1.1l-0.2,0.3l-1.2,1.6c-0.4,0.6-0.8,1.1-1.3,1.6
			l-5.3,6.3l-5.3,6.3l-2.6,3.2l-1.3,1.6c-0.2,0.3-0.4,0.5-0.6,0.8c-0.4-0.6-0.8-1.2-1.3-1.8c-0.8-0.8-1.5-1.6-2.4-2.4
			c-1.7-1.4-3.6-2.6-5.6-3.6c-2-0.9-4.1-1.7-6.2-2.2c-1.1-0.3-2.2-0.5-3.2-0.6c-1.1-0.2-2.2-0.3-3.3-0.3c-8.8-0.4-17.6,1.8-25.2,6.3
			c-0.4,0.3-0.6,0.8-0.3,1.3c2,3.5,5.2,6.2,8.7,8c3.5,1.8,7.4,2.8,11.2,3.4c3.8,0.6,7.7,0.9,11.5,0.9c2.8,0,5.6-0.2,8.4-0.7
			l-3.4,3.6c-1.9,2-3.7,4-5.7,5.9l-8.3,8.2c-0.6-0.7-1.1-1.4-1.7-2.1c-0.8-0.9-1.7-1.7-2.7-2.5c-0.9-0.8-1.9-1.5-2.9-2.2
			c-1-0.7-2.1-1.3-3.1-1.9c-2.2-1.1-4.4-2.1-6.8-2.8c-1.2-0.3-2.3-0.6-3.5-0.9c-1.2-0.2-2.4-0.4-3.6-0.5c-1.2-0.1-2.4-0.2-3.6-0.2
			c-1.2,0-2.4,0.1-3.6,0.1c-2.4,0.2-4.8,0.6-7.2,1.2c-4.7,1.2-9.2,3.1-13.3,5.6c0,0-0.1,0.1-0.1,0.1c-0.5,0.4-0.6,1.1-0.2,1.6
			c0.7,0.9,1.4,1.7,2.2,2.5c0.8,0.8,1.6,1.5,2.5,2.2c1.8,1.4,3.7,2.6,5.6,3.5c4,2,8.3,3.1,12.7,3.7c1.1,0.1,2.1,0.2,3.3,0.3
			c1.1,0.1,2.2,0.1,3.3,0.1c2.2,0,4.4-0.1,6.5-0.2c3-0.2,6-0.6,8.9-1l-14,12.8c-5.3-0.2-10.6,0.5-15.7,2.1c-1.3,0.4-2.5,0.9-3.8,1.4
			c-1.2,0.5-2.4,1.1-3.6,1.7c-1.2,0.6-2.3,1.3-3.4,2c-1.1,0.7-2.2,1.5-3.3,2.3c-1,0.8-2,1.6-3,2.6c-1,0.9-1.9,1.9-2.8,2.9
			c-0.9,1-1.7,2-2.5,3.1c-0.8,1.1-1.5,2.2-2.2,3.3c-2.8,4.5-4.8,9.5-5.9,14.8c0,0.1,0,0.3,0,0.5c0.1,0.7,0.8,1.2,1.5,1.1
			c5-0.7,10.1-1.5,15.1-2.7c5-1.2,10-3,14.5-5.7c1.1-0.7,2.2-1.4,3.3-2.2c0.6-0.4,1-0.8,1.5-1.2c0.5-0.5,1-0.9,1.5-1.4
			c1.9-1.9,3.6-3.9,5-6.1c2.8-4.3,4.6-9.2,5.3-14.2l3.5-3.1l1.9-1.7l1.9-1.7l0.7-0.6l-0.4,0.8l-1.3,3.2l-1.1,3.3l-0.9,3.3l-0.7,3.4
			l-0.5,3.4l-0.3,3.4l-0.1,3.5l0.2,3.5l0.4,3.4l0.6,3.4l0.8,3.4l1,3.3l1.3,3.2c0.1,0.3,0.4,0.6,0.7,0.8c0.7,0.4,1.6,0.1,2-0.6l0-0.1
			l7.1-13.5c2.3-4.5,4.8-9,6.6-13.9c1.8-4.9,3-10.2,2.7-15.5c-0.2-2.7-0.7-5.4-1.7-7.9c-0.8-2.1-2-4-3.4-5.7l10-9.8
			c1.6-1.6,3.2-3.2,4.7-4.8c-0.6,1.8-1.2,3.6-1.7,5.4c-1.2,4.6-2.1,9.4-2.1,14.3c0,1.1,0,2.4,0.1,3.6c0.1,1.2,0.2,2.4,0.4,3.6
			c0.4,2.4,1,4.8,1.8,7.1c1.6,4.6,3.9,9,6.8,12.9c0.1,0.1,0.2,0.3,0.4,0.4c0.8,0.5,1.8,0.3,2.2-0.5c2.9-4.5,5.8-9.1,8.2-14
			c1.2-2.5,2.2-5,3-7.7c0.4-1.3,0.8-2.7,1-4c0.3-1.4,0.5-2.6,0.6-4.1c0.1-1.4,0.2-2.8,0.2-4.2c0-1.4-0.1-2.8-0.2-4.2
			c-0.1-1.4-0.3-2.8-0.6-4.1c-0.3-1.4-0.6-2.7-1-4c-0.8-2.7-1.9-5.2-3.2-7.7c-0.6-1.2-1.4-2.4-2.1-3.6c-0.4-0.6-0.8-1.2-1.2-1.7
			l-0.4-0.5l0.5-0.5l1.4-1.7l2.9-3.3l5.7-6.6l4.9-5.7c-1.5,6-2,12.2-1.3,18.4c0.1,1.1,0.3,2.4,0.6,3.6c0.2,1.2,0.5,2.4,0.8,3.5
			c0.6,2.3,1.5,4.6,2.5,6.8c2,4.4,4.7,8.4,8.1,11.9c0.1,0.1,0.3,0.3,0.5,0.4c0.8,0.4,1.8,0,2.1-0.8c4-8.9,6.9-18.7,6.6-28.8
			l-0.1-1.9l-0.2-1.9c-0.2-1.2-0.4-2.5-0.6-3.7c-0.5-2.5-1.3-4.9-2.2-7.2c-0.5-1.2-1-2.3-1.6-3.4c-0.6-1.1-1.3-2.2-2-3.2
			c-0.7-1-1.5-2-2.4-3c-0.6-0.7-1.3-1.4-2-2l3.8-5.2l2.4-3.2l1.2-1.7l1.1-1.7l5.8-8.8c-0.1,2.2-0.1,4.4,0.1,6.6c0.1,2,0.3,4,0.6,6
			c0.2,1,0.3,2,0.6,3c0.2,1,0.4,2,0.7,2.9c1.1,3.9,2.7,7.7,4.8,11.1c2.1,3.5,4.8,6.6,7.9,9.2c0.1,0.1,0.3,0.2,0.5,0.3
			c0.7,0.2,1.5-0.2,1.6-1c2.3-9.1,4.7-18.5,4.2-28.2c-0.1-1.2-0.2-2.4-0.3-3.6c-0.2-1.2-0.4-2.4-0.6-3.6c-0.3-1.2-0.6-2.4-1-3.5
			c-0.4-1.2-0.9-2.3-1.4-3.4c-0.6-1.1-1.2-2.2-2-3.2c-0.4-0.5-0.9-1-1.2-1.4c-0.5-0.5-0.9-0.9-1.5-1.3c-1.5-1.2-3.3-2.1-5.2-2.5
			c4.4-7.5,8.6-15.2,12.2-23.1c0.1-0.1,0.1-0.2,0.2-0.4c0,0.7,0,1.4,0,2.1c0.1,2.2,0.3,4.4,0.7,6.6c0.4,2.2,0.9,4.3,1.6,6.4l0,0
			c0.6,2.1,1.5,4.2,2.4,6.1c1,2,2.1,3.9,3.3,5.7c1.2,1.8,2.6,3.5,4.1,5.2c1.5,1.6,3.1,3.1,4.8,4.5c0,0,0.1,0.1,0.1,0.1
			c0.4,0.2,0.8,0.1,1-0.3c0.5-0.9,1-1.9,1.4-2.9c0.4-1,0.8-2.1,1-3.1c0.6-2.1,0.8-4.3,0.9-6.5s-0.1-4.4-0.5-6.5
			c-0.2-1.1-0.4-2.1-0.7-3.2c-0.3-1.1-0.6-2.1-1-3.2c-0.4-1-0.8-2-1.2-3c-0.5-1-0.9-2-1.5-2.9c-1-1.9-2.2-3.8-3.4-5.5
			c-2.4-3.4-5.1-6.4-7.8-9.4l0-0.7c0-0.3-0.1-0.5-0.2-0.7c0.1-0.3,0.3-0.7,0.4-1c0.9-2.1,1.8-4.4,2.5-6.6l2.3-6.6l2.3-6.6l1.1-3.3
			l0.3-0.8l0.3-0.9l0.5-1.7l1.8-6.7l1.6-6.8c0.5-2.3,0.9-4.6,1.4-6.9c0.4-2.3,0.8-4.6,1.1-6.9l0.9-6.9c0.1-1.1,0.3-2.3,0.4-3.5
			l0.1-0.9l0.1-0.5c0-0.3-0.1-0.6-0.2-0.9C229.1,0.2,228.5-0.1,227.9,0L227.9,0z"/>
	</g>
</g>
</svg>
