<?xml version="1.0" encoding="UTF-8"?>
<svg id="Livello_3" data-name="Livello 3" xmlns="http://www.w3.org/2000/svg" viewBox="0 0 249.7 251.56">
  <defs>
    <style>
      .cls-1 {
        fill: #f7f5e3;
      }
    </style>
  </defs>
  <g>
    <path class="cls-1" d="M48.57,12.4c13.8,49.88,43.15,93.52,73.67,134.65,25.82,34.53,55.48,67.82,94.14,88.02,6.65,3.62,14.94,6.93,22.07,9.6,.22,.08,.33,.33,.24,.55-.08,.21-.32,.32-.54,.25-7.32-2.43-15.7-5.5-22.47-9.03-39.35-19.55-68.96-53.74-94.68-88.47C90.81,106.43,61.78,62.56,47.75,12.63c-.06-.23,.07-.46,.3-.53,.23-.06,.46,.07,.53,.3h0Z"/>
    <path class="cls-1" d="M68.81,66.55c-4.75-13-2.42-28.21,6.15-39.1,2.81-3.64,6.23-6.82,10.09-9.35,.34-.22,.81-.1,.99,.26,8.5,14.77,14.51,30.96,.72,44.86-3.88,3.83-8.63,6.71-13.75,8.35-.22,.07-.46-.05-.54-.28-.07-.21,.04-.43,.24-.52,4.8-2.1,9.21-5.05,12.73-8.83,12.79-13.41,7.03-28.57-.64-42.92,0,0,.99,.26,.99,.26-7.61,4.68-13.57,12.08-16.48,20.55-2.91,8.49-2.86,18.01,.28,26.43,.2,.51-.61,.83-.8,.29h0Z"/>
    <path class="cls-1" d="M97.39,113.94c-12.36-17.23-6.4-40.24,6.43-55.42,.35-.45,1.12-.3,1.27,.26,1.61,4.89,4.21,9.44,6.32,14.31,4.69,9.76,4.03,22.06-2.67,30.73-3.22,4.24-6.91,7.93-10.54,11.78-.36,.37-.97-.14-.64-.56,1.62-2.07,3.28-4.09,4.94-6.12,5.07-5.75,9.41-12.45,9.9-20.26,1.18-10.73-5.68-19.52-8.72-29.44,0,0,1.27,.26,1.27,.26-13.01,14.56-19.12,37.09-6.88,53.97,.34,.43-.37,.97-.69,.51h0Z"/>
    <path class="cls-1" d="M122.59,147.98c-12.22-12.96-9.68-32.75-1.36-47.1,1.24-2.14,2.42-4.7,5.11-5.47,.36-.1,.74,.1,.87,.44,1.91,4.49,4.99,8.42,7.63,12.73,2.72,4.31,4.74,9.57,3.94,14.79-.74,5.16-3.36,9.69-6.03,14.03-2.71,4.25-5.78,8.27-9.3,11.87-.36,.37-.97-.15-.64-.56,3.07-3.9,5.93-7.95,8.4-12.25,2.45-4.27,4.88-8.67,5.6-13.37,.77-4.82-1.1-9.45-3.55-13.57-2.45-4.25-5.54-8.32-7.42-13.12l.87,.44c-2.1,.55-3.24,2.88-4.35,4.67-3.55,6.08-6.26,12.78-7.07,19.8-1.11,9.25,1.3,19.29,7.92,26.07,.4,.38-.23,1.01-.61,.59h0Z"/>
    <path class="cls-1" d="M147.05,180.66c-8.39-11.06-10.25-26.56-4.52-39.24,1.86-4.22,4.44-8.13,7.66-11.48,.25-.26,.65-.29,.94-.07,4.15,3.17,7.47,7.41,9.68,12.16,7.12,14.78,.57,31.86-10.58,42.65-.37,.36-.97-.17-.63-.58,1.6-1.96,3.12-3.98,4.5-6.09,4.1-6.2,7.16-13.36,7.64-20.8,.7-9.85-3.75-19.93-11.48-26.21,0,0,.95-.06,.95-.06-9.72,9.41-13.58,24.27-9.55,37.22,1.27,4.32,3.34,8.4,6.07,11.97,.35,.42-.35,.97-.68,.51h0Z"/>
    <path class="cls-1" d="M180.12,212.25c-14.46-13.74-16.67-36.75-5.13-53.03,.33-.49,1.13-.38,1.31,.18,1.8,4.52,6.44,7.07,9.31,11.01,9.61,12.57,6.83,30.66-4.15,41.44-.37,.37-.97-.16-.63-.57,3.05-3.78,5.49-8.02,6.98-12.57,4.02-11.75,.89-24.37-8.56-32.51-1.73-1.76-3.48-3.76-4.36-6.28l1.31,.18c-5.61,7.53-8.37,17.19-7.55,26.56,.84,9.4,5.17,18.5,12.05,24.97,.41,.36-.19,1.02-.59,.62h0Z"/>
    <path class="cls-1" d="M218.89,237.63c-12.52-8.74-19.83-24.2-18.42-39.43,.43-5.05,1.68-10.06,3.81-14.7,.17-.38,.62-.55,1-.37,.17,.08,.29,.2,.36,.36,1.04,2.02,3.11,3.35,5.22,4.64,6.85,3.71,11.45,10.89,13.06,18.4,2.25,10.1-.4,20.44-4.39,29.71-.22,.47-.95,.22-.8-.3,.75-2.38,1.49-4.76,2.08-7.16,.64-2.4,1.13-4.82,1.46-7.26,1.93-11.85-1.33-25.62-12.32-31.95-2.17-1.39-4.49-2.95-5.68-5.39,0,0,1.37-.01,1.37-.01-4.36,8.85-5.45,19.31-2.96,28.88,2.52,9.58,8.5,18.27,16.68,23.9,.45,.3-.02,1.04-.49,.7h0Z"/>
    <path class="cls-1" d="M70.28,70.92c-7.89-16.68-26.34-29-45.08-24.52,0,0,.54-.94,.54-.94,1.5,4.62,3.89,8.93,6.97,12.66,7.63,9.49,19.79,14.74,31.91,14.4,2.43-.04,4.86-.32,7.27-.78,.23-.04,.46,.11,.5,.34,.04,.22-.09,.43-.29,.49-2.4,.74-4.89,1.18-7.4,1.4-12.69,1.11-25.62-4.65-33.41-14.7-3.13-3.98-5.53-8.53-6.95-13.38-.12-.39,.1-.81,.49-.92,9.37-1.98,19.28,.1,27.45,4.92,8.16,4.8,14.51,12.27,18.76,20.65,.24,.49-.5,.89-.76,.38h0Z"/>
    <path class="cls-1" d="M96.55,112.56c-8.97-16.03-28.49-25.46-46.61-22.48,0,0,.56-1.03,.56-1.03,2.12,4.39,4.96,8.41,8.32,11.92,8.37,8.81,20.11,14.3,32.22,15.18,2.41,.17,4.85,.06,7.03-.91,.22-.1,.47,0,.56,.22,.09,.2,.01,.43-.18,.54-3.45,1.97-7.47,1.67-11.24,1.39-11.33-1.14-22.05-6.81-29.73-15.16-3.41-3.73-6.27-7.97-8.33-12.57-.2-.43,.09-.96,.57-1.02,4.67-.63,9.42-.47,14.03,.34,13.8,2.47,26.54,10.94,33.54,23.17,.27,.48-.46,.91-.74,.42h0Z"/>
    <path class="cls-1" d="M122.25,147.67c-8.81-16.49-29.47-23.94-46.76-16.81,0,0,.36-1.08,.36-1.08,5.16,7.97,12.55,14.46,21.09,18.48,6.4,3.01,13.49,4.59,20.56,3.86,2.35-.21,4.69-.67,6.98-1.31,.49-.15,.78,.61,.28,.81-18.99,7.68-40.3-4.6-50.17-21.06-.25-.39-.07-.93,.36-1.08,8.76-3.24,18.63-3.22,27.37,0,8.73,3.21,16.15,9.66,20.67,17.77,.26,.49-.47,.91-.75,.41h0Z"/>
    <path class="cls-1" d="M148.23,181.76c-10.79-12.86-30.17-17.12-45.34-9.94,0,0,.27-1.12,.27-1.12,5.86,6.93,13.32,12.76,21.98,15.6,8.59,2.76,18.27,2.49,26.34-1.81,.21-.11,.47-.03,.58,.18,.1,.19,.04,.43-.13,.55-1.94,1.34-4.1,2.38-6.34,3.16-6.78,2.28-14.3,2.09-21.06-.19-9.03-2.99-16.65-9.21-22.48-16.57-.26-.31-.21-.77,.1-1.02,11.78-5.15,26.01-4.19,36.99,2.49,3.63,2.2,6.94,4.92,9.75,8.11,.36,.41-.28,.99-.64,.56h0Z"/>
    <path class="cls-1" d="M178.99,211.63c-11.14-12.32-30.52-16.34-45.62-9.42,0,0,.35-.99,.35-.99,2.21,3.96,5.41,7.34,9.2,9.84,8.29,5.54,22.9,9.59,32.4,5.52,2.05-.91,3.91-2.24,5.34-3.98,.15-.18,.42-.21,.6-.05,.17,.14,.2,.38,.09,.56-1.31,2.04-3.24,3.65-5.39,4.79-10.05,5.06-25.25,.8-34.07-5.34-3.92-2.74-7.25-6.41-9.45-10.68-.19-.36-.02-.82,.35-.98,3.94-1.66,8.14-2.62,12.37-2.96,12.67-.97,25.78,3.73,34.45,13.12,.37,.4-.25,.99-.63,.57h0Z"/>
    <path class="cls-1" d="M217.11,236.86c-14.32-11.06-34.77-7.43-48.28,3.2,0,0,.1-1.08,.1-1.08,3.31,3.38,7.31,6.05,11.65,7.85,8.7,3.7,18.73,3.62,27.43-.04,4.37-1.77,8.39-4.4,11.85-7.68,.17-.16,.44-.15,.6,.02,.15,.16,.16,.4,.02,.57-1.58,1.87-3.4,3.54-5.37,5.02-9.95,7.5-23.91,8.95-35.24,3.79-4.53-2.01-8.66-4.9-12-8.54-.29-.31-.24-.82,.11-1.06,3.62-2.57,7.53-4.74,11.64-6.39,12.25-5.04,27.24-4.53,38.01,3.67,.43,.34-.06,1.02-.52,.68h0Z"/>
    <path class="cls-1" d="M24.94,46.58c-4.06-4.06-9.79-6.23-13.11-11.01-.13-.21-.06-.49,.15-.62,.12-.07,.27-.08,.4-.03,1.41,.54,2.56,1.39,3.65,2.31,2.19,1.83,4.07,4.03,6.2,5.93,1.06,.95,2.13,1.9,3.26,2.77,.46,.35-.11,1.05-.55,.65h0Z"/>
    <path class="cls-1" d="M83.99,19.06c2.4-6.24,2.81-13.35,6.79-18.9,.15-.19,.43-.22,.62-.07,.12,.1,.18,.25,.16,.4-.2,1.72-.73,3.3-1.33,4.84-1.2,3.1-2.77,6.07-3.9,9.21-.57,1.57-1.11,3.15-1.53,4.76-.15,.55-1,.31-.82-.25h0Z"/>
  </g>
  <g>
    <path class="cls-1" d="M213.67,236.29c-12.9,2.5-26.1,4.7-39.27,3.64-.25-.02-.25-.42,.01-.43,9.85-.39,19.7-.46,29.47-1.88,3.25-.49,6.49-1.03,9.7-1.75,.26-.06,.37,.36,.09,.42h0Z"/>
    <path class="cls-1" d="M209.29,196.27c1.01,10.43,3.13,20.72,5.6,30.89,.81,2.84,1.34,7.39,3.01,9.85,.15,.2-.16,.47-.33,.27-2.34-2.78-2.67-6.52-3.65-9.88-.81-3.41-1.5-6.84-2.11-10.29-1.22-6.9-2.15-13.83-2.95-20.79-.03-.26,.4-.33,.42-.05h0Z"/>
    <path class="cls-1" d="M177.1,173.36c-.14,13.1,1.86,26.06,3.08,39.07,.02,.25-.37,.32-.42,.06-2.09-9.62-2.5-19.5-2.85-29.31-.13-3.27-.17-6.55-.23-9.82,0-.27,.43-.29,.43,0h0Z"/>
    <path class="cls-1" d="M176.05,212.02c-10.22-3.24-21.36-4.85-31.74-7.47-.24-.06-.18-.45,.08-.42,5.44,.51,10.75,1.8,16.03,3.15,5.27,1.37,10.51,2.85,15.75,4.33,.26,.07,.15,.5-.12,.41h0Z"/>
    <path class="cls-1" d="M151.75,143.31c-2.83,12.1-2.32,24.59-1.38,36.88,.02,.25-.37,.32-.42,.06-1.9-9.15-1.4-18.64-.19-27.86,.39-3.08,.95-6.13,1.57-9.18,.05-.26,.48-.19,.42,.09h0Z"/>
    <path class="cls-1" d="M147.29,181.24c-7.15-1.92-14.48-3.02-21.81-4.02-2.44-.36-4.88-.68-7.3-1.19-.12-.02-.19-.14-.17-.25,.02-.1,.11-.17,.21-.17,2.49,0,4.95,.3,7.4,.63,4.9,.71,9.74,1.77,14.56,2.89,2.42,.53,4.81,1.14,7.21,1.71,.27,.06,.17,.49-.11,.41h0Z"/>
    <path class="cls-1" d="M126.07,111.89c-3.16,11.23-3.78,22.89-4.72,34.45-.02,.25-.42,.25-.43,0-.47-8.76,1.02-17.49,2.77-26.04,.57-2.86,1.27-5.69,1.97-8.51,.06-.26,.49-.17,.41,.11h0Z"/>
    <path class="cls-1" d="M120.35,148.4c-3.64-1.8-9.01-4.22-12.77-5.9-4.27-1.93-8.59-3.79-12.62-6.21-.1-.06-.13-.19-.07-.29,.06-.09,.17-.12,.26-.09,2.23,.78,4.35,1.78,6.47,2.77,3.66,1.76,8.88,4.45,12.56,6.3,2.11,1.01,4.21,2.07,6.35,3.04,.25,.11,.07,.52-.18,.38h0Z"/>
    <path class="cls-1" d="M103.57,75.89c-3.32,11.15-3.48,22.84-3.33,34.38,0,.25-.39,.29-.43,.03-1.3-8.66-.28-17.5,1.37-26.04,.53-2.86,1.23-5.68,1.97-8.49,.07-.26,.49-.16,.41,.11h0Z"/>
    <path class="cls-1" d="M96.71,113.7c-8.67-3.81-17.61-7.54-25.02-13.55-.19-.16,.02-.48,.24-.35,6.19,3.5,12.05,7.52,18.45,10.62,2.14,1.02,4.29,2.02,6.49,2.89,.26,.1,.1,.51-.16,.39h0Z"/>
    <path class="cls-1" d="M83.56,34.47c-2.97,5.61-5.41,11.5-7.38,17.54-1.95,6.04-3.37,12.25-4.28,18.53-.03,.26-.33,.41-.56,.28-8.36-4.38-16.92-8.48-24.9-13.55-2.66-1.7-5.26-3.51-7.74-5.46-.09-.07-.11-.21-.04-.3,.07-.09,.2-.11,.29-.04,2.6,1.76,5.26,3.43,7.95,5.05,8.08,4.87,16.47,9.17,24.79,13.63,0,0-.56,.28-.56,.28,1.03-6.3,2.59-12.51,4.61-18.55,1.99-6.06,4.52-11.93,7.44-17.59,.11-.24,.52-.06,.38,.2h0Z"/>
  </g>
</svg>