<?xml version="1.0" encoding="utf-8"?>
<!-- Generator: Adobe Illustrator 27.0.0, SVG Export Plug-In . SVG Version: 6.00 Build 0)  -->
<svg version="1.1" id="Livello_1" xmlns="http://www.w3.org/2000/svg" xmlns:xlink="http://www.w3.org/1999/xlink" x="0px" y="0px"
	 viewBox="0 0 249.7 234.4" style="enable-background:new 0 0 249.7 234.4;" xml:space="preserve">
<style type="text/css">
	.st0{fill:#2B2E2A;}
</style>
<path class="st0" d="M65.7,161.7c22.1-26,22.1-63.4,13-94.6c-3-10.7-6.8-21.1-10.9-31.3l1.1,0.3c-17.8,15.5-29.4,37.7-32.2,61
	c-0.9,7.8-0.9,15.7,0,23.5c0,0.2-0.1,0.4-0.3,0.4c-0.2,0-0.4-0.1-0.4-0.3c-1.3-7.8-1.5-15.9-0.7-23.8c2.4-23.8,14.5-46.4,32.7-62
	c0.4-0.3,1-0.2,1.1,0.3c4.1,10.3,7.8,20.8,10.7,31.6c5.8,21.4,7.9,44.4,1.8,66c-3,10.7-8.1,20.9-15.3,29.4c-0.1,0.1-0.4,0.2-0.5,0
	S65.6,161.9,65.7,161.7L65.7,161.7L65.7,161.7z"/>
<path class="st0" d="M81.5,134c18.8-8.4,39.8-11.9,60.4-10.3c6.9,0.6,13.7,1.7,20.4,3.4c0.4,0.1,0.6,0.5,0.4,0.8
	c-9.3,23.7-19.8,49.4-42.3,63.4c-3.2,1.9-6.5,3.6-10,4.9c-0.2,0.1-0.4,0-0.5-0.2c-0.1-0.2,0-0.4,0.2-0.4
	c27.6-12.3,40.8-41.6,51.4-68.1l0.4,0.8c-6.6-1.8-13.3-3-20.1-3.7c-20.4-1.9-41.3,1.5-60,9.9c-0.2,0.1-0.4,0-0.5-0.2
	C81.2,134.4,81.3,134.1,81.5,134L81.5,134L81.5,134z"/>
<path class="st0" d="M144,166.4c6.6-5.8,15.8-6.8,24.3-7.2c8.5-0.4,17.1-0.2,25.6,0.5c5.7,0.5,11.3,1.2,17,2.2
	c0.4,0.1,0.6,0.4,0.4,0.8c-9.1,25.8-31.8,46.8-58.9,52c-0.4,0.1-0.6-0.5-0.2-0.7c6.5-1.7,12.9-4.1,18.8-7.3
	c17.8-9.4,32.1-25.4,39.1-44.4l0.4,0.8c-11.1-2.1-22.5-3.4-33.8-3.4c-11,0.2-23.5-0.4-32.4,7.2C144.1,167.3,143.6,166.7,144,166.4
	L144,166.4L144,166.4z"/>
<path class="st0" d="M111.5,125.1c4.7-3.2,8-8.2,10.4-13.4c5.1-10.6,5.8-22.2,6.3-33.8c0.4-5.8,0.9-11.6,2.4-17.3l0.5,0.8
	c-4.4-1.2-8.9-1.7-13.5-1.6c-9.1,0.2-18.1,2.9-25.8,7.7c-3.9,2.4-7.4,5.3-10.6,8.6c-0.3,0.3-0.8-0.1-0.6-0.5
	c8.7-11.1,22.9-17.3,36.9-17.5c4.7-0.1,9.4,0.6,13.9,1.9c0.4,0.1,0.6,0.5,0.5,0.8c-1.6,5.5-2.2,11.3-2.7,17
	c-0.5,5.8-0.8,11.6-1.7,17.3c-1.4,8.6-4.3,17.1-9.5,24.2c-1.7,2.3-3.8,4.5-6.2,6.2C111.5,125.9,111.1,125.4,111.5,125.1L111.5,125.1
	L111.5,125.1z"/>
<path class="st0" d="M152.4,150c10.6-18.1,33.1-22.5,52.3-25.2c6.6-1,13.1-2,19.5-3.7c0.4-0.1,0.9,0.2,1,0.6c-2,7.3-5.3,14.3-9,21
	c-1.8,3.2-3.9,6.5-6,9.5c-2.2,3-4.5,5.9-7.1,8.7c-0.1,0.1-0.4,0.1-0.5,0c-0.1-0.1-0.1-0.3,0-0.5c2.3-2.9,4.5-5.9,6.5-8.9
	c2-3,4-6.4,5.7-9.5c3.5-6.5,6.5-13.2,8.8-20.2l1,1c-6.5,1.6-13.1,2.5-19.7,3.3c-19,2.3-41.5,6.2-51.9,24.3c-0.1,0.2-0.3,0.2-0.5,0.1
	C152.4,150.4,152.3,150.2,152.4,150L152.4,150L152.4,150z"/>
<path class="st0" d="M115.1,58.6C125.8,50,130.3,36.1,132,23c0.6-4.5,0.9-8.9,1.3-13.4l0.7,0.6c-10.7,3-26.6,5.6-36.1,11.3
	c-5.4,3.2-10,7.6-14,12.4c-4,4.9-7.5,10.2-11,15.5c-0.1,0.2-0.3,0.2-0.5,0.1c-0.2-0.1-0.2-0.3-0.1-0.5c3.1-5.6,6.4-11,10.4-16.1
	c4-5,8.7-9.6,14.3-12.9c9.8-5.9,25.8-8.1,36.7-10.9c0.4-0.1,0.7,0.2,0.7,0.6c-0.8,9-1.8,18.1-4.4,26.8c-2.7,8.7-7.3,17-14.3,22.8
	C115.2,59.4,114.8,58.9,115.1,58.6L115.1,58.6L115.1,58.6z"/>
<path class="st0" d="M129.3,90.3c17.7-8.2,37.9-5.3,56.5-2.4c0.6,0.1,0.8,0.8,0.4,1.2c-5.2,5.5-3.2,14.2-4.4,21.2
	c-1,7.5-2.5,15.2-6.1,21.9c-0.1,0.2-0.3,0.2-0.5,0.1s-0.2-0.3-0.1-0.5c1.5-3.4,2.5-7,3.4-10.7c1.7-7.4,2.1-14.8,2.5-22.4
	c0.3-3.9,1.3-8,4.3-10.8l0.4,1.3c-18.4-3.2-38.4-6.7-56,1.6c-0.2,0.1-0.4,0-0.5-0.2S129.1,90.4,129.3,90.3L129.3,90.3L129.3,90.3z"
	/>
<path class="st0" d="M153.5,84.8c3.7-3.1,6.6-7.1,9-11.3c7.5-12.6,10.2-27.3,11.4-41.8l0.6,0.8c-7.1-1-14.3-2.1-21.5-1.9
	c-7.2,0.1-14.3,1.4-21.1,3.7c-0.6,0.2-1-0.8-0.4-1c13.7-5.8,28.9-4.9,43.2-2.2c0.4,0.1,0.6,0.4,0.6,0.8c-0.6,4.9-1.2,9.7-2.1,14.5
	c-1.8,9.6-5.1,19-10.1,27.5c-2.5,4.2-5.4,8.2-9.2,11.5C153.6,85.6,153.1,85.1,153.5,84.8L153.5,84.8L153.5,84.8z"/>
<path class="st0" d="M181.5,99.9c9.6-9.3,23.9-9.3,36.3-10.9c4.2-0.6,8.4-1.3,12.4-2.8c0.4-0.2,0.9,0.1,1,0.6c1.9,9,0.7,18.7-3.3,27
	c-1.3,2.8-3,5.4-4.9,7.7c-0.1,0.2-0.4,0.2-0.5,0c-0.1-0.1-0.2-0.3-0.1-0.5c1.6-2.5,3.1-5.1,4.2-7.9c3.5-8.2,4.8-17.3,3.2-26.1l1,0.6
	c-8.2,2.8-17,2.7-25.5,3.6c-8.3,0.9-17.1,3.1-23.2,9.2C181.7,100.8,181.1,100.2,181.5,99.9L181.5,99.9L181.5,99.9z"/>
<path class="st0" d="M173.7,48.6c2.8-3.4,7.2-4.7,11.3-5.4c8.3-1.4,16.7-2.3,25.1-2.8c4.2-0.3,8.4-0.4,12.6-0.4
	c0.4,0,0.7,0.4,0.6,0.8c-0.8,4.2-0.4,8.5-0.2,12.8c0.9,11-2.2,22.4-9,31.1c-1.4,1.7-2.9,3.3-4.5,4.8c-0.1,0.1-0.4,0.1-0.5,0
	c-0.1-0.1-0.1-0.3,0-0.5c2.9-3.2,5.4-6.7,7.3-10.5c4-7.6,5.7-16.2,5.1-24.8c-0.1-4.3-0.4-8.8,0.5-13.2l0.6,0.8
	c-4.2,0-8.4,0-12.6,0.2c-8.4,0.3-16.8,1.2-25,2.5c-4,0.7-8.2,2-10.9,5.2C174,49.5,173.4,49,173.7,48.6L173.7,48.6L173.7,48.6z"/>
<path class="st0" d="M133.1,16.1c11.5-4.9,23.6-7.8,35.8-10.5c9.1-2,18.3-3.6,27.6-4.8c3.1-0.4,6.2-0.7,9.4-0.8
	c0.4,0,0.8,0.3,0.8,0.8c-0.7,3.4-1.1,6.9-1.3,10.4c-0.9,10.3-0.2,21.6-6,30.7c-0.1,0.2-0.3,0.2-0.5,0.1s-0.2-0.3-0.1-0.5
	c3.4-6,3.8-13.2,4.3-20c0.5-7,0.4-14,2-20.9l0.8,1c-12.3,0.5-24.6,2.7-36.7,4.9c-12.1,2.4-24.3,5.3-35.7,10.2
	c-0.2,0.1-0.4,0-0.5-0.2C132.8,16.4,132.9,16.2,133.1,16.1L133.1,16.1L133.1,16.1z"/>
<path class="st0" d="M220.8,66.9c5.9-9.3,15.9-15.2,25.7-19.8c0.4-0.2,0.9,0.3,0.6,0.7c-2.4,4.5-0.3,9.6,0.9,14.2
	c3,10-0.6,20.8-6.5,28.9c-2.9,4.1-6.1,8-9.3,11.9c-0.1,0.2-0.4,0.2-0.5,0.1c-0.1-0.1-0.2-0.3-0.1-0.5c2.8-4.2,5.9-8.1,8.6-12.3
	c5.5-8,9.1-18,6.5-27.7c-1.1-4.8-3.1-10.4-0.4-15l0.6,0.7c-9.8,4.2-19.7,10-25.5,19.3C221.2,67.7,220.5,67.3,220.8,66.9L220.8,66.9
	L220.8,66.9z"/>
<path class="st0" d="M206.4,13.6c13.6-4.9,27.8-8.1,42.2-9.3c0.4,0,0.7,0.2,0.8,0.6c0.9,7.7,0.1,15.3-1,22.9
	c-1.3,7.5-2.7,15.3-6.9,21.8c-0.1,0.2-0.3,0.2-0.5,0.1c-0.2-0.1-0.2-0.3-0.1-0.5c1.8-3.3,2.8-6.9,3.7-10.5
	c1.7-7.3,2.8-14.8,3.3-22.3c0.2-3.8,0.4-7.5,0-11.2l0.8,0.6c-10.7,0.6-21.5,2.2-31.9,5.2c-3.5,1-6.9,2.1-10.2,3.4
	C206.2,14.5,205.9,13.8,206.4,13.6L206.4,13.6L206.4,13.6z"/>
<path class="st0" d="M74.1,173.9c5.2,2.4,9.1,7,11.7,12c5.3,10.1,5.5,21.8,8.3,32.6c1.4,5.4,3.5,10.6,7,14.9c0.4,0.4,0,1.1-0.6,1
	c-6.6-1-13.1-3.5-18.5-7.5c-11.1-7.8-17.7-21.4-17.1-34.9c0.2-6.6,2.4-14,8.2-17.8c0.2-0.1,0.4-0.1,0.5,0.1c0.1,0.2,0.1,0.4-0.1,0.5
	c-2.6,2-4.4,4.8-5.4,7.8c-3.2,9.2-1.5,19.6,2.5,28.3c5.6,11.8,17.2,20.3,30.1,22.3l-0.6,1c-3.6-4.5-5.7-9.9-7-15.4
	c-2.6-10.9-2.8-22.4-8-32.5c-2.5-4.9-6.2-9.4-11.4-11.7C73.4,174.4,73.7,173.7,74.1,173.9L74.1,173.9L74.1,173.9z"/>
<path class="st0" d="M74.4,174.2c-6.3-11.4-19-17.4-31.4-19.8c-6.3-1.2-12.7-1.9-19.1-2.7c-6.4-0.9-12.8-1.9-19-4l0.8-0.5
	c-0.9,10.5,10.2,15.6,17.7,20.5c2.8,1.8,5.4,3.8,8,5.8c2.6,2.1,5,4.3,7.4,6.6c4.6,4.5,8.7,9.9,14.9,12.1c3,1.1,6.3,1.3,9.2,0
	c0.2-0.1,0.4,0,0.5,0.2c0.1,0.2,0,0.4-0.2,0.5c-3,1.6-6.7,1.5-9.9,0.5c-6.5-2-10.9-7.6-15.6-12.1c-2.3-2.3-4.8-4.4-7.3-6.5
	c-2.5-2.1-5.1-4-7.8-5.8c-7.9-5.1-19.3-10.9-18.1-22c0.1-0.4,0.5-0.7,0.8-0.5c6,2.1,12.4,3.3,18.7,4.2c12.6,1.9,26,2.9,37.3,9.6
	c5.6,3.3,10.5,7.9,13.7,13.5C75.2,174.3,74.6,174.6,74.4,174.2L74.4,174.2L74.4,174.2z"/>
<path class="st0" d="M63.4,161.8c-13.1-28.7-35.8-54-63-70.1l1-0.9c5,11.3,4.9,24.3,12.6,34.3c3.5,5,7.9,9.2,12.3,13.5
	c4.7,4.2,7.7,9.8,11.9,14.1c0.2,0.1,0.2,0.4,0,0.5c-0.1,0.1-0.4,0.1-0.5,0c-4.6-4.3-7.8-9.7-12.4-13.7c-6.8-6.2-13.8-13-17.4-21.8
	c-3.6-8.6-4.2-18.2-7.9-26.6c-0.2-0.3,0-0.8,0.3-0.9c0.2-0.1,0.4-0.1,0.6,0c6.9,4.1,13.4,8.9,19.5,14.1
	c12.1,10.5,22.8,22.6,31.8,35.9c4.4,6.7,8.4,13.7,11.7,21c0.1,0.2,0,0.4-0.2,0.5S63.4,162,63.4,161.8L63.4,161.8L63.4,161.8z"/>
<path class="st0" d="M90.1,194.5c23.1-1.8,43.5,11.2,63.8,20.1c6.8,3.1,13.8,5.9,21,7.9c0.6,0.1,0.7,1.1,0.1,1.3
	c-13.6,5.6-28.4,7.4-43,8.3c-7.3,0.6-15.1-0.4-21.6-4.1c-6.5-3.4-12.4-7.9-17.8-12.9c-0.2-0.1-0.2-0.4,0-0.5c0.1-0.1,0.3-0.1,0.5,0
	c2.8,2.3,5.7,4.6,8.7,6.6c9.8,6.8,18,10.4,30.2,9.2c14.4-0.8,29.1-2.4,42.6-7.9l0.1,1.3c-14.5-4.1-27.7-11.7-41.3-18
	c-10.2-4.7-20.7-9.1-31.8-10.4c-3.7-0.4-7.4-0.5-11.2-0.2c-0.2,0-0.4-0.1-0.4-0.3S89.9,194.5,90.1,194.5L90.1,194.5L90.1,194.5z"/>
<path class="st0" d="M64.2,196.4c-8,13.7-21,24.3-36.2,28.9c-0.3,0.1-0.6,0-0.8-0.3c-1.2-1.7-2.2-3.4-3.2-5.3c-0.6-1.4-1.9-3.2-1-5
	c0.8-1.6,2.9-2.1,4.2-2.7c0.9-0.4,1.8-0.8,2.6-1.3c5.2-2.9,10-6.6,14.6-10.4c3.1-2.6,6.2-5.2,9.2-7.8c0.2-0.1,0.4-0.1,0.5,0
	c0.1,0.1,0.1,0.4,0,0.5c-2.8,2.9-5.7,5.7-8.8,8.4c-5.4,4.6-11,9.2-17.6,12.1c-1.5,0.7-3.8,1-3.5,2.9c0.8,2.6,2.5,5.4,4,7.8l-0.8-0.3
	c7.5-2.1,14.5-5.7,20.7-10.4c6.1-4.8,11.4-10.8,15.2-17.6C63.7,195.7,64.4,196,64.2,196.4L64.2,196.4L64.2,196.4z"/>
<g>
	<path class="st0" d="M188.9,183.1c-10.6,9.4-22.5,17.9-36,22.6c-0.2,0.1-0.3-0.2-0.1-0.3c6.4-3,12.8-6.1,18.9-9.8
		c6.1-3.7,11.8-7.9,17-12.8C188.8,182.7,189,182.9,188.9,183.1L188.9,183.1L188.9,183.1z"/>
	<path class="st0" d="M173.5,187.3c-2.8,2.2-5.7,4.5-8.9,6.2c-1.1,0.6-2.2,1.1-3.3,1.4c-0.1,0-0.2,0-0.2-0.1c0-0.1,0-0.1,0.1-0.2
		c1-0.7,2.1-1.2,3.1-1.8c2.1-1.1,4.2-2.3,6.2-3.6c1-0.7,1.9-1.4,2.9-2.2C173.5,186.9,173.7,187.1,173.5,187.3L173.5,187.3
		L173.5,187.3z"/>
	<path class="st0" d="M45.9,115.1c0.3-17.6,3.5-35.4,11.6-51.2c0.1-0.2,0.4-0.1,0.3,0.1c-3.4,8.1-6.4,16.3-8.4,24.9
		c-2,8.5-3.1,17.3-3.1,26.1C46.2,115.3,45.9,115.3,45.9,115.1L45.9,115.1L45.9,115.1z"/>
	<path class="st0" d="M52.6,107.1c1.8-6.4,2.2-13.3,3.5-19.8c0-0.2,0.3-0.2,0.3,0c0,3.4-0.6,6.7-1.3,10c-0.7,3.3-1.5,6.6-2.2,9.8
		C52.9,107.4,52.6,107.3,52.6,107.1L52.6,107.1L52.6,107.1z"/>
	<path class="st0" d="M104.4,120c3.1-1.1,4.5-4.6,6.3-7.2c5.1-8.4,8-17.9,9.9-27.5c0-0.2,0.4-0.2,0.3,0.1
		c-0.9,9.8-4.8,19.3-9.9,27.6c-1.9,2.6-3.3,6.1-6.5,7.3C104.3,120.4,104.2,120.1,104.4,120L104.4,120L104.4,120z"/>
	<path class="st0" d="M84.1,49.4c7.1-10.7,15.1-23.4,28.6-25.9c0.2,0,0.3,0.3,0.1,0.3c-6.3,1.8-11.9,5.5-16.5,10.1
		c-4.7,4.6-8.3,10.1-11.9,15.6C84.3,49.8,84,49.6,84.1,49.4L84.1,49.4L84.1,49.4z"/>
	<path class="st0" d="M138,155.8c-7.3,14.4-18.9,27.1-33.8,33.8c-0.2,0.1-0.3-0.2-0.2-0.3c14.1-7.7,26.5-19,33.6-33.6
		C137.7,155.4,138.1,155.6,138,155.8L138,155.8L138,155.8z"/>
	<path class="st0" d="M168.3,95.9c-9.3-3.9-20.1-2.1-28.7,2.8c-0.2,0.1-0.4-0.2-0.2-0.3c8.2-6.1,19.7-6.5,29-2.9
		C168.6,95.7,168.5,96,168.3,95.9L168.3,95.9L168.3,95.9z"/>
	<path class="st0" d="M158.2,99.8c-3.1-0.1-6.1,0.7-8.9,1.8c-0.9,0.4-1.9,0.8-2.9,1.1c-0.1,0-0.2,0-0.2-0.1c0-0.1,0-0.1,0.1-0.2
		c0.8-0.7,1.8-1.1,2.7-1.5c2.9-1.1,6.1-1.4,9.2-1.4C158.4,99.5,158.4,99.8,158.2,99.8L158.2,99.8L158.2,99.8z"/>
	<path class="st0" d="M163.8,44.6c-2.2,12.2-6.8,24.3-14.9,33.8c-0.1,0.2-0.4,0-0.3-0.2c3.5-5.1,6.8-10.3,9.4-16
		c2.6-5.6,4.5-11.6,5.4-17.7C163.5,44.3,163.8,44.3,163.8,44.6L163.8,44.6L163.8,44.6z"/>
	<path class="st0" d="M154.2,52.6c-0.7,3.5-1.5,6.9-2.9,10.1c-0.5,1.1-1.1,2.1-1.8,3c-0.1,0.1-0.2,0.1-0.2,0
		c-0.1-0.1-0.1-0.1-0.1-0.2c0.4-1.1,0.9-2.1,1.4-3.2c1-2.1,1.9-4.2,2.6-6.5c0.3-1.1,0.6-2.2,0.8-3.4C154,52.4,154.3,52.4,154.2,52.6
		L154.2,52.6L154.2,52.6z"/>
	<path class="st0" d="M191.1,11c-15.5,0.1-30.6,4.6-44.6,11c-0.2,0.1-0.3-0.2-0.1-0.3c13.6-7.5,29.3-10.7,44.7-11.1
		C191.3,10.7,191.3,11,191.1,11L191.1,11z"/>
	<path class="st0" d="M180.9,17.8c-3.3-0.2-6.6,0.5-9.6,1.5c-1,0.3-2.1,0.7-3.1,1c-0.1,0-0.2,0-0.2-0.1c0-0.1,0-0.1,0.1-0.2
		c0.9-0.6,2-1.1,3-1.4c3.2-1,6.6-1.1,9.9-1.1C181.1,17.4,181.1,17.8,180.9,17.8L180.9,17.8L180.9,17.8z"/>
	<path class="st0" d="M214.3,53.8c-1.9,10.8-5.3,21.7-12,30.5c-0.1,0.2-0.4,0-0.3-0.2c2.8-4.7,5.4-9.5,7.5-14.6
		c2.1-5.1,3.6-10.4,4.4-15.8C214,53.6,214.4,53.6,214.3,53.8C214.3,53.8,214.3,53.8,214.3,53.8z"/>
	<path class="st0" d="M223.5,98.6c-1.9,6.6-4,13.4-8.2,19c-0.1,0.2-0.4,0-0.3-0.2c3.1-6.1,6.6-12.1,8.1-18.9
		C223.3,98.3,223.6,98.4,223.5,98.6L223.5,98.6L223.5,98.6z"/>
	<path class="st0" d="M215,102c-0.4,3.3-1.1,6.7-2.5,9.8c-0.5,1-1.1,2-1.9,2.8c-0.1,0.1-0.2,0.1-0.2,0c-0.1-0.1-0.1-0.1,0-0.2
		c0.5-1,1-2,1.5-3c1-2,1.9-4,2.4-6.2c0.2-1.1,0.4-2.2,0.5-3.3C214.6,101.7,215,101.7,215,102L215,102L215,102z"/>
	<path class="st0" d="M204.4,134.4c-14.1,1.5-27.3,7.1-39.5,14.1c-0.2,0.1-0.4-0.2-0.2-0.3c11.6-8.1,25.7-12.4,39.6-14.2
		C204.6,134,204.6,134.4,204.4,134.4L204.4,134.4z"/>
	<path class="st0" d="M237.3,15.4c-8.7,0.8-16.8,4.2-24.5,8.1c-0.2,0.1-0.3-0.2-0.2-0.3c7.3-4.9,16.1-7,24.6-8.1
		C237.5,15.1,237.5,15.4,237.3,15.4L237.3,15.4L237.3,15.4z"/>
	<path class="st0" d="M240.6,64.4c-1.7,4.8-3.1,9.8-4.7,14.6c-2.2,6.6-3,6.4-0.8-0.2c1.7-4.8,3.6-9.6,5.1-14.5
		C240.4,64.1,240.7,64.2,240.6,64.4L240.6,64.4L240.6,64.4z"/>
	<path class="st0" d="M111,94.4c-0.7,3.6-1.5,7.1-2.9,10.5c-0.5,1.1-1,2.2-1.8,3.2c-0.1,0.1-0.2,0.1-0.2,0c-0.1,0-0.1-0.1-0.1-0.2
		c0.4-1.2,0.8-2.2,1.3-3.3c0.9-2.2,1.9-4.4,2.5-6.7c0.3-1.2,0.6-2.3,0.8-3.5C110.7,94.1,111.1,94.2,111,94.4L111,94.4L111,94.4z"/>
	<path class="st0" d="M232.9,23.3c-3.3,0.3-6.4,1.5-9.3,3.1c-1,0.5-1.9,1-2.9,1.5c-0.1,0-0.2,0-0.2-0.1c0-0.1,0-0.1,0-0.2
		c0.8-0.8,1.7-1.4,2.7-1.9c3-1.5,6.3-2.3,9.6-2.8C233.1,22.9,233.1,23.2,232.9,23.3L232.9,23.3L232.9,23.3z"/>
	<path class="st0" d="M141.9,221.8c-12.8,3-27.4,0.7-37.7-7.9c-0.2-0.1,0-0.4,0.2-0.3c10.7,7.5,24.5,11.1,37.4,7.8
		C142,221.4,142.1,221.7,141.9,221.8L141.9,221.8L141.9,221.8z"/>
	<path class="st0" d="M60,169c-10.6-8.9-25-9.8-38.3-10.2c-0.2,0-0.2-0.3,0-0.3c13.4-0.8,27.8,1.7,38.5,10.3
		C60.4,168.8,60.2,169.1,60,169L60,169z"/>
	<path class="st0" d="M48.3,145.1c-10.2-10.8-21.1-21-31.1-32.1c-0.1-0.2,0.1-0.4,0.2-0.2c5.4,5.1,10.5,10.6,15.6,16
		c5.1,5.4,10.2,10.8,15.4,16.2C48.7,145,48.4,145.3,48.3,145.1L48.3,145.1L48.3,145.1z"/>
	<path class="st0" d="M85.9,219.4c-9.1-8-13.8-21.6-9.8-33.3c0.1-0.2,0.4-0.1,0.3,0.1c-2.8,11.6,0.3,25,9.7,32.9
		C86.3,219.3,86.1,219.6,85.9,219.4L85.9,219.4L85.9,219.4z"/>
</g>
</svg>
